SplineFontDB: 3.2
FontName: Chomsky
FullName: Chomsky
FamilyName: Chomsky
Weight: Regular
Copyright: Copyright (c) 2019-2021, Fredrick Brennan <copypaste @ kittens . ph>\nSee AUTHORS for all contributors.
UComments: "2019-3-21: Created with FontForge (http://fontforge.org)"
Version: 2.3
ItalicAngle: 0
UnderlinePosition: -100
UnderlineWidth: 50
Ascent: 1000
Descent: 200
InvalidEm: 0
LayerCount: 3
Layer: 0 0 "Back" 1
Layer: 1 0 "Fore" 0
Layer: 2 0 "Back 2" 0
XUID: [1021 575 -1819899406 1979258]
StyleMap: 0x0000
FSType: 0
OS2Version: 0
OS2_WeightWidthSlopeOnly: 0
OS2_UseTypoMetrics: 1
CreationTime: 1553156104
PfmFamily: 17
TTFWeight: 400
TTFWidth: 5
LineGap: 90
VLineGap: 0
OS2TypoAscent: 0
OS2TypoAOffset: 1
OS2TypoDescent: 0
OS2TypoDOffset: 1
OS2TypoLinegap: 90
OS2WinAscent: 0
OS2WinAOffset: 1
OS2WinDescent: 0
OS2WinDOffset: 1
HheadAscent: 0
HheadAOffset: 1
HheadDescent: 0
HheadDOffset: 1
OS2Vendor: 'QQQQ'
Lookup: 258 0 0 "'kern' Horizontal Kerning in Latin lookup 1" { "CAPS" [200,0,0] "N pairs" [150,0,2] "R pairs" [150,0,2] } ['kern' ('DFLT' <'dflt' > 'latn' <'dflt' > ) ]
Lookup: 260 0 0 "'mark' Mark Positioning in Latin lookup 1" { "'mark' Mark Positioning in Latin lookup 1-1"  } ['mark' ('DFLT' <'dflt' > 'latn' <'dflt' > ) ]
MarkAttachClasses: 1
DEI: 91125
KernClass2: 38 37 "CAPS"
 1 A
 1 B
 1 C
 5 D Eth
 7 E AE OE
 1 F
 1 G
 1 H
 1 I
 1 J
 1 K
 1 L
 1 M
 1 N
 8 O Oslash
 1 P
 1 Q
 1 R
 1 S
 1 T
 1 U
 1 V
 1 W
 1 X
 1 Y
 1 Z
 48 Agrave Aacute Acircumflex Atilde Adieresis Aring
 8 Ccedilla
 35 Egrave Eacute Ecircumflex Edieresis
 35 Igrave Iacute Icircumflex Idieresis
 6 Ntilde
 42 Ograve Oacute Ocircumflex Otilde Odieresis
 35 Ugrave Uacute Ucircumflex Udieresis
 6 Yacute
 5 Thorn
 5 Schwa
 7 uni01F7
 4 A AE
 1 B
 3 C E
 5 D Eth
 1 F
 1 G
 1 H
 1 I
 1 J
 1 K
 1 L
 1 M
 1 N
 10 O Q Oslash
 1 P
 1 R
 1 S
 1 T
 1 U
 1 V
 1 W
 1 X
 1 Y
 1 Z
 42 Agrave Aacute Acircumflex Atilde Adieresis
 5 Aring
 8 Ccedilla
 35 Egrave Eacute Ecircumflex Edieresis

StartChar: T
Encoding: 84 84 0
Width: 719
VWidth: 0
Flags: MW
AnchorPoint: "mark_top" 413.975 820 basechar 0
LayerCount: 3
Back
SplineSet
457.221679688 251.75390625 m 1
 213.57421875 149.211914062 l 1
 213.594726562 177.836914062 l 1
 328.223632812 226.689453125 l 1
 328.221679688 471.223632812 l 1
 213.640625 422.87890625 l 1
 213.661132812 451.50390625 l 1
 457.288085938 555.333007812 l 1
 457.221679688 251.75390625 l 1
  Spiro
    457.222 251.754 v
    213.575 149.212 v
    213.595 177.837 v
    328.224 226.69 v
    328.222 471.223 v
    213.641 422.878 v
    213.661 451.503 v
    457.288 555.333 v
    0 0 z
  EndSpiro
485.272460938 375.498046875 m 1
 565.517578125 455.743164062 l 1
 645.762695312 375.498046875 l 1
 565.517578125 295.251953125 l 1
 485.272460938 375.498046875 l 1
  Spiro
    485.272 375.498 v
    565.518 455.743 v
    645.763 375.498 v
    565.518 295.252 v
    0 0 z
  EndSpiro
328.489257812 594.189453125 m 1
 338.078125 579.8046875 l 1
 286.404296875 544.909179688 246.32421875 492.939453125 226.37109375 433.866210938 c 0
 208.469726562 380.8671875 206.97265625 322.036132812 224.657226562 268.96484375 c 0
 242.341796875 215.893554688 279.702148438 169.364257812 328.493164062 142 c 0
 370.578125 118.396484375 420.375976562 109.243164062 468.271484375 115.09765625 c 0
 516.166992188 120.952148438 561.958007812 141.39453125 599.37109375 171.866210938 c 0
 636.6796875 202.251953125 665.795898438 242.551757812 683.211914062 287.407226562 c 1
 702.380859375 287.407226562 l 1
 704.099609375 241.626953125 693.6015625 195.461914062 672.37109375 154.866210938 c 0
 648.821289062 109.833984375 612.185546875 71.9091796875 568.534179688 45.8896484375 c 0
 524.883789062 19.8701171875 474.44140625 5.6396484375 423.65625 3.8330078125 c 0
 330.602539062 0.5234375 236.779296875 39.7275390625 173.870117188 108.373046875 c 0
 110.9609375 177.018554688 80.62890625 275.291015625 97.6552734375 366.833007812 c 0
 108.17578125 423.393554688 136.189453125 476.630859375 177.1328125 517.047851562 c 0
 218.076171875 557.463867188 271.724609375 584.827148438 328.489257812 594.189453125 c 1
  Spiro
    328.489 594.189 v
    338.078 579.805 v
    226.371 433.866 o
    328.493 142 o
    599.371 171.866 o
    683.212 287.407 v
    702.381 287.407 v
    672.371 154.866 o
    423.656 3.83331 o
    97.6557 366.833 o
    0 0 z
  EndSpiro
550.993164062 575.252929688 m 1
 578.993164062 575.252929688 l 1
 578.993164062 123 l 1
 550.993164062 123 l 1
 550.993164062 575.252929688 l 1
  Spiro
    550.993 575.253 v
    578.993 575.253 v
    578.993 123 v
    550.993 123 v
    0 0 z
  EndSpiro
184.6875 527.079101562 m 1
 158.198242188 538.754882812 136.524414062 560.920898438 125.365234375 587.6328125 c 0
 114.20703125 614.34375 113.686523438 645.205078125 123.303710938 672.508789062 c 0
 131.137695312 694.75 145.446289062 714.543945312 163.555664062 729.646484375 c 0
 181.665039062 744.749023438 203.451171875 755.209960938 226.303710938 761.022460938 c 0
 251.493164062 767.427734375 277.921875 768.2421875 303.721679688 765.095703125 c 0
 329.520507812 761.948242188 354.682617188 754.846679688 379.303710938 746.522460938 c 0
 415.984375 734.120117188 452.341796875 720.466796875 490.126953125 712.008789062 c 0
 519.48828125 705.436523438 548.751953125 696.9765625 578.803710938 695.522460938 c 0
 588.958984375 695.030273438 599.493164062 696.1171875 608.4296875 700.966796875 c 0
 612.897460938 703.392578125 616.885742188 706.751953125 619.833984375 710.893554688 c 0
 622.782226562 715.03515625 624.65625 719.947265625 625.126953125 725.008789062 c 0
 625.63671875 730.481445312 624.497070312 736.072265625 622.043945312 740.991210938 c 0
 619.58984375 745.909179688 615.87109375 750.142578125 611.530273438 753.513671875 c 0
 602.849609375 760.2578125 592.02734375 763.6015625 581.303710938 766.022460938 c 0
 570.641601562 768.428710938 559.823242188 770.083007812 548.991210938 771.546875 c 1
 548.991210938 790.719726562 l 1
 561.455078125 791.66796875 574.001953125 791.537109375 586.439453125 790.295898438 c 0
 609.848632812 787.959960938 633.030273438 781.713867188 653.677734375 770.440429688 c 0
 674.32421875 759.166015625 692.3203125 742.52734375 703.439453125 721.795898438 c 0
 715.525390625 699.264648438 718.90234375 672.12109375 712.216796875 647.442382812 c 0
 705.53125 622.763671875 689.102539062 601.143554688 667.939453125 586.795898438 c 0
 649.237304688 574.1171875 627.147460938 566.924804688 604.725585938 564.1328125 c 0
 582.303710938 561.340820312 559.52734375 562.770507812 537.181640625 566.116210938 c 0
 492.489257812 572.806640625 448.970703125 585.627929688 404.939453125 595.795898438 c 0
 359.995117188 606.174804688 315.630859375 619.05078125 270.439453125 628.295898438 c 0
 252.186523438 632.030273438 233.166992188 634.295898438 215.004882812 630.140625 c 0
 205.923828125 628.0625 197.161132812 624.322265625 189.745117188 618.68359375 c 0
 182.330078125 613.045898438 176.3203125 605.4765625 172.939453125 596.795898438 c 0
 168.989257812 586.65234375 168.783203125 575.045898438 172.654296875 564.87109375 c 0
 176.524414062 554.696289062 184.430664062 546.114257812 194.271484375 541.458984375 c 1
 184.6875 527.079101562 l 1
  Spiro
    123.304 672.509 o
    226.304 761.022 o
    379.304 746.522 o
    490.127 712.009 o
    578.804 695.522 o
    625.127 725.009 o
    581.304 766.022 o
    548.991 771.547 v
    548.991 790.72 v
    586.44 790.296 o
    703.44 721.796 o
    667.94 586.796 o
    404.94 595.796 o
    270.44 628.296 o
    172.94 596.796 o
    194.271 541.459 v
    184.688 527.079 v
    0 0 z
  EndSpiro
EndSplineSet
Fore
SplineSet
457.221679688 251.75390625 m 1
 213.57421875 149.211914062 l 1
 213.594726562 177.836914062 l 1
 328.223632812 226.689453125 l 1
 328.221679688 471.223632812 l 1
 213.640625 422.87890625 l 1
 213.661132812 451.50390625 l 1
 457.288085938 555.333007812 l 1
 457.221679688 251.75390625 l 1
  Spiro
    457.222 251.754 v
    213.574 149.212 v
    213.595 177.837 v
    328.224 226.689 v
    328.222 471.224 v
    213.641 422.879 v
    213.661 451.504 v
    457.288 555.333 v
    0 0 z
  EndSpiro
485.272460938 375.498046875 m 1
 565.517578125 455.743164062 l 1
 645.762695312 375.498046875 l 1
 565.517578125 295.251953125 l 1
 485.272460938 375.498046875 l 1
  Spiro
    485.272 375.498 v
    565.518 455.743 v
    645.763 375.498 v
    565.518 295.252 v
    0 0 z
  EndSpiro
439.996826634 113.380634047 m 0
 560.619373886 113.380634047 648.178616826 197.177922494 683.211914062 287.407226562 c 1
 702.380859375 287.407226562 l 1
 702.502283794 284.172990578 702.562734309 280.936834233 702.562734309 277.700856932 c 0
 702.562734309 125.012790198 574.940062584 3.63899933709 412.722842192 3.63899933709 c 0
 249.190037999 3.63899933709 92.9745723115 130.662300804 92.9745723115 315.536260021 c 0
 92.9745723115 438.166051888 180.295203457 569.74751738 328.489257812 594.189453125 c 1
 338.078125 579.8046875 l 1
 312.908246548 562.807384958 212.142303713 486.610365276 212.142303713 347.664190158 c 0
 212.142303713 222.204468521 304.55116478 113.380634047 439.996826634 113.380634047 c 0
  Spiro
    328.489 594.189 v
    338.078 579.805 v
    290.628 539.632 o
    252.685 490.149 o
    226.371 433.866 o
    214.047 379.408 o
    213.269 323.471 o
    224.657 268.965 o
    248.565 218.589 o
    283.858 175.246 o
    328.493 142 o
    372.747 123.248 o
    420.146 114.221 o
    468.271 115.098 o
    515.187 125.631 o
    559.44 144.93 o
    599.371 171.866 o
    633.788 205.322 o
    662.051 244.31 o
    683.212 287.407 v
    702.381 287.407 v
    700.089 241.765 o
    689.955 197.054 o
    672.371 154.866 o
    644.716 112.421 o
    609.584 75.6665 o
    568.534 45.8896 o
    522.906 23.8414 o
    474.038 9.7474 o
    423.656 3.83301 o
    331.61 14.1869 o
    245.831 50.0731 o
    173.87 108.373 o
    122.407 185.463 o
    95.8547 274.486 o
    97.6553 366.833 o
    113.816 421.881 o
    140.7 472.757 o
    177.133 517.048 o
    221.908 552.899 o
    273.172 579.031 o
    0 0 z
  EndSpiro
550.993164062 575.252929688 m 1
 578.993164062 575.252929688 l 1
 578.993164062 123 l 1
 550.993164062 123 l 1
 550.993164062 575.252929688 l 1
  Spiro
    550.993 575.253 v
    578.993 575.253 v
    578.993 123 v
    550.993 123 v
    0 0 z
  EndSpiro
169.861000685 580.332940781 m 0
 169.861000685 561.243542264 180.785509092 547.838625554 194.271484375 541.458984375 c 1
 184.6875 527.079101562 l 1
 147.308325355 543.554877122 116.5136015 580.307386074 116.5136015 632.548195672 c 0
 116.5136015 704.3359751 177.692039387 766.878995142 274.986409254 766.878995142 c 0
 359.518496415 766.878995142 491.934326244 695.414564295 583.144624033 695.414564295 c 0
 604.58372919 695.414564295 625.246383563 705.590555655 625.246383563 727.592761878 c 0
 625.246383563 762.73384416 579.671165443 767.400710934 548.991210938 771.546875 c 1
 548.991210938 790.719726562 l 1
 642.511028904 797.834648077 715.599578284 746.477030389 715.599578284 673.189373949 c 0
 715.599578284 601.066720113 652.12670683 562.650696329 579.896273471 562.650696329 c 0
 496.836454177 562.650696329 288.187193454 632.367852772 235.933598218 632.367852772 c 0
 201.225980527 632.367852772 169.861000685 614.945773809 169.861000685 580.332940781 c 0
  Spiro
    184.688 527.079 v
    160.037 542.013 o
    139.801 562.679 o
    125.365 587.633 o
    117.739 615.413 o
    117.087 644.334 o
    123.304 672.509 o
    133.185 693.831 o
    146.828 713.081 o
    163.556 729.646 o
    182.774 743.19 o
    203.925 753.67 o
    226.304 761.022 o
    251.811 765.622 o
    277.807 766.861 o
    303.722 765.096 o
    329.286 760.737 o
    354.524 754.331 o
    379.304 746.522 o
    415.905 733.954 o
    452.79 721.949 o
    490.127 712.009 o
    519.459 705.144 o
    549.011 698.977 o
    578.804 695.522 o
    589.002 695.637 o
    599.044 697.293 o
    608.43 700.967 o
    612.713 703.695 o
    616.563 707.022 o
    619.834 710.894 o
    622.41 715.264 o
    624.202 720.025 o
    625.127 725.009 o
    625.1 730.486 o
    624.045 735.883 o
    622.044 740.991 o
    619.195 745.67 o
    615.636 749.866 o
    611.53 753.514 o
    602.229 759.211 o
    591.967 763.205 o
    581.304 766.022 o
    570.606 768.197 o
    559.803 770 o
    548.991 771.547 v
    548.991 790.72 v
    561.463 791.307 o
    573.985 791.168 o
    586.439 790.296 o
    609.664 786.62 o
    632.293 780.071 o
    653.678 770.44 o
    673.266 757.44 o
    690.2 741.098 o
    703.439 721.796 o
    712.566 698.014 o
    715.598 672.655 o
    712.217 647.442 o
    702.482 623.961 o
    687.321 603.393 o
    667.939 586.796 o
    648.242 575.915 o
    626.902 568.426 o
    604.726 564.133 o
    582.237 562.663 o
    559.619 563.496 o
    537.182 566.116 o
    492.862 574.515 o
    448.818 585.08 o
    404.939 595.796 o
    360.181 606.769 o
    315.362 618.078 o
    270.439 628.296 o
    252.01 631.355 o
    233.374 632.339 o
    215.005 630.141 o
    206.077 627.503 o
    197.564 623.694 o
    189.745 618.684 o
    182.85 612.439 o
    177.146 605.068 o
    172.939 596.796 o
    170.251 586.283 o
    170.131 575.405 o
    172.654 564.871 o
    177.786 555.323 o
    185.162 547.33 o
    194.271 541.459 v
    0 0 z
  EndSpiro
EndSplineSet
Colour: 660000
EndChar

StartChar: h
Encoding: 104 104 1
Width: 526
VWidth: 0
Flags: MW
LayerCount: 3
Back
SplineSet
456.4921875 386.422851562 m 1
 438.85546875 408.169921875 l 1
 498.142578125 456.250976562 l 1
 515.779296875 434.502929688 l 1
 456.4921875 386.422851562 l 1
  Spiro
    456.491 386.42 v
    438.855 408.167 v
    498.142 456.248 v
    515.779 434.5 v
    0 0 z
  EndSpiro
472.748046875 412.5 m 1
 472.771484375 138.807617188 l 2
 472.7734375 111.6328125 472.484375 84.3115234375 467.73828125 57.5546875 c 0
 462.991210938 30.7978515625 453.788085938 4.7119140625 439.45703125 -18.376953125 c 0
 418.942382812 -51.4296875 388.10546875 -77.798828125 352.650390625 -93.806640625 c 0
 315.483398438 -110.587890625 273.453125 -116.295898438 233.094726562 -110.450195312 c 1
 233.094726562 -86.490234375 l 1
 254.963867188 -81.7548828125 275.360351562 -70.6474609375 291.458007812 -55.1044921875 c 0
 309.412109375 -37.76953125 321.864257812 -15.287109375 329.704101562 8.40625 c 0
 342.494140625 47.0595703125 343.348632812 88.5068359375 343.348632812 129.220703125 c 2
 343.348632812 368.89453125 l 1
 283.90234375 418.127929688 l 1
 217.833984375 356.25 l 1
 217.833984375 386.166992188 l 1
 352.935546875 512.69921875 l 1
 472.748046875 412.5 l 1
  Spiro
    472.771 138.808 ]
    439.457 -18.3769 o
    352.65 -93.8069 o
    233.094 -110.45 v
    233.094 -86.49 v
    291.458 -55.1049 o
    329.704 8.40652 o
    343.348 129.221 [
    343.348 368.895 v
    283.902 418.128 v
    217.834 356.25 v
    217.834 386.167 v
    352.935 512.699 v
    472.748 412.5 v
    0 0 z
  EndSpiro
228.3046875 119.6328125 m 1
 260.8125 87.0390625 l 1
 291.862304688 108.625 l 1
 309.79296875 86.0791015625 l 1
 185.163085938 -0.203125 l 1
 82.3623046875 87 l 1
 44.015625 63.033203125 l 1
 26.978515625 86.0791015625 l 1
 94.087890625 129.220703125 l 1
 94.087890625 584.600585938 l 2
 94.087890625 589.598632812 94.0029296875 594.6328125 92.951171875 599.518554688 c 0
 91.8984375 604.403320312 89.8916015625 609.088867188 86.9990234375 613.1640625 c 0
 82.5 619.504882812 76.048828125 624.229492188 69.2109375 627.9296875 c 0
 61.8994140625 631.88671875 54.107421875 634.909179688 46.154296875 637.330078125 c 1
 46.15234375 651.709960938 l 1
 209.129882812 766.752929688 l 1
 228.3046875 766.752929688 l 1
 228.3046875 119.6328125 l 1
  Spiro
    228.304 119.633 v
    260.812 87.0387 v
    291.862 108.625 v
    309.793 86.0791 v
    185.163 -0.203125 v
    82.3625 87 v
    44.0149 63.0332 v
    26.978 86.0791 v
    94.087 129.221 v
    94.087 584.601 ]
    86.9992 613.164 o
    69.2106 627.93 o
    46.1542 637.33 v
    46.1519 651.71 v
    209.13 766.753 v
    228.304 766.753 v
    206 119.633 z
  EndSpiro
EndSplineSet
Fore
SplineSet
456.4921875 386.422851562 m 1
 438.85546875 408.169921875 l 1
 498.142578125 456.250976562 l 1
 515.779296875 434.502929688 l 1
 456.4921875 386.422851562 l 1
  Spiro
    456.492 386.423 v
    438.855 408.17 v
    498.143 456.251 v
    515.779 434.503 v
    0 0 z
  EndSpiro
472.748046875 412.5 m 1
 472.771484375 114 l 2
 472.779571687 11.000000635 438 -112.676300529 264.104010274 -112.676300529 c 0
 253.73111257 -112.676300529 243.358850393 -111.936900015 233.094726562 -110.450195312 c 1
 233.094726562 -86.490234375 l 1
 307 -86.490234375 343.348632812 10.779296875 343.348632812 114 c 2
 343.348632812 368.89453125 l 1
 283.90234375 418.127929688 l 1
 217.833984375 356.25 l 1
 217.833984375 386.166992188 l 1
 352.935546875 512.69921875 l 1
 472.748046875 412.5 l 1
228.3046875 119.6328125 m 1
 260.8125 87.0390625 l 1
 291.862304688 108.625 l 1
 309.79296875 86.0791015625 l 1
 185.163085938 -0.203125 l 1
 82.3623046875 87 l 1
 44.015625 63.033203125 l 1
 26.978515625 86.0791015625 l 1
 94.087890625 129.220703125 l 1
 94.087890625 584.600585938 l 2
 94.087890625 600.871685208 94.0640245561 622.746554685 46.154296875 637.330078125 c 1
 46.15234375 651.709960938 l 1
 209.129882812 766.752929688 l 1
 228.3046875 766.752929688 l 1
 228.3046875 119.6328125 l 1
  Spiro
    228.305 119.633 v
    260.812 87.0391 v
    291.862 108.625 v
    309.793 86.0791 v
    185.163 -0.203125 v
    82.3623 87 v
    44.0156 63.0332 v
    26.9785 86.0791 v
    94.0879 129.221 v
    94.0879 584.601 ]
    94.0271 589.599 o
    93.7128 594.595 o
    92.9512 599.519 o
    91.5846 604.317 o
    89.5915 608.905 o
    86.999 613.164 o
    81.9129 618.983 o
    75.8555 623.871 o
    69.2109 627.93 o
    61.7587 631.584 o
    54.0341 634.699 o
    46.1543 637.33 v
    46.1523 651.71 v
    209.13 766.753 v
    228.305 766.753 v
    0 0 z
  EndSpiro
EndSplineSet
Colour: 660000
EndChar

StartChar: e
Encoding: 101 101 2
Width: 426
VWidth: 0
Flags: MW
AnchorPoint: "ogonek" 223.801 68 basechar 0
AnchorPoint: "mark_top" 236.801 572 basechar 0
LayerCount: 3
Back
SplineSet
24.4375 64.5087890625 m 1
 6.80078125 86.255859375 l 1
 66.087890625 134.336914062 l 1
 83.724609375 112.588867188 l 1
 24.4375 64.5087890625 l 1
  Spiro
    24.4374 64.5069 v
    6.80136 86.2539 v
    66.0884 134.335 v
    83.7259 112.587 v
    0 0 z
  EndSpiro
54.0888671875 111.252929688 m 1
 54.0888671875 388.068359375 l 1
 293.762695312 512.69921875 l 1
 394.42578125 359.307617188 l 1
 394.42578125 354.514648438 l 1
 137.670898438 194.75 l 9
 137.670898438 218.717773438 l 17
 284.17578125 311.372070312 l 1
 197.893554688 436.002929688 l 1
 178.71875 425.209960938 l 9
 178.71875 177.155273438 l 17
 298.556640625 95.666015625 l 1
 408.806640625 181.94921875 l 1
 423.186523438 157.981445312 l 1
 217.067382812 -9.7900390625 l 1
 54.0888671875 111.252929688 l 1
EndSplineSet
Fore
SplineSet
24.4375 64.5087890625 m 1
 6.80078125 86.255859375 l 1
 66.087890625 134.336914062 l 1
 83.724609375 112.588867188 l 1
 24.4375 64.5087890625 l 1
54.0888671875 111.252929688 m 1
 54.0888671875 388.068359375 l 1
 293.762695312 512.69921875 l 1
 394.42578125 359.307617188 l 1
 394.42578125 354.514648438 l 1
 137.670898438 194.75 l 1
 137.670898438 228.717773438 l 1
 279.17578125 318.372070312 l 1
 197.893554688 436.002929688 l 1
 178.71875 425.209960938 l 1
 178.71875 177.155273438 l 1
 298.556640625 95.666015625 l 1
 408.806640625 181.94921875 l 1
 423.186523438 157.981445312 l 1
 217.067382812 -9.7900390625 l 1
 54.0888671875 111.252929688 l 1
EndSplineSet
Colour: ff00
EndChar

StartChar: N
Encoding: 78 78 3
Width: 693
VWidth: 0
Flags: MW
AnchorPoint: "mark_top" 435 804 basechar 0
LayerCount: 3
Back
SplineSet
584.274414062 422 m 1024
  Spiro
    584.276 422 {
    0 0 z
  EndSpiro
478.607421875 632.333007812 m 1
 440.405273438 589.668945312 l 1
 426.026367188 604.049804688 l 1
 550.607421875 748 l 1
 570.274414062 747.666992188 l 1
 577.030273438 739.096679688 584.876953125 731.379882812 593.607421875 724.833007812 c 0
 603.772460938 717.212890625 615.193359375 711.146484375 627.44140625 707.7734375 c 0
 639.690429688 704.399414062 652.823242188 703.844726562 665.107421875 707.083007812 c 0
 676.548828125 710.099609375 687.134765625 716.4453125 694.951171875 725.328125 c 0
 702.766601562 734.211914062 707.744140625 745.5625 708.94140625 757.333007812 c 1
 722.607421875 757 l 1
 733.28125 736.571289062 737.079101562 712.641601562 733.344726562 689.897460938 c 0
 729.610351562 667.153320312 718.39453125 645.807617188 702.274414062 629.333007812 c 0
 688.538085938 615.294921875 671.408203125 604.747070312 652.999023438 597.899414062 c 0
 634.590820312 591.05078125 614.915039062 587.780273438 595.274414062 587.666992188 c 0
 570.708007812 587.524414062 546.055664062 592.352539062 523.607421875 602.333007812 c 0
 507.0546875 609.693359375 491.751953125 619.8671875 478.607421875 632.333007812 c 1
  Spiro
    478.609 632.333 v
    440.407 589.669 v
    426.028 604.05 v
    550.609 748 v
    570.276 747.667 v
    593.609 724.833 o
    665.109 707.083 o
    708.943 757.333 v
    722.609 757 v
    702.276 629.333 o
    595.276 587.667 o
    523.609 602.333 o
    436.333 632.333 z
  EndSpiro
579.162109375 258.474609375 m 1
 582.053710938 312.9375 583.758789062 367.462890625 584.274414062 422 c 0
 585.013671875 500.194335938 583.309570312 578.412109375 579.163085938 656.5 c 1
 607.163085938 656.5 l 1
 607.163085938 0 l 1
 569.346679688 0 l 1
 268.8125 508.776367188 l 1
 234.3125 567.5 l 2
 222.301757812 587.943359375 208.919921875 607.670898438 193.1015625 625.333007812 c 0
 187.01171875 632.1328125 180.317382812 638.58984375 172.254882812 642.87109375 c 0
 164.193359375 647.153320312 154.619140625 648.90234375 145.768554688 646.666992188 c 0
 138.064453125 644.721679688 131.259765625 639.908203125 126.173828125 633.803710938 c 0
 121.087890625 627.69921875 117.547851562 620.443359375 114.768554688 613 c 0
 112.481445312 606.875976562 110.6875 600.572265625 109.301757812 594.18359375 c 1
 90.1240234375 598.961914062 l 1
 83.1865234375 632.709960938 89.5322265625 669.065429688 107.749023438 698.309570312 c 0
 122.0078125 721.202148438 143.46484375 739.672851562 168.510742188 749.677734375 c 0
 193.557617188 759.681640625 222.098632812 760.977539062 247.748046875 752.642578125 c 0
 267.64453125 746.177734375 285.665039062 734.029296875 299.081054688 717.9765625 c 0
 313.931640625 700.209960938 325.084960938 679.671875 338.748046875 660.9765625 c 2
 579.162109375 258.474609375 l 1
  Spiro
    579.164 258.475 v
    584.276 422 o
    579.165 656.5 v
    607.165 656.5 v
    607.165 0 v
    569.348 0 v
    268.814 508.776 v
    234.314 567.5 ]
    193.103 625.333 o
    145.77 646.667 o
    114.77 613 o
    109.303 594.184 v
    90.1257 598.962 v
    107.75 698.31 o
    247.75 752.643 o
    299.083 717.977 ]
    338.75 660.977 v
    536.888 258.475 z
  EndSpiro
198.1640625 656.5 m 1
 226.1640625 656.5 l 1
 226.1640625 120.5 l 1
 198.1640625 120.5 l 1
 198.1640625 656.5 l 1
  Spiro
    198.165 656.5 v
    226.165 656.5 v
    226.165 120.5 v
    198.165 120.5 v
    0 0 z
  EndSpiro
348.96875 119.649414062 m 1
 382.50390625 157.981445312 l 1
 396.8828125 143.599609375 l 1
 267.984375 0 l 1
 253.454101562 15.6826171875 235.862304688 28.7939453125 215.984375 36.6669921875 c 0
 202.05078125 42.1845703125 186.62109375 44.904296875 171.963867188 41.7783203125 c 0
 164.635742188 40.21484375 157.59375 37.169921875 151.614257812 32.6552734375 c 0
 145.633789062 28.1396484375 140.756835938 22.1533203125 137.651367188 15.3330078125 c 0
 134.56640625 8.5595703125 133.245117188 1.0087890625 133.713867188 -6.419921875 c 0
 134.18359375 -13.8486328125 136.411132812 -21.13671875 139.984375 -27.6669921875 c 0
 145.716796875 -38.142578125 154.866210938 -46.640625 165.54296875 -51.98828125 c 0
 176.220703125 -57.3349609375 188.438476562 -59.544921875 200.318359375 -58.3330078125 c 1
 195.651367188 -77 l 1
 174.041992188 -80.525390625 151.541992188 -78.451171875 130.942382812 -71.0302734375 c 0
 110.342773438 -63.609375 91.6845703125 -50.8564453125 77.318359375 -34.3330078125 c 0
 57.458984375 -11.494140625 46.0830078125 18.5849609375 46 48.849609375 c 0
 45.91796875 79.1142578125 57.1591796875 109.180664062 76.6513671875 132.333007812 c 0
 94.720703125 153.796875 119.515625 169.243164062 146.362304688 177.397460938 c 0
 173.208007812 185.55078125 201.995117188 186.640625 229.6640625 181.985351562 c 0
 274.619140625 174.421875 316.759765625 151.911132812 348.96875 119.649414062 c 1
  Spiro
    348.97 119.65 v
    382.506 157.981 v
    396.885 143.6 v
    267.986 0 v
    215.986 36.6667 o
    137.653 15.3333 o
    139.986 -27.6667 o
    200.32 -58.3333 v
    195.653 -77 v
    77.3196 -34.3333 o
    76.653 132.333 o
    229.665 181.986 o
    0 0 z
  EndSpiro
146.94140625 278.833007812 m 1
 128.158203125 283.783203125 111.00390625 294.7109375 98.552734375 309.620117188 c 0
 86.1015625 324.529296875 78.4306640625 343.323242188 76.6513671875 362.666992188 c 0
 73.69140625 394.844726562 87.3408203125 427.62109375 110.651367188 450 c 0
 125.0546875 463.827148438 142.948242188 473.944335938 162.150390625 479.416015625 c 0
 181.3515625 484.888671875 201.856445312 485.712890625 221.44140625 481.833007812 c 1
 219.44140625 348.834960938 l 1
 187.44140625 348.833007812 l 2
 181.829101562 348.833007812 176.193359375 348.802734375 170.643554688 347.961914062 c 0
 165.094726562 347.12109375 159.62890625 345.455078125 154.78125 342.625976562 c 0
 149.93359375 339.797851562 145.73828125 335.797851562 142.90625 330.952148438 c 0
 140.07421875 326.106445312 138.640625 320.4375 138.94140625 314.833007812 c 0
 139.416992188 305.989257812 144.409179688 297.493164062 151.94140625 292.833007812 c 1
 146.94140625 278.833007812 l 1
  Spiro
    76.653 362.667 o
    110.653 450 o
    221.443 481.833 v
    219.443 348.835 v
    187.443 348.833 ]
    138.943 314.833 o
    151.943 292.833 v
    146.943 278.833 v
    104.601 278.896 z
  EndSpiro
EndSplineSet
Fore
SplineSet
594.217661731 587.663925473 m 0
 546.456175673 587.663925473 505.245459594 607.07041112 478.607421875 632.333007812 c 1
 440.405273438 589.668945312 l 1
 426.026367188 604.049804688 l 1
 550.607421875 748 l 1
 570.274414062 747.666992188 l 1
 586.815809944 726.682995333 612.262007836 704.926728365 648.04245104 704.926728365 c 0
 681.214272344 704.926728365 705.890324792 727.337343198 708.94140625 757.333007812 c 1
 722.607421875 757 l 1
 730.606073008 741.691328175 734.743477999 724.41666183 734.743477999 707.14815323 c 0
 734.743477999 633.775688032 668.102504479 587.663925473 594.217661731 587.663925473 c 0
  Spiro
    478.607 632.333 v
    440.405 589.669 v
    426.026 604.05 v
    550.607 748 v
    570.274 747.667 v
    577.379 739.401 o
    585.187 731.751 o
    593.607 724.833 o
    604.164 717.779 o
    615.497 711.997 o
    627.441 707.773 o
    639.908 705.377 o
    652.617 705.074 o
    665.107 707.083 o
    676.182 711.175 o
    686.292 717.327 o
    694.951 725.328 o
    701.78 734.948 o
    706.523 745.79 o
    708.941 757.333 v
    722.607 757 v
    730.959 735.6 o
    734.594 712.84 o
    733.345 689.897 o
    727.22 667.77 o
    716.652 647.283 o
    702.274 629.333 o
    687.501 616.478 o
    670.886 605.963 o
    652.999 597.899 o
    634.236 592.232 o
    614.859 588.846 o
    595.274 587.667 o
    570.789 589.185 o
    546.682 594.07 o
    523.607 602.333 o
    507.521 610.603 o
    492.423 620.661 o
    0 0 z
  EndSpiro
153.774447118 647.642337517 m 0
 125.247200641 647.642337517 109.301757812 628 109.301757812 594.18359375 c 1
 90.1240234375 598.961914062 l 1
 88.2865082107 607.900660009 87.3808702455 617.02232849 87.3808702455 626.146329268 c 0
 87.3808702455 698.713581411 143.455776268 758.129855948 212.586696137 758.129855948 c 0
 285.417720716 758.129855948 312 706 338.748046875 660.9765625 c 2
 579.162109375 258.474609375 l 1
 579.163085938 656.5 l 1
 607.163085938 656.5 l 1
 607.163085938 0 l 1
 569.346679688 0 l 1
 234.3125 567.5 l 2
 209.222542035 609.998801639 181 647.642337517 153.774447118 647.642337517 c 0
  Spiro
    579.162 258.475 v
    581.656 312.902 o
    583.364 367.523 o
    584.274 422 o
    584.2 500.118 o
    582.493 578.453 o
    579.163 656.5 v
    607.163 656.5 v
    607.163 0 v
    569.347 0 v
    268.812 508.776 v
    234.312 567.5 ]
    221.818 587.635 o
    208.133 607.051 o
    193.102 625.333 o
    186.789 631.944 o
    179.882 637.938 o
    172.255 642.871 o
    163.781 646.253 o
    154.768 647.628 o
    145.769 646.667 o
    138.402 643.828 o
    131.796 639.414 o
    126.174 633.804 o
    121.578 627.358 o
    117.827 620.338 o
    114.769 613 o
    112.645 606.826 o
    110.825 600.534 o
    109.302 594.184 v
    90.124 598.962 v
    87.5602 633.185 o
    93.5517 667.088 o
    107.749 698.31 o
    124.255 719.559 o
    144.817 737.016 o
    168.511 749.678 o
    194.459 756.741 o
    221.398 757.799 o
    247.748 752.643 o
    266.9 744.359 o
    284.247 732.649 o
    299.081 717.977 o
    312.916 699.476 o
    325.704 680.096 o
    338.748 660.977 v
    0 0 z
  EndSpiro
198.1640625 656.5 m 1
 226.1640625 656.5 l 1
 226.1640625 120.5 l 1
 198.1640625 120.5 l 1
 198.1640625 656.5 l 1
  Spiro
    198.164 656.5 v
    226.164 656.5 v
    226.164 120.5 v
    198.164 120.5 v
    0 0 z
  EndSpiro
45.9995541472 49.1786414713 m 0
 45.9995541472 130.025179067 114.312858403 184.732404532 197.140605762 184.732404532 c 0
 223.662702625 184.732404532 290.937419756 177.77575649 348.96875 119.649414062 c 1
 382.50390625 157.981445312 l 1
 396.8828125 143.599609375 l 1
 267.984375 0 l 1
 248.756811736 20.7524321825 221.461542204 43.0973932543 184.818224916 43.0973932543 c 0
 156.119438395 43.0973932543 133.621745724 25.1150661675 133.621745724 -3.49484910749 c 0
 133.621745724 -37.5536181021 165.576437734 -61.8771693213 200.318359375 -58.3330078125 c 1
 195.651367188 -77 l 1
 125.458088842 -88.4514522247 45.9995541472 -39.1248055059 45.9995541472 49.1786414713 c 0
  Spiro
    348.969 119.649 v
    382.504 157.981 v
    396.883 143.6 v
    267.984 0 v
    252.479 14.7131 o
    235.053 27.1577 o
    215.984 36.667 o
    201.651 41.1358 o
    186.78 43.069 o
    171.964 41.7783 o
    164.767 39.724 o
    157.913 36.676 o
    151.614 32.6553 o
    146.032 27.6784 o
    141.318 21.8455 o
    137.651 15.333 o
    135.157 8.34096 o
    133.84 1.00876 o
    133.714 -6.41992 o
    134.753 -13.7716 o
    136.878 -20.9139 o
    139.984 -27.667 o
    146.778 -37.4309 o
    155.455 -45.6413 o
    165.543 -51.9883 o
    176.653 -56.2756 o
    188.407 -58.4159 o
    200.318 -58.333 v
    195.651 -77 v
    173.87 -78.6684 o
    152.051 -76.6557 o
    130.942 -71.0303 o
    111.096 -61.9007 o
    93.0112 -49.5279 o
    77.3184 -34.333 o
    60.4047 -9.36889 o
    49.736 18.9375 o
    46 48.8496 o
    49.5715 78.7701 o
    60.0369 107.152 o
    76.6514 132.333 o
    96.7674 151.727 o
    120.398 166.873 o
    146.362 177.397 o
    173.714 183.242 o
    201.764 184.676 o
    229.664 181.985 o
    273.375 169.649 o
    313.751 148.443 o
    0 0 z
  EndSpiro
138.902062534 316.30427158 m 0
 138.902062534 306.458327176 144.090435005 297.69037003 151.94140625 292.833007812 c 1
 146.94140625 278.833007812 l 1
 108.542866099 288.952702106 76.2506871886 324.292351387 76.2506871886 371.44175641 c 0
 76.2506871886 434.233614418 130.229067383 484.236984474 196.837308984 484.236984474 c 0
 205.09115606 484.236984474 213.344890089 483.436969852 221.44140625 481.833007812 c 1
 219.44140625 348.834960938 l 1
 187.44140625 348.833007812 l 2
 161.945837911 348.833007812 138.902062534 341.368441125 138.902062534 316.30427158 c 0
  Spiro
    146.941 278.833 v
    128.832 285.693 o
    112.443 296.124 o
    98.5527 309.62 o
    87.7453 325.684 o
    80.3478 343.649 o
    76.6514 362.667 o
    78.9632 394.606 o
    90.8346 424.591 o
    110.651 450 o
    126.121 462.545 o
    143.483 472.439 o
    162.15 479.416 o
    181.684 483.335 o
    201.652 484.146 o
    221.441 481.833 v
    219.441 348.835 v
    187.441 348.833 ]
    181.831 348.794 o
    176.212 348.561 o
    170.644 347.962 o
    165.148 346.835 o
    159.81 345.078 o
    154.781 342.626 o
    150.182 339.423 o
    146.163 335.5 o
    142.906 330.952 o
    140.555 325.87 o
    139.205 320.421 o
    138.941 314.833 o
    140.846 306.243 o
    145.335 298.636 o
    151.941 292.833 v
    0 0 z
  EndSpiro
EndSplineSet
Colour: 660000
EndChar

StartChar: w
Encoding: 119 119 4
Width: 716
VWidth: 0
Flags: MW
AnchorPoint: "mark_top" 450.68 560 basechar 0
LayerCount: 3
Back
SplineSet
67.9658203125 43.2529296875 m 1
 50.3291015625 65 l 1
 109.616210938 113.081054688 l 1
 127.252929688 91.3330078125 l 1
 67.9658203125 43.2529296875 l 1
  Spiro
    67.9661 43.2521 v
    50.3301 64.9991 v
    109.618 113.08 v
    127.255 91.3321 v
    0 0 z
  EndSpiro
299.016601562 70.75 m 1
 355.725585938 104.001953125 l 1
 367.016601562 71 l 1
 213.2109375 -14.162109375 l 1
 95.330078125 70.908203125 l 1
 95.330078125 290 l 2
 95.330078125 301.814453125 95.55859375 313.631835938 95.2734375 325.443359375 c 0
 94.9892578125 337.254882812 93.9560546875 349.129882812 90.74609375 360.5 c 0
 85.71484375 378.3203125 74.8984375 394.026367188 62.046875 407.356445312 c 0
 49.1953125 420.6875 34.685546875 432.560546875 23.74609375 447.5 c 0
 12.6728515625 462.622070312 5.7802734375 481.004882812 5.681640625 499.747070312 c 0
 5.5830078125 518.490234375 11.9365234375 536.966796875 22.173828125 552.666992188 c 0
 34.7119140625 571.89453125 52.705078125 587.271484375 72.8525390625 598.272460938 c 0
 93 609.272460938 115.466796875 615.958007812 138.330078125 618 c 1
 143.223632812 598.935546875 l 2
 142.010742188 598.584960938 140.806640625 598.205078125 139.612304688 597.794921875 c 0
 129.844726562 594.4453125 120.633789062 589.139648438 113.506835938 581.666992188 c 0
 104.145507812 571.848632812 99.017578125 558.08203125 99.9580078125 544.547851562 c 0
 100.897460938 531.014648438 107.553710938 518.31640625 116.709960938 508.306640625 c 0
 125.865234375 498.295898438 137.30078125 490.694335938 148.702148438 483.341796875 c 0
 160.103515625 475.990234375 171.59765625 468.642578125 181.62109375 459.5 c 0
 198.546875 444.061523438 210.23046875 423.228515625 215.366210938 400.903320312 c 0
 220.502929688 378.577148438 220.185546875 355.409179688 220.163085938 332.5 c 2
 219.9609375 122.5859375 l 1
 299.016601562 70.75 l 1
  Spiro
    299.017 70.75 v
    355.726 104.002 v
    367.017 71 v
    213.212 -14.1621 v
    95.331 70.9082 v
    95.331 290 ]
    90.746 360.5 o
    23.7461 447.5 o
    22.1741 552.667 o
    138.331 618 v
    143.224 598.936 v
    139.613 597.795 o
    113.508 581.667 o
    181.621 459.5 o
    220.164 332.5 [
    219.962 122.586 v
    303.603 70.75 z
  EndSpiro
667.834960938 423.2265625 m 1
 650.198242188 444.973632812 l 1
 709.483398438 493.0546875 l 1
 727.120117188 471.306640625 l 1
 667.834960938 423.2265625 l 1
  Spiro
    667.834 423.226 v
    650.198 444.973 v
    709.485 493.054 v
    727.122 471.306 v
    0 0 z
  EndSpiro
543.288085938 70.908203125 m 17
 543.288085938 386.275390625 l 1
 498.995117188 426.5 l 1
 603.745117188 513.25 l 9
 668.120117188 456.809570312 l 1
 667.916992188 108.979492188 l 9
 435.815429688 -14.162109375 l 25
 452.954101562 30.6669921875 l 25
 543.288085938 70.908203125 l 17
  Spiro
    543.289 70.9082 v
    543.289 386.275 v
    498.996 426.5 v
    603.746 513.25 v
    668.121 456.81 v
    667.919 108.979 v
    435.816 -14.1621 v
    452.955 30.6667 v
    0 0 z
  EndSpiro
378.391601562 513.25 m 1
 479.891601562 424.25 l 17
 442.766601562 394.083007812 l 1
 442.565429688 122.5859375 l 1
 521.620117188 70.75 l 1
 578.329101562 104.001953125 l 1
 589.620117188 71 l 1
 435.815429688 -14.162109375 l 1
 317.934570312 70.908203125 l 1
 317.934570312 386.275390625 l 1
 273.641601562 426.5 l 1
 378.391601562 513.25 l 1
  Spiro
    378.393 513.25 v
    479.893 424.25 v
    442.768 394.083 v
    442.566 122.586 v
    521.621 70.75 v
    578.33 104.002 v
    589.621 71 v
    435.816 -14.1621 v
    317.935 70.9082 v
    317.935 386.275 v
    273.643 426.5 v
    0 0 z
  EndSpiro
EndSplineSet
Fore
SplineSet
67.9658203125 43.2529296875 m 1
 50.3291015625 65 l 1
 109.616210938 113.081054688 l 1
 127.252929688 91.3330078125 l 1
 67.9658203125 43.2529296875 l 1
  Spiro
    67.9658 43.2529 v
    50.3291 65 v
    109.616 113.081 v
    127.253 91.333 v
    0 0 z
  EndSpiro
143.223632812 598.935546875 m 1
 120.978085975 592.505473357 99.8478331006 574.709727732 99.8478331006 547.734012121 c 0
 99.8478331006 515.342673733 127.782305104 496.76843755 148.702148438 483.341796875 c 0
 210 444 220.259431132 417.780277726 220.163085938 322.5 c 2
 219.9609375 122.5859375 l 1
 299.016601562 70.75 l 1
 355.725585938 104.001953125 l 1
 367.016601562 71 l 1
 213.2109375 -14.162109375 l 1
 95.330078125 70.908203125 l 1
 95.330078125 314 l 2
 95.330078125 363 85.2067850711 383.373656369 62.046875 407.356445312 c 0
 38.8869649289 431.339234255 5.68050863918 455.838033567 5.68050863918 500.177463116 c 0
 5.68050863918 556.853478373 62.2435287069 611.204468868 138.330078125 618 c 1
 143.223632812 598.935546875 l 1
667.834960938 423.2265625 m 1
 650.198242188 444.973632812 l 1
 709.483398438 493.0546875 l 1
 727.120117188 471.306640625 l 1
 667.834960938 423.2265625 l 1
  Spiro
    667.835 423.227 v
    650.198 444.974 v
    709.483 493.055 v
    727.12 471.307 v
    0 0 z
  EndSpiro
543.288085938 70.908203125 m 1
 543.288085938 386.275390625 l 1
 498.995117188 426.5 l 1
 603.745117188 513.25 l 1
 668.120117188 456.809570312 l 1
 667.916992188 108.979492188 l 1
 435.815429688 -14.162109375 l 1
 452.954101562 30.6669921875 l 1
 543.288085938 70.908203125 l 1
  Spiro
    543.288 70.9082 v
    543.288 386.275 v
    498.995 426.5 v
    603.745 513.25 v
    668.12 456.81 v
    667.917 108.979 v
    435.815 -14.1621 v
    452.954 30.667 v
    0 0 z
  EndSpiro
378.391601562 513.25 m 1
 479.891601562 424.25 l 1
 442.766601562 394.083007812 l 1
 442.565429688 122.5859375 l 1
 521.620117188 70.75 l 1
 578.329101562 104.001953125 l 1
 589.620117188 71 l 1
 435.815429688 -14.162109375 l 1
 317.934570312 70.908203125 l 1
 317.934570312 386.275390625 l 1
 273.641601562 426.5 l 1
 378.391601562 513.25 l 1
  Spiro
    378.392 513.25 v
    479.892 424.25 v
    442.767 394.083 v
    442.565 122.586 v
    521.62 70.75 v
    578.329 104.002 v
    589.62 71 v
    435.815 -14.1621 v
    317.935 70.9082 v
    317.935 386.275 v
    273.642 426.5 v
    0 0 z
  EndSpiro
EndSplineSet
Colour: 660000
EndChar

StartChar: Y
Encoding: 89 89 5
Width: 714
VWidth: 0
Flags: MW
AnchorPoint: "mark_top" 369 802 basechar 0
LayerCount: 3
Back
SplineSet
647.237304688 615.922851562 m 1
 629.600585938 637.669921875 l 1
 688.887695312 685.750976562 l 1
 706.524414062 664.002929688 l 1
 647.237304688 615.922851562 l 1
  Spiro
    647.237 615.92 v
    629.601 637.667 v
    688.888 685.748 v
    706.525 664 v
    0 0 z
  EndSpiro
70.8916015625 613.388671875 m 1
 71.7626953125 636.06640625 78.90625 658.458007812 91.2529296875 677.5 c 0
 104.88671875 698.526367188 124.750976562 715.364257812 147.490234375 725.89453125 c 0
 170.23046875 736.424804688 195.852539062 740.817382812 220.752929688 738 c 0
 236.223632812 736.25 251.419921875 731.668945312 265.034179688 724.1171875 c 0
 278.6484375 716.564453125 290.602539062 705.9921875 299.579101562 693.271484375 c 0
 308.555664062 680.55078125 314.448242188 665.77734375 317.499023438 650.510742188 c 0
 320.55078125 635.243164062 320.752929688 619.569335938 320.752929688 604 c 2
 320.752929688 63.5 l 1
 180.329101562 63.5 l 1
 180.329101562 602 l 2
 180.329101562 610.690429688 180.357421875 619.450195312 178.663085938 627.973632812 c 0
 176.96875 636.497070312 173.350585938 644.807617188 167.252929688 651 c 0
 162.841796875 655.479492188 157.212890625 658.7578125 151.122070312 660.314453125 c 0
 145.03125 661.872070312 138.538085938 661.712890625 132.47265625 660.059570312 c 0
 120.342773438 656.750976562 110.311523438 647.727539062 103.752929688 637 c 0
 99.3388671875 629.780273438 96.3330078125 621.71484375 94.8291015625 613.388671875 c 1
 70.8916015625 613.388671875 l 1
  Spiro
    91.2544 677.5 o
    220.754 738 o
    320.754 604 [
    320.754 63.5 v
    180.33 63.5 v
    180.33 602 ]
    167.254 651 o
    103.754 637 o
    94.8303 613.388 v
    70.8928 613.388 v
    22.1384 613.388 z
  EndSpiro
122.690429688 231.498046875 m 1
 103.907226562 236.448242188 86.7529296875 247.375 74.3017578125 262.28515625 c 0
 61.8515625 277.194335938 54.1796875 295.98828125 52.400390625 315.33203125 c 0
 49.4404296875 347.509765625 63.08984375 380.286132812 86.400390625 402.665039062 c 0
 100.803710938 416.4921875 118.698242188 426.609375 137.899414062 432.081054688 c 0
 157.100585938 437.553710938 177.60546875 438.377929688 197.190429688 434.498046875 c 1
 195.190429688 301.5 l 1
 163.190429688 301.498046875 l 2
 157.578125 301.498046875 151.942382812 301.467773438 146.392578125 300.626953125 c 0
 140.84375 299.786132812 135.377929688 298.120117188 130.530273438 295.291015625 c 0
 125.682617188 292.462890625 121.487304688 288.462890625 118.655273438 283.6171875 c 0
 115.823242188 278.771484375 114.389648438 273.102539062 114.690429688 267.498046875 c 0
 115.166015625 258.654296875 120.159179688 250.158203125 127.690429688 245.498046875 c 1
 122.690429688 231.498046875 l 1
  Spiro
    52.4019 315.332 o
    86.4019 402.665 o
    197.192 434.498 v
    195.192 301.5 v
    163.192 301.498 ]
    114.692 267.498 o
    127.692 245.498 v
    122.692 231.498 v
    104.601 278.896 z
  EndSpiro
401.252929688 277.7265625 m 1
 401.002929688 306.9765625 l 1
 416.21875 323.064453125 437.875 332.8828125 460.002929688 333.7265625 c 0
 484.534179688 334.662109375 509.276367188 324.447265625 526.002929688 306.4765625 c 1
 526.002929688 276.9765625 l 1
 509.346679688 295.661132812 484 306.25390625 459.002929688 304.9765625 c 0
 437.196289062 303.862304688 415.9765625 293.849609375 401.252929688 277.7265625 c 1
  Spiro
    401.004 307 v
    460.004 333.75 o
    526.004 306.5 v
    526.004 277 v
    459.004 305 o
    401.254 277.75 v
    338.242 448.25 z
  EndSpiro
401.252929688 447.788085938 m 1
 415.9765625 431.665039062 437.196289062 421.65234375 459.002929688 420.538085938 c 0
 484 419.260742188 509.346679688 429.853515625 526.002929688 448.538085938 c 1
 526.002929688 419.038085938 l 1
 509.276367188 401.068359375 484.534179688 390.852539062 460.002929688 391.788085938 c 0
 437.875 392.631835938 416.21875 402.450195312 401.002929688 418.538085938 c 1
 401.252929688 447.788085938 l 1
  Spiro
    401.254 447.788 v
    459.004 420.538 o
    526.004 448.538 v
    526.004 419.038 v
    460.004 391.788 o
    401.004 418.538 v
    338.242 448.25 z
  EndSpiro
414.298828125 40 m 1
 385.6328125 39.9541015625 l 1
 385.634765625 733.333007812 l 1
 414.296875 733.333007812 l 1
 414.298828125 40 l 1
  Spiro
    414.3 40 v
    385.634 39.9543 v
    385.636 733.333 v
    414.298 733.333 v
    0 0 z
  EndSpiro
655.586914062 651.75 m 1
 656.34375 147 l 2
 656.375 125.676757812 655.788085938 103.982421875 649.001953125 83.7685546875 c 0
 642.21484375 63.5537109375 629.331054688 45.369140625 612.182617188 32.697265625 c 0
 595.033203125 20.025390625 574.166015625 12.943359375 552.998046875 10.3740234375 c 0
 531.830078125 7.8046875 510.353515625 9.4267578125 489.252929688 12.5 c 0
 438.901367188 19.8330078125 389.711914062 33.5908203125 339.71484375 43.0458984375 c 0
 314.716796875 47.7734375 289.501953125 51.849609375 264.073242188 52.6572265625 c 0
 238.64453125 53.4658203125 212.307617188 50.943359375 189.84375 39 c 0
 180.30078125 33.9267578125 171.61328125 27.0791015625 165.073242188 18.474609375 c 0
 158.534179688 9.8701171875 154.250976562 -0.515625 153.34375 -11.28515625 c 0
 152.5 -21.306640625 154.604492188 -31.5458984375 159.259765625 -40.4609375 c 0
 163.916015625 -49.3759765625 171.044921875 -56.9169921875 179.438476562 -62.4580078125 c 0
 196.225585938 -73.5400390625 217.260742188 -76.41796875 237.34375 -75.28515625 c 0
 280.043945312 -72.876953125 320.872070312 -57.615234375 362.603515625 -48.25390625 c 0
 404.333984375 -38.8935546875 446.685546875 -32.060546875 489.34375 -29 c 0
 520.791992188 -26.744140625 552.98828125 -26.748046875 583.134765625 -35.984375 c 0
 598.20703125 -40.603515625 612.625976562 -47.625 625 -57.3916015625 c 0
 637.375 -67.1591796875 647.619140625 -79.69921875 654.252929688 -94 c 0
 660.736328125 -107.9765625 663.716796875 -123.546875 662.952148438 -138.934570312 c 0
 662.1875 -154.322265625 657.727539062 -169.4609375 650.450195312 -183.041015625 c 0
 635.897460938 -210.201171875 610.604492188 -230.71875 582.34375 -243 c 0
 570.48046875 -248.155273438 558.01953125 -251.9296875 545.295898438 -254.258789062 c 1
 540.51953125 -235.099609375 l 2
 544.0078125 -234.397460938 547.411132812 -233.270507812 550.627929688 -231.75 c 0
 557.963867188 -228.283203125 564.33203125 -222.721679688 568.5546875 -215.793945312 c 0
 572.778320312 -208.865234375 574.7734375 -200.577148438 574.002929688 -192.5 c 0
 573.30859375 -185.215820312 570.385742188 -178.189453125 565.869140625 -172.43359375 c 0
 561.3515625 -166.676757812 555.303710938 -162.201171875 548.65234375 -159.153320312 c 0
 535.34765625 -153.05859375 520.1328125 -152.623046875 505.564453125 -154 c 0
 469.01171875 -157.456054688 433.205078125 -166.383789062 397.002929688 -172.5 c 0
 361.16015625 -178.555664062 325.619140625 -186.33984375 289.708984375 -191.986328125 c 0
 253.798828125 -197.6328125 216.49609375 -200.059570312 181.564453125 -190 c 0
 160.5703125 -183.954101562 140.782226562 -173.38671875 124.71875 -158.579101562 c 0
 108.654296875 -143.770507812 96.4375 -124.80078125 89.7529296875 -104 c 0
 79.548828125 -72.2421875 82.666015625 -36.6630859375 97.1318359375 -6.60546875 c 0
 111.596679688 23.451171875 136.850585938 47.8408203125 166.564453125 63 c 0
 198.552734375 79.3193359375 235.435546875 84.833984375 271.213867188 81.7578125 c 0
 306.9921875 78.681640625 341.286132812 66.6328125 376.375976562 59 c 0
 401.203125 53.599609375 427.651367188 51.4140625 451.564453125 60 c 0
 464.444335938 64.6240234375 476.237304688 72.251953125 485.6953125 82.142578125 c 0
 495.15234375 92.033203125 502.237304688 104.07421875 506.973632812 116.913085938 c 0
 516.447265625 142.58984375 516.533203125 170.630859375 516.533203125 198 c 2
 516.53515625 594.186523438 l 1
 462.502929688 635.75 l 1
 399.002929688 585.75 l 1
 399.002929688 620.5 l 1
 550.002929688 742.75 l 1
 655.586914062 651.75 l 1
  Spiro
    656.344 147 ]
    489.254 12.5 o
    189.844 39 o
    153.344 -11.2852 o
    237.344 -75.2852 o
    489.344 -29 o
    654.254 -94 o
    582.344 -243 o
    545.297 -254.259 v
    540.521 -235.1 v
    550.629 -231.75 o
    574.004 -192.5 o
    505.565 -154 o
    397.004 -172.5 o
    181.565 -190 o
    89.7544 -104 o
    166.565 63 o
    376.376 59 o
    451.565 60 o
    516.534 198 [
    516.536 594.186 v
    462.504 635.75 v
    399.004 585.75 v
    399.004 620.5 v
    550.004 742.75 v
    655.587 651.75 v
    0 0 z
  EndSpiro
EndSplineSet
Fore
SplineSet
647.237304688 625.922851562 m 1
 629.600585938 647.669921875 l 1
 688.887695312 695.750976562 l 1
 706.524414062 674.002929688 l 1
 647.237304688 625.922851562 l 1
  Spiro
    647.237 625.923 v
    629.601 647.67 v
    688.888 695.751 v
    706.524 674.003 v
    0 0 z
  EndSpiro
142.39453125 671.396484375 m 0
 115.506835938 671.396484375 100.829101562 654 100.829101562 623.388671875 c 1
 76.8916015625 623.388671875 l 1
 79.3828125 688.248046875 128.586914062 748.833984375 205.881835938 748.833984375 c 0
 278 748.833984375 320.752929688 697 320.752929688 614 c 2
 320.752929688 63.5 l 1
 180.329101562 63.5 l 1
 180.329101562 612 l 2
 180.329101562 627.30859375 177.7109375 671.396484375 142.39453125 671.396484375 c 0
114.651085972 268.969310643 m 0
 114.651085972 259.123337693 119.840414639 250.355447266 127.690429688 245.498046875 c 1
 122.690429688 231.498046875 l 1
 84.2922593702 241.617643701 51.9997106261 276.957208233 51.9997106261 324.106795472 c 0
 51.9997106261 386.898653481 105.978503609 436.902023537 172.586332422 436.902023537 c 0
 180.840179498 436.902023537 189.093913527 436.102008915 197.190429688 434.498046875 c 1
 195.190429688 301.5 l 1
 163.190429688 301.498046875 l 2
 137.694861349 301.498046875 114.651085972 294.033480188 114.651085972 268.969310643 c 0
  Spiro
    122.69 231.498 v
    104.581 238.358 o
    88.1915 248.789 o
    74.3018 262.285 o
    63.4947 278.349 o
    56.097 296.314 o
    52.4004 315.332 o
    54.7122 347.271 o
    66.5837 377.256 o
    86.4004 402.665 o
    101.87 415.21 o
    119.233 425.104 o
    137.899 432.081 o
    157.433 436 o
    177.401 436.811 o
    197.19 434.498 v
    195.19 301.5 v
    163.19 301.498 ]
    157.58 301.459 o
    151.961 301.226 o
    146.393 300.627 o
    140.897 299.5 o
    135.559 297.743 o
    130.53 295.291 o
    125.931 292.088 o
    121.912 288.165 o
    118.655 283.617 o
    116.304 278.535 o
    114.955 273.086 o
    114.69 267.498 o
    116.595 258.908 o
    121.084 251.301 o
    127.69 245.498 v
    0 0 z
  EndSpiro
401.252929688 277.7265625 m 1
 401.002929688 306.9765625 l 1
 433.022064038 340.83082213 490.517531922 344.601404261 526.002929688 306.4765625 c 1
 526.002929688 276.9765625 l 1
 493.166389417 313.811783243 434.949542973 314.625885001 401.252929688 277.7265625 c 1
401.002929688 418.538085938 m 1
 401.252929688 447.788085938 l 1
 434.809335149 411.042297372 493.120270681 411.651130333 526.002929688 448.538085938 c 1
 526.002929688 419.038085938 l 1
 492.834945504 383.404966076 435.36027206 382.211607645 401.002929688 418.538085938 c 1
414.298828125 40 m 1
 385.6328125 39.9541015625 l 1
 385.634765625 743.333007812 l 1
 414.296875 743.333007812 l 1
 414.298828125 40 l 1
574.165410414 -195.930597692 m 0
 574.165410414 -167.000715053 547.022332422 -153.353159966 518.356255178 -153.353159966 c 0
 451.191186008 -153.353159966 325.284783469 -196.88408926 234.508241052 -196.88408926 c 0
 134.32106076 -196.88408926 83.7748486407 -131.696618165 83.7748486407 -65.2016860736 c 0
 83.7748486407 13.0109339175 151.347519278 82.5716563836 252.351396368 82.5716563836 c 0
 312.385499441 82.5716563836 369.247164334 54.2457764825 415.909616184 54.2457764825 c 0
 475 54.2457764825 516.532650986 86.0000000027 516.533203125 198 c 2
 516.53515625 599.186523438 l 1
 462.502929688 645.75 l 1
 399.002929688 595.75 l 1
 399.002929688 630.5 l 1
 550.002929688 752.75 l 1
 655.586914062 661.75 l 1
 656.34375 147 l 2
 656.444211404 80.0001506346 636 9.09888046605 530.973430112 9.09888046605 c 0
 450.900504448 9.09888046605 354.138916492 52.7950404395 255.63527873 52.7950404395 c 0
 207.790231571 52.7950404395 153.161465259 34.3016760015 153.161465259 -15.6384957138 c 0
 153.161465259 -55.9841159184 190.79783266 -75.5144560285 229.347004836 -75.5144560285 c 0
 294.950570176 -75.5144560285 389.467178541 -27.7555367338 520.67430922 -27.7555367338 c 0
 597.615501966 -27.7555367338 663.069497292 -63.2861928416 663.069497292 -134.202465487 c 0
 663.069497292 -190.116370853 621.954454976 -225.786404998 582.34375 -243 c 0
 570.48046875 -248.155273438 558.01953125 -251.9296875 545.295898438 -254.258789062 c 1
 540.51953125 -235.099609375 l 1
 558.551756249 -231.469942587 574.165410414 -217.0141044 574.165410414 -195.930597692 c 0
EndSplineSet
Colour: 660000
EndChar

StartChar: M
Encoding: 77 77 6
Width: 1085
VWidth: 0
Flags: MW
LayerCount: 3
Back
SplineSet
955.504882812 598.147460938 m 1
 937.868164062 619.89453125 l 1
 997.155273438 667.975585938 l 1
 1014.79199219 646.227539062 l 1
 955.504882812 598.147460938 l 1
  Spiro
    955.504 598.145 v
    937.868 619.892 v
    997.155 667.973 v
    1014.79 646.225 v
    0 0 z
  EndSpiro
823.75 125.8671875 m 1
 823.75 560.630859375 l 1
 712.73828125 649.94140625 l 1
 626.708984375 597.833007812 l 1
 615.161132812 619.166015625 l 1
 828.708984375 747.333007812 l 1
 962.759765625 627.7421875 l 1
 962.759765625 138.807617188 l 1
 1006.20898438 100.984375 l 1
 1062.84667969 138.806640625 l 1
 1077.2265625 124.426757812 l 1
 924.455078125 -0.203125 l 1
 809.412109375 95.666015625 l 1
 775.857421875 71.69921875 l 1
 766.271484375 86.0791015625 l 1
 823.75 125.8671875 l 1
  Spiro
    823.75 125.867 v
    823.75 560.631 v
    712.739 649.942 v
    626.709 597.833 v
    615.161 619.166 v
    828.709 747.333 v
    962.759 627.742 v
    962.759 138.808 v
    1006.21 100.984 v
    1062.84 138.807 v
    1077.22 124.427 v
    924.455 -0.203275 v
    809.412 95.666 v
    775.857 71.6991 v
    766.271 86.0789 v
    0 0 z
  EndSpiro
809.412109375 95.666015625 m 1024
  Spiro
    809.412 95.666 {
    0 0 z
  EndSpiro
809.412109375 95.666015625 m 1024
  Spiro
    809.412 95.666 {
    0 0 z
  EndSpiro
632.009765625 148.393554688 m 1024
  Spiro
    632.01 148.394 {
    0 0 z
  EndSpiro
707.034179688 278.188476562 m 1
 706.784179688 307.438476562 l 1
 722 323.526367188 743.65625 333.344726562 765.784179688 334.188476562 c 0
 790.315429688 335.124023438 815.057617188 324.909179688 831.784179688 306.938476562 c 1
 831.784179688 277.438476562 l 1
 815.127929688 296.123046875 789.78125 306.715820312 764.784179688 305.438476562 c 0
 742.977539062 304.32421875 721.7578125 294.311523438 707.034179688 278.188476562 c 1
  Spiro
    706.784 307.462 v
    765.784 334.212 o
    831.784 306.962 v
    831.784 277.462 v
    764.784 305.462 o
    707.034 278.212 v
    338.242 448.25 z
  EndSpiro
707.034179688 448.25 m 1
 721.7578125 432.126953125 742.977539062 422.114257812 764.784179688 421 c 0
 789.78125 419.72265625 815.127929688 430.315429688 831.784179688 449 c 1
 831.784179688 419.5 l 1
 815.057617188 401.530273438 790.315429688 391.314453125 765.784179688 392.25 c 0
 743.65625 393.09375 722 402.912109375 706.784179688 419 c 1
 707.034179688 448.25 l 1
  Spiro
    707.034 448.25 v
    764.784 421 o
    831.784 449 v
    831.784 419.5 v
    765.784 392.25 o
    706.784 419 v
    338.242 448.25 z
  EndSpiro
396.8984375 251.333007812 m 1024
  Spiro
    396.898 251.333 {
    0 0 z
  EndSpiro
720.079101562 99.5625 m 1
 691.4140625 99.5166015625 l 1
 691.415039062 737.991210938 l 1
 720.077148438 737.991210938 l 1
 720.079101562 99.5625 l 1
  Spiro
    720.08 99.5625 v
    691.414 99.5168 v
    691.416 737.991 v
    720.078 737.991 v
    0 0 z
  EndSpiro
502.586914062 565.424804688 m 1
 380.500976562 649 l 1
 358.728515625 634.831054688 339.780273438 615.99609375 326.791992188 593.5 c 0
 320.677734375 582.909179688 316.038085938 571.438476562 313.443359375 559.48828125 c 0
 310.848632812 547.538085938 310.501953125 535.228515625 310.501953125 523 c 2
 310.500976562 299.5 l 2
 310.500976562 284.751953125 309.87109375 269.802734375 305.391601562 255.750976562 c 0
 300.913085938 241.69921875 292.975585938 228.86328125 283.000976562 218 c 0
 264.952148438 198.342773438 241.146484375 184.666992188 216.251953125 175.052734375 c 0
 191.358398438 165.438476562 164.958007812 159.8359375 138.337890625 157.965820312 c 1
 133.462890625 177.028320312 l 1
 142.553710938 178.013671875 151.301757812 181.801757812 158.317382812 187.666992188 c 0
 163.942382812 192.370117188 168.444335938 198.350585938 171.724609375 204.908203125 c 0
 175.005859375 211.46484375 177.090820312 218.575195312 178.3828125 225.79296875 c 0
 180.965820312 240.227539062 180.650390625 255.002929688 180.650390625 269.666992188 c 2
 180.650390625 427 l 2
 180.650390625 448.29296875 181.299804688 469.7734375 186.452148438 490.43359375 c 0
 191.604492188 511.092773438 200.8984375 530.657226562 213.250976562 548 c 0
 234.9296875 578.435546875 265.930664062 600.758789062 297.500976562 620.75 c 2
 497.79296875 747.580078125 l 1
 632.009765625 636.501953125 l 1
 637.8046875 631.669921875 l 1
 632.024414062 626.013671875 l 1
 632.009765625 148.393554688 l 1
 695.208984375 100.984375 l 1
 751.846679688 138.806640625 l 1
 766.227539062 124.426757812 l 1
 598.455078125 -0.203125 l 1
 483.412109375 95.666015625 l 1
 449.857421875 71.69921875 l 1
 440.271484375 86.0791015625 l 1
 502.584960938 129.221679688 l 1
 502.586914062 565.424804688 l 1
  Spiro
    502.587 565.425 v
    380.501 649 v
    326.792 593.5 o
    310.502 523 [
    310.501 299.5 ]
    283.001 218 o
    138.338 157.966 v
    133.463 177.028 v
    158.317 187.667 o
    180.65 269.667 [
    180.65 427 ]
    213.251 548 o
    297.501 620.75 [
    497.793 747.58 v
    632.01 636.502 v
    637.805 631.67 v
    632.024 626.014 v
    632.01 148.394 v
    695.209 100.984 v
    751.847 138.807 v
    766.227 124.427 v
    598.455 -0.203275 v
    483.412 95.666 v
    449.857 71.6991 v
    440.271 86.0789 v
    502.585 129.222 v
    0 0 z
  EndSpiro
384.034179688 278.188476562 m 1
 383.784179688 307.438476562 l 1
 399 323.526367188 420.65625 333.344726562 442.784179688 334.188476562 c 0
 467.315429688 335.124023438 492.057617188 324.909179688 508.784179688 306.938476562 c 1
 508.784179688 277.438476562 l 1
 492.127929688 296.123046875 466.78125 306.715820312 441.784179688 305.438476562 c 0
 419.977539062 304.32421875 398.7578125 294.311523438 384.034179688 278.188476562 c 1
  Spiro
    383.784 307.462 v
    442.784 334.212 o
    508.784 306.962 v
    508.784 277.462 v
    441.784 305.462 o
    384.034 278.212 v
    338.242 448.25 z
  EndSpiro
384.034179688 448.25 m 1
 398.7578125 432.126953125 419.977539062 422.114257812 441.784179688 421 c 0
 466.78125 419.72265625 492.12890625 430.315429688 508.784179688 449 c 1
 508.784179688 419.5 l 1
 492.057617188 401.530273438 467.315429688 391.314453125 442.784179688 392.25 c 0
 420.65625 393.09375 399 402.912109375 383.784179688 419 c 1
 384.034179688 448.25 l 1
  Spiro
    384.034 448.25 v
    441.784 421 o
    508.784 449 v
    508.784 419.5 v
    442.784 392.25 o
    383.784 419 v
    338.242 448.25 z
  EndSpiro
368.232421875 432.163085938 m 1
 368.232421875 651.62109375 l 1
 396.8984375 651.666992188 l 1
 396.8984375 251.333007812 l 1
 397.0625 155.330078125 l 2
 397.092773438 137.23046875 396.071289062 118.815429688 389.700195312 101.874023438 c 0
 383.329101562 84.9326171875 372.380859375 69.9375 359.231445312 57.5 c 0
 336.870117188 36.349609375 308.528320312 21.8125 278.563476562 14.7822265625 c 0
 263.580078125 11.2666015625 248.215820312 9.69140625 232.869140625 8.544921875 c 0
 217.522460938 7.3984375 201.950195312 6.7431640625 187.231445312 2.25 c 0
 177.797851562 -0.6298828125 168.701171875 -5.3291015625 162.068359375 -12.630859375 c 0
 155.436523438 -19.931640625 151.658203125 -29.927734375 152.564453125 -39.75 c 0
 153.27734375 -47.47265625 156.77734375 -54.833984375 161.977539062 -60.587890625 c 0
 167.177734375 -66.341796875 173.958984375 -70.5537109375 181.231445312 -73.25 c 0
 188.920898438 -76.1005859375 197.19921875 -77.3154296875 205.390625 -76.931640625 c 1
 205.390625 -100.8671875 l 1
 175.116210938 -104.768554688 143.434570312 -93.9560546875 121.3984375 -72.8330078125 c 0
 98.2568359375 -50.6513671875 85.7861328125 -18.38671875 85.453125 13.6669921875 c 0
 85.1708984375 40.794921875 93.771484375 68.2626953125 111.064453125 89.1669921875 c 0
 122.196289062 102.622070312 136.723632812 113.138671875 152.729492188 120.122070312 c 0
 168.736328125 127.104492188 186.078125 130.586914062 203.453125 132.333007812 c 0
 228.631835938 134.864257812 254.204101562 133.969726562 279.03125 138.86328125 c 0
 291.4453125 141.309570312 303.627929688 145.241210938 314.747070312 151.278320312 c 0
 325.8671875 157.315429688 335.85546875 165.474609375 343.786132812 175.333007812 c 0
 354.826171875 189.056640625 361.615234375 205.87890625 364.905273438 223.182617188 c 0
 368.1953125 240.485351562 368.231445312 258.219726562 368.231445312 275.833007812 c 2
 368.232421875 432.163085938 l 1
  Spiro
    368.232 651.621 v
    396.898 651.667 v
    396.898 251.333 v
    397.062 155.33 ]
    359.231 57.5 o
    187.231 2.25 o
    152.565 -39.75 o
    181.231 -73.25 o
    205.391 -76.9321 v
    205.391 -100.867 v
    121.398 -72.8333 o
    85.4531 13.6667 o
    111.065 89.1667 o
    203.453 132.333 o
    343.786 175.333 o
    368.231 275.833 [
    368.232 432.163 v
    0 0 z
  EndSpiro
71.232421875 287.364257812 m 1
 57.1708984375 312.6171875 52.345703125 343.055664062 58.7080078125 371.25 c 0
 62.1181640625 386.359375 68.76953125 400.779296875 78.4150390625 412.8984375 c 0
 88.060546875 425.018554688 100.688476562 434.6640625 114.708007812 441.25 c 0
 139.099609375 452.708007812 166.58203125 455.095703125 193.208007812 459.25 c 0
 200.545898438 460.39453125 207.869140625 461.63671875 215.169921875 463 c 1
 223.465820312 345.204101562 l 1
 147.640625 345.203125 l 2
 141.51171875 345.203125 135.352539062 345.138671875 129.311523438 344.106445312 c 0
 123.270507812 343.073242188 117.368164062 341.075195312 112.098632812 337.947265625 c 0
 101.557617188 331.69140625 93.9560546875 320.90625 91.015625 309.006835938 c 0
 89.2705078125 301.948242188 89.0595703125 294.518554688 90.357421875 287.364257812 c 1
 71.232421875 287.364257812 l 1
  Spiro
    58.7082 371.25 o
    114.708 441.25 o
    193.208 459.25 o
    215.17 463 v
    223.466 345.205 v
    147.64 345.203 ]
    91.0152 309.007 o
    90.3577 287.365 v
    71.2327 287.365 v
    24.8781 284.5 z
  EndSpiro
71.171875 624.80078125 m 1
 75.2099609375 635.58203125 81.9482421875 645.353515625 90.6494140625 652.892578125 c 0
 97.8603515625 659.140625 106.438476562 663.818359375 115.625 666.392578125 c 0
 127.400390625 669.692382812 139.954101562 669.409179688 151.97265625 667.151367188 c 0
 163.991210938 664.893554688 175.592773438 660.872070312 187.31640625 657.392578125 c 0
 201.181640625 653.278320312 215.397460938 650.032226562 229.84765625 649.419921875 c 0
 244.297851562 648.806640625 258.83984375 650.762695312 272.649414062 655.059570312 c 0
 294.436523438 661.838867188 314.14453125 674.21484375 331.74609375 688.735351562 c 0
 349.346679688 703.255859375 365.185546875 719.78125 380.649414062 736.559570312 c 0
 384.577148438 740.821289062 388.473632812 745.11328125 392.338867188 749.431640625 c 1
 373.155273438 759.0234375 l 1
 369.524414062 755.2890625 365.833007812 751.611328125 362.0234375 748.059570312 c 0
 354.8828125 741.40234375 347.021484375 735.143554688 337.727539062 732.154296875 c 0
 328.596679688 729.217773438 318.737304688 729.65234375 309.227539062 730.904296875 c 0
 301.353515625 731.940429688 293.532226562 733.365234375 285.7734375 735.059570312 c 0
 271.509765625 738.173828125 257.623046875 742.778320312 243.814453125 747.518554688 c 0
 230.005859375 752.258789062 216.03125 756.864257812 201.541992188 758.654296875 c 0
 188.547851562 760.258789062 175.247070312 759.510742188 162.577148438 756.208984375 c 0
 149.907226562 752.907226562 137.932617188 747.172851562 127.041992188 739.904296875 c 0
 106.854492188 726.4296875 90.2197265625 708.036132812 77.0419921875 687.654296875 c 0
 66.3583984375 671.129882812 57.947265625 653.145507812 52 634.388671875 c 1
 71.171875 624.80078125 l 1
  Spiro
    90.6496 652.893 o
    115.625 666.393 o
    187.316 657.393 o
    272.649 655.06 o
    380.649 736.56 o
    392.339 749.432 v
    373.156 759.024 v
    362.024 748.06 o
    337.728 732.155 o
    309.228 730.905 o
    285.774 735.06 o
    201.542 758.655 o
    127.042 739.905 o
    77.0421 687.655 o
    52 634.389 v
    71.172 624.801 v
    29.6031 630.021 z
  EndSpiro
EndSplineSet
Fore
SplineSet
955.504882812 598.147460938 m 1
 937.868164062 619.89453125 l 1
 997.155273438 667.975585938 l 1
 1014.79199219 646.227539062 l 1
 955.504882812 598.147460938 l 1
  Spiro
    955.505 598.147 v
    937.868 619.895 v
    997.155 667.976 v
    1014.79 646.228 v
    0 0 z
  EndSpiro
823.75 125.8671875 m 1
 823.75 560.630859375 l 1
 712.73828125 649.94140625 l 1
 626.708984375 597.833007812 l 1
 615.161132812 619.166015625 l 1
 828.708984375 747.333007812 l 1
 962.759765625 627.7421875 l 1
 962.759765625 138.807617188 l 1
 1006.20898438 100.984375 l 1
 1062.84667969 138.806640625 l 1
 1077.2265625 124.426757812 l 1
 924.455078125 -0.203125 l 1
 809.412109375 95.666015625 l 1
 775.857421875 71.69921875 l 1
 766.271484375 86.0791015625 l 1
 823.75 125.8671875 l 1
  Spiro
    823.75 125.867 v
    823.75 560.631 v
    712.738 649.941 v
    626.709 597.833 v
    615.161 619.166 v
    828.709 747.333 v
    962.76 627.742 v
    962.76 138.808 v
    1006.21 100.984 v
    1062.85 138.807 v
    1077.23 124.427 v
    924.455 -0.203125 v
    809.412 95.666 v
    775.857 71.6992 v
    766.271 86.0791 v
    0 0 z
  EndSpiro
809.412109375 95.666015625 m 1024
  Spiro
    809.412 95.666 {
    0 0 z
  EndSpiro
809.412109375 95.666015625 m 1024
  Spiro
    809.412 95.666 {
    0 0 z
  EndSpiro
632.009765625 148.393554688 m 1024
  Spiro
    632.01 148.394 {
    0 0 z
  EndSpiro
707.034179688 278.188476562 m 1
 706.784179688 307.438476562 l 1
 738.803314037 341.292736193 796.298781923 345.063318324 831.784179688 306.938476562 c 1
 831.784179688 277.438476562 l 1
 798.947639418 314.273697306 740.730792971 315.087799064 707.034179688 278.188476562 c 1
706.784179688 419 m 1
 707.034179688 448.25 l 1
 740.59058515 411.504211435 798.90152068 412.113044396 831.784179688 449 c 1
 831.784179688 419.5 l 1
 798.616195503 383.866880139 741.141522061 382.673521708 706.784179688 419 c 1
396.8984375 251.333007812 m 1024
  Spiro
    396.898 251.333 {
    0 0 z
  EndSpiro
720.079101562 99.5625 m 1
 691.4140625 99.5166015625 l 1
 691.415039062 737.991210938 l 1
 720.077148438 737.991210938 l 1
 720.079101562 99.5625 l 1
  Spiro
    720.079 99.5625 v
    691.414 99.5166 v
    691.415 737.991 v
    720.077 737.991 v
    0 0 z
  EndSpiro
133.462890625 177.028320312 m 1
 176.701390384 181.714929644 180.650390625 226.868339499 180.650390625 269.666992188 c 2
 180.650390625 427 l 2
 180.650390625 512.349911818 204.577443768 561.908202181 297.500976562 620.75 c 2
 497.79296875 747.580078125 l 1
 544.457004339 708.936822047 591.173593181 670.346119223 637.8046875 631.669921875 c 1
 632.024414062 626.013671875 l 1
 632.009765625 148.393554688 l 1
 695.208984375 100.984375 l 1
 751.846679688 138.806640625 l 1
 766.227539062 124.426757812 l 1
 598.455078125 -0.203125 l 1
 483.412109375 95.666015625 l 1
 449.857421875 71.69921875 l 1
 440.271484375 86.0791015625 l 1
 502.584960938 129.221679688 l 1
 502.586914062 565.424804688 l 1
 380.500976562 649 l 1
 341.061548308 623.333856716 310.501953125 587.354978463 310.501953125 523 c 2
 310.500976562 299.5 l 2
 310.500976562 200.445654343 218.868703161 163.623273118 138.337890625 157.965820312 c 1
 133.462890625 177.028320312 l 1
  Spiro
    502.587 565.425 v
    380.501 649 v
    359.806 633.33 o
    341.634 614.719 o
    326.792 593.5 o
    321.195 582.642 o
    316.695 571.252 o
    313.443 559.488 o
    311.529 547.447 o
    310.687 535.227 o
    310.502 523 [
    310.501 299.5 ]
    310.173 284.74 o
    308.705 270.047 o
    305.392 255.751 o
    299.819 242.146 o
    292.235 229.481 o
    283.001 218 o
    263.227 200.281 o
    240.587 186.079 o
    216.252 175.053 o
    190.93 166.772 o
    164.811 161.086 o
    138.338 157.966 v
    133.463 177.028 v
    142.379 178.918 o
    150.784 182.525 o
    158.317 187.667 o
    163.56 192.764 o
    168.045 198.575 o
    171.725 204.908 o
    174.62 211.626 o
    176.813 218.635 o
    178.383 225.793 o
    180.118 240.31 o
    180.637 254.997 o
    180.65 269.667 [
    180.65 427 ]
    181.009 448.297 o
    182.661 469.558 o
    186.452 490.434 o
    192.937 510.666 o
    201.968 529.977 o
    213.251 548 o
    237.686 575.92 o
    266.475 599.79 o
    297.501 620.75 [
    497.793 747.58 v
    632.01 636.502 v
    637.805 631.67 v
    632.024 626.014 v
    632.01 148.394 v
    695.209 100.984 v
    751.847 138.807 v
    766.228 124.427 v
    598.455 -0.203125 v
    483.412 95.666 v
    449.857 71.6992 v
    440.271 86.0791 v
    502.585 129.222 v
    0 0 z
  EndSpiro
384.034179688 278.188476562 m 1
 383.784179688 307.438476562 l 1
 415.803314037 341.292736193 473.298781923 345.063318324 508.784179688 306.938476562 c 1
 508.784179688 277.438476562 l 1
 475.947639418 314.273697306 417.730792971 315.087799064 384.034179688 278.188476562 c 1
383.784179688 419 m 1
 384.034179688 448.25 l 1
 417.59058515 411.504211435 475.902594969 412.112086756 508.784179688 449 c 1
 508.784179688 419.5 l 1
 475.616195503 383.866880139 418.141522061 382.673521708 383.784179688 419 c 1
193.051031785 -101.653598525 m 0
 130.167732874 -101.653598525 85.4463990157 -45.6415713532 85.4463990157 14.9603134303 c 0
 85.4463990157 85.0151092451 136.359939944 132.333007812 203.453125 132.333007812 c 0
 345 132.333007812 368.230865403 183.000000004 368.231445312 275.833007812 c 2
 368.232421875 651.62109375 l 1
 396.8984375 651.666992188 l 1
 396.8984375 251.333007812 l 1
 397.0625 155.330078125 l 2
 397.062923581 155.076831395 397.063141258 154.823522913 397.063141258 154.570157579 c 0
 397.063141258 55.9597885315 322.9912286 15.2775551099 232.869140625 8.544921875 c 0
 197.485180614 5.90153854353 152.431258758 1.34135836342 152.431258758 -36.8414223025 c 0
 152.431258758 -62.1583405709 176.975713906 -77.0006797064 202.442333762 -77.0006797064 c 0
 203.425570387 -77.0006797064 204.408722118 -76.9776453737 205.390625 -76.931640625 c 1
 205.390625 -100.8671875 l 1
 201.294065431 -101.395098067 197.171739621 -101.653598525 193.051031785 -101.653598525 c 0
  Spiro
    368.232 432.163 v
    368.232 651.621 v
    396.898 651.667 v
    396.898 251.333 v
    397.062 155.33 ]
    396.584 137.21 o
    394.444 119.223 o
    389.7 101.874 o
    381.901 85.6196 o
    371.548 70.7533 o
    359.231 57.5 o
    335.064 38.6038 o
    307.798 24.2698 o
    278.563 14.7822 o
    263.483 11.8598 o
    248.192 9.8887 o
    232.869 8.54492 o
    217.503 7.40314 o
    202.18 5.62179 o
    187.231 2.25 o
    177.998 -1.26116 o
    169.436 -6.17326 o
    162.068 -12.6309 o
    156.46 -20.715 o
    153.15 -29.9857 o
    152.564 -39.75 o
    154.164 -47.2987 o
    157.388 -54.351 o
    161.978 -60.5879 o
    167.658 -65.824 o
    174.17 -70.0512 o
    181.231 -73.25 o
    189.084 -75.5549 o
    197.203 -76.7819 o
    205.391 -76.9316 v
    205.391 -100.867 v
    175.086 -100.032 o
    146.213 -90.3424 o
    121.398 -72.833 o
    101.884 -47.6994 o
    89.7694 -18.0447 o
    85.4531 13.667 o
    88.1192 40.6259 o
    96.6875 66.3551 o
    111.064 89.167 o
    123.244 101.609 o
    137.302 111.992 o
    152.729 120.122 o
    169.116 125.998 o
    186.155 129.946 o
    203.453 132.333 o
    228.696 134.062 o
    254.023 135.56 o
    279.031 138.863 o
    291.325 141.824 o
    303.316 145.925 o
    314.747 151.278 o
    325.445 158 o
    335.213 166.065 o
    343.786 175.333 o
    353.429 189.977 o
    360.427 206.153 o
    364.905 223.183 o
    367.228 240.591 o
    368.101 258.217 o
    368.231 275.833 [
    0 0 z
  EndSpiro
147.640625 345.203125 m 2
 110.013635393 345.203125 83.5604534665 324.831970805 90.357421875 287.364257812 c 1
 71.232421875 287.364257812 l 1
 61.2736646734 305.249076375 55.9477217601 325.734893443 55.9477217601 346.182408428 c 0
 55.9477217601 415 111.830078125 463 219 463 c 1
 219 345.204101562 l 1
 147.640625 345.203125 l 2
  Spiro
    71.2324 287.364 v
    60.3296 314.043 o
    56.0017 342.612 o
    58.708 371.25 o
    63.1839 386.055 o
    69.7844 400.086 o
    78.415 412.898 o
    88.9843 424.162 o
    101.224 433.674 o
    114.708 441.25 o
    139.958 450.079 o
    166.47 455.287 o
    193.208 459.25 o
    200.533 460.427 o
    207.869 461.678 o
    215.17 463 v
    223.466 345.204 v
    147.641 345.203 ]
    141.513 345.148 o
    135.38 344.849 o
    129.312 344.106 o
    123.341 342.747 o
    117.555 340.702 o
    112.099 337.947 o
    102.61 330.317 o
    95.4401 320.398 o
    91.0156 309.007 o
    89.7817 301.856 o
    89.5637 294.579 o
    90.3574 287.364 v
    0 0 z
  EndSpiro
373.155273438 759.0234375 m 1
 360.273658537 745.774568386 347.146322676 729.943426869 322.173872755 729.943426869 c 0
 269.98866482 729.943426869 238.887823069 759.467217423 188.368508387 759.467217423 c 0
 142.313293939 759.467217423 79.8707814374 722.289180751 52 634.388671875 c 1
 71.171875 624.80078125 l 1
 80.1842367945 648.862806452 101.784679988 668.859910403 134.497342448 668.859910403 c 0
 171.338767478 668.859910403 197.139415306 649.309741061 235.051681284 649.309741061 c 0
 282.389299424 649.309741061 319.387040426 667.927603774 392.338867188 749.431640625 c 1
 373.155273438 759.0234375 l 1
  Spiro
    71.1719 624.801 v
    76.077 635.19 o
    82.6372 644.664 o
    90.6494 652.893 o
    98.2799 658.592 o
    106.678 663.141 o
    115.625 666.393 o
    127.599 668.557 o
    139.837 668.691 o
    151.973 667.151 o
    163.86 664.394 o
    175.625 660.964 o
    187.316 657.393 o
    201.28 653.636 o
    215.494 650.843 o
    229.848 649.42 o
    244.284 649.654 o
    258.64 651.554 o
    272.649 655.06 o
    293.722 663.566 o
    313.462 675.07 o
    331.746 688.735 o
    348.794 703.844 o
    365.025 719.947 o
    380.649 736.56 o
    384.563 740.827 o
    388.467 745.127 o
    392.339 749.432 v
    373.155 759.023 v
    369.506 755.314 o
    365.792 751.647 o
    362.023 748.06 o
    354.624 741.648 o
    346.562 736.122 o
    337.728 732.154 o
    328.403 730.248 o
    318.804 730.02 o
    309.228 730.904 o
    301.379 732.064 o
    293.545 733.461 o
    285.773 735.06 o
    271.638 738.616 o
    257.646 742.878 o
    243.814 747.519 o
    229.952 752.11 o
    215.858 756.028 o
    201.542 758.654 o
    188.493 759.467 o
    175.41 758.665 o
    162.577 756.209 o
    150.166 752.134 o
    138.268 746.622 o
    127.042 739.904 o
    108.053 724.915 o
    91.3601 707.246 o
    77.042 687.654 o
    67.1321 670.686 o
    58.7539 652.844 o
    52 634.389 v
    0 0 z
  EndSpiro
EndSplineSet
Colour: 660000
EndChar

StartChar: a
Encoding: 97 97 7
Width: 490
VWidth: 0
Flags: MW
AnchorPoint: "ogonek" 395.658 84 basechar 0
AnchorPoint: "mark_top" 267.658 556 basechar 0
LayerCount: 3
Back
SplineSet
391.547851562 375.634765625 m 1
 373.911132812 397.381835938 l 1
 433.198242188 445.462890625 l 1
 450.834960938 423.71484375 l 1
 391.547851562 375.634765625 l 1
  Spiro
    391.548 375.633 v
    373.912 397.38 v
    433.199 445.461 v
    450.836 423.713 v
    0 0 z
  EndSpiro
178.334960938 270.333007812 m 1
 169.104492188 256.54296875 162.965820312 240.716796875 160.334960938 224.333007812 c 0
 155.4921875 194.17578125 162.091796875 162.685546875 176.334960938 135.666992188 c 0
 183.057617188 122.9140625 191.673828125 111.048828125 202.498046875 101.526367188 c 0
 213.321289062 92.0029296875 226.493164062 84.958984375 240.668945312 82.3330078125 c 0
 253.403320312 79.974609375 266.8046875 81.244140625 278.819335938 86.0791015625 c 1
 279.668945312 72.2919921875 l 1
 173.364257812 -5 l 1
 132.387695312 0.337890625 92.9189453125 20.4189453125 66.6689453125 52.3330078125 c 0
 48.22265625 74.7587890625 37.1015625 103.727539062 38.8349609375 132.712890625 c 0
 39.9609375 151.537109375 46.314453125 169.87109375 56.0458984375 186.024414062 c 0
 65.7783203125 202.177734375 78.6767578125 216.255859375 92.8349609375 228.712890625 c 0
 114.76171875 248.002929688 139.622070312 263.827148438 165.793945312 276.786132812 c 1
 178.334960938 270.333007812 l 1
  Spiro
    178.336 270.333 v
    160.336 224.333 o
    176.336 135.667 o
    240.67 82.3333 o
    278.82 86.0791 v
    279.67 72.2917 v
    173.365 -5 v
    66.6696 52.3333 o
    38.8364 132.713 o
    92.836 228.713 o
    165.795 276.786 v
    152.573 267.5 z
  EndSpiro
489.729492188 110.029296875 m 1
 494.467773438 90.8115234375 l 1
 355.276367188 -4.775390625 l 1
 274.024414062 76.6201171875 l 1
 274.026367188 359.307617188 l 1
 149.393554688 436 l 1
 141.93359375 432.990234375 134.86328125 429.000976562 128.465820312 424.123046875 c 0
 120.591796875 418.119140625 113.703125 410.720703125 108.83984375 402.095703125 c 0
 103.975585938 393.470703125 101.266601562 383.587890625 101.458984375 373.688476562 c 0
 101.727539062 359.928710938 107.650390625 346.673828125 116.336914062 336 c 0
 128.901367188 320.561523438 146.373046875 309.859375 164.34375 301.299804688 c 0
 182.314453125 292.739257812 201.166015625 286.157226562 220.173828125 280.25 c 0
 241.620117188 273.584960938 263.357421875 267.87109375 285.252929688 262.875 c 1
 285.252929688 233.125 l 1
 261.853515625 240.362304688 238.33984375 247.22265625 214.8671875 254.21875 c 0
 190.663085938 261.43359375 166.361328125 268.745117188 143.545898438 279.577148438 c 0
 120.729492188 290.408203125 99.0478515625 305.383789062 85.4541015625 326.669921875 c 0
 78.2841796875 337.897460938 73.6005859375 350.810546875 72.6982421875 364.100585938 c 0
 71.865234375 376.387695312 74.2998046875 388.8515625 79.5029296875 400.013671875 c 0
 84.7060546875 411.17578125 92.5732421875 420.995117188 101.842773438 429.102539062 c 0
 111.756835938 437.774414062 123.3359375 444.290039062 135.013671875 450.3828125 c 2
 245.263671875 507.905273438 l 1
 398.65625 408.970703125 l 1
 398.65625 129.220703125 l 1
 446.59375 81.2900390625 l 1
 489.729492188 110.029296875 l 1
  Spiro
    489.73 110.029 v
    494.469 90.8116 v
    355.277 -4.77539 v
    274.025 76.62 v
    274.027 359.308 v
    149.395 436 v
    128.467 424.123 o
    101.46 373.688 o
    116.338 336 o
    220.175 280.25 o
    285.254 262.875 v
    285.254 233.125 v
    214.868 254.219 o
    85.4551 326.67 o
    72.6997 364.101 o
    101.844 429.103 o
    135.015 450.383 [
    245.265 507.905 v
    398.657 408.971 v
    398.657 129.221 v
    446.595 81.29 v
    463.465 110.029 z
  EndSpiro
EndSplineSet
Fore
SplineSet
391.547851562 375.634765625 m 1
 373.911132812 397.381835938 l 1
 433.198242188 445.462890625 l 1
 450.834960938 423.71484375 l 1
 391.547851562 375.634765625 l 1
  Spiro
    391.548 375.635 v
    373.911 397.382 v
    433.198 445.463 v
    450.835 423.715 v
    0 0 z
  EndSpiro
173.364257812 -5 m 1
 109.996231691 3.25475764486 38.6579196314 52.0189079828 38.6579196314 126.764727079 c 0
 38.6579196314 183.02758135 84.1421435585 236.356304111 165.793945312 276.786132812 c 1
 178.334960938 270.333007812 l 1
 170 264 159.62109375 242.508789062 159.62109375 217.684570312 c 0
 159.62109375 160.942382812 191.166734353 81.1810143052 253.262677459 81.1810143052 c 0
 261.992310588 81.1810143052 270.720847649 82.8200903038 278.819335938 86.0791015625 c 1
 279.668945312 72.2919921875 l 1
 173.364257812 -5 l 1
156 432 m 1
 126.553710938 416.342773438 101.44921875 398 101.44921875 371.676757812 c 0
 101.44921875 303.790039062 219.804492436 277.98496232 285.252929688 262.875 c 1
 285.252929688 233.125 l 1
 200.843250976 252.612509838 72.5380859375 278.09765625 72.5380859375 365.8515625 c 0
 72.5380859375 409.849609375 105.448015178 434.957144985 135.013671875 450.3828125 c 2
 245.263671875 507.905273438 l 1
 398.65625 408.970703125 l 1
 398.65625 129.220703125 l 1
 446.59375 81.2900390625 l 1
 489.729492188 110.029296875 l 1
 494.467773438 90.8115234375 l 1
 355.276367188 -4.775390625 l 1
 274.024414062 76.6201171875 l 1
 274.026367188 359.307617188 l 1
 156 432 l 1
EndSplineSet
Colour: 660000
EndChar

StartChar: g
Encoding: 103 103 8
Width: 488
VWidth: 0
Flags: MW
AnchorPoint: "cedilla" 191.342 -168 basechar 0
AnchorPoint: "mark_top" 295.342 568 basechar 0
LayerCount: 3
Back
SplineSet
407.828125 383.662109375 m 1
 390.19140625 405.409179688 l 1
 449.478515625 453.490234375 l 1
 467.115234375 431.7421875 l 1
 407.828125 383.662109375 l 1
  Spiro
    407.827 383.66 v
    390.191 405.407 v
    449.478 453.488 v
    467.115 431.74 v
    0 0 z
  EndSpiro
419.375976562 409.736328125 m 1
 419.372070312 138.809570312 l 2
 419.372070312 125.66796875 419.579101562 112.467773438 421.729492188 99.5029296875 c 0
 423.87890625 86.537109375 427.875976562 73.8642578125 433.756835938 62.111328125 c 0
 438.194335938 53.2431640625 443.329101562 44.6142578125 445.971679688 35.056640625 c 0
 448.614257812 25.5 448.84765625 15.2421875 446.271484375 5.6669921875 c 0
 443.545898438 -4.466796875 437.673828125 -13.662109375 429.896484375 -20.7080078125 c 0
 422.487304688 -27.421875 413.583007812 -32.2138671875 404.836914062 -37.060546875 c 0
 396.091796875 -41.90625 387.62109375 -47.2353515625 379.452148438 -53 c 2
 194.536132812 -183.5 l 1
 176.814453125 -157.0234375 148.51171875 -137.849609375 117.3515625 -131.209960938 c 0
 82.6904296875 -123.82421875 44.9833984375 -132.211914062 16.7216796875 -153.59375 c 1
 2.341796875 -144.009765625 l 1
 14.099609375 -112.778320312 35.263671875 -85.158203125 62.361328125 -65.681640625 c 0
 89.458984375 -46.205078125 122.384765625 -34.9482421875 155.734375 -33.7578125 c 0
 203.706054688 -32.0458984375 252.045898438 -51.7412109375 285.162109375 -86.490234375 c 1
 292.235351562 -85.6396484375 299.06640625 -82.8740234375 304.75 -78.578125 c 0
 310.43359375 -74.283203125 314.942382812 -68.478515625 317.8359375 -61.96875 c 0
 320.904296875 -55.06640625 322.157226562 -47.4228515625 321.91015625 -39.873046875 c 0
 321.663085938 -32.32421875 319.958007812 -24.875 317.491210938 -17.7353515625 c 0
 312.557617188 -3.45703125 304.807617188 9.66015625 298.635742188 23.4482421875 c 0
 293.114257812 35.783203125 288.890625 48.734375 286.72265625 62.0732421875 c 0
 284.5546875 75.412109375 284.413085938 88.986328125 284.452148438 102.5 c 2
 285.158203125 349.400390625 l 1
 170.115234375 426.095703125 l 1
 170.115234375 162.775390625 l 1
 306.452148438 77.5 l 1
 194.083007812 -0.203125 l 1
 50.2783203125 100.459960938 l 1
 50.2783203125 388.068359375 l 1
 275.572265625 517.4921875 l 1
 419.375976562 409.736328125 l 1
  Spiro
    419.376 409.736 v
    419.372 138.81 ]
    433.757 62.1113 ]
    446.272 5.66666 o
    429.897 -20.7083 o
    379.452 -53 [
    194.536 -183.5 v
    117.352 -131.21 o
    16.7215 -153.594 v
    2.34177 -144.01 v
    155.735 -33.7578 o
    285.162 -86.49 v
    317.836 -61.9684 o
    298.636 23.4484 o
    284.452 102.5 [
    285.158 349.401 v
    170.115 426.096 v
    170.115 162.775 v
    306.452 77.5 v
    194.083 -0.203125 v
    50.2779 100.46 v
    50.2779 388.068 v
    275.572 517.492 v
    0 0 z
  EndSpiro
EndSplineSet
Fore
SplineSet
407.828125 383.662109375 m 1
 390.19140625 405.409179688 l 1
 449.478515625 453.490234375 l 1
 467.115234375 431.7421875 l 1
 407.828125 383.662109375 l 1
  Spiro
    407.828 383.662 v
    390.191 405.409 v
    449.479 453.49 v
    467.115 431.742 v
    0 0 z
  EndSpiro
285.162109375 -86.490234375 m 1
 306.844493902 -83.8828400737 321.940504172 -65.8661585068 321.940504172 -41.7239215864 c 0
 321.940504172 4.88512719247 284.194419966 13.338835131 284.452148438 102.5 c 2
 285.158203125 349.400390625 l 1
 170.115234375 426.095703125 l 1
 170.115234375 162.775390625 l 1
 306.452148438 77.5 l 1
 194.083007812 -0.203125 l 1
 50.2783203125 100.459960938 l 1
 50.2783203125 388.068359375 l 1
 275.572265625 517.4921875 l 1
 419.375976562 409.736328125 l 1
 419.372070312 138.809570312 l 2
 419.372070312 56.2535196421 448.083713914 56.8699432071 448.083713914 19.6107355203 c 0
 448.083713914 -23.7537809343 405.355060953 -34.7208735705 379.452148438 -53 c 2
 194.536132812 -183.5 l 1
 173.237381736 -151.679217546 138.998759362 -128.579423482 92.1312504138 -128.579423482 c 0
 65.194743697 -128.579423482 38.2243628074 -137.325565932 16.7216796875 -153.59375 c 1
 2.341796875 -144.009765625 l 1
 24.5915903015 -84.9092138322 83.7951210806 -33.654727674 161.524071907 -33.654727674 c 0
 207.570324139 -33.654727674 253.377984711 -53.1389764373 285.162109375 -86.490234375 c 1
  Spiro
    419.376 409.736 v
    419.372 138.81 ]
    419.505 125.672 o
    420.164 112.522 o
    421.729 99.5029 o
    424.493 86.6707 o
    428.507 74.1354 o
    433.757 62.1113 o
    438.304 53.2885 o
    442.62 44.3389 o
    445.972 35.0566 o
    447.795 25.3274 o
    447.925 15.4086 o
    446.271 5.66699 o
    442.548 -4.09975 o
    436.986 -12.9988 o
    429.896 -20.708 o
    422.058 -26.8488 o
    413.566 -32.1639 o
    404.837 -37.0605 o
    396.193 -42.0604 o
    387.712 -47.3878 o
    379.452 -53 [
    194.536 -183.5 v
    173.597 -159.672 o
    147.245 -141.82 o
    117.352 -131.21 o
    82.1731 -128.976 o
    47.636 -136.659 o
    16.7217 -153.594 v
    2.3418 -144.01 v
    17.0888 -114.178 o
    37.3929 -87.6805 o
    62.3613 -65.6816 o
    91.1712 -49.0272 o
    122.759 -38.2276 o
    155.734 -33.7578 o
    203.205 -38.9345 o
    247.59 -57.0184 o
    285.162 -86.4902 v
    292.114 -85.0176 o
    298.724 -82.3464 o
    304.75 -78.5781 o
    310.021 -73.815 o
    314.424 -68.2077 o
    317.836 -61.9688 o
    320.309 -54.8576 o
    321.646 -47.4157 o
    321.91 -39.873 o
    321.204 -32.3727 o
    319.676 -24.9631 o
    317.491 -17.7354 o
    311.788 -3.78993 o
    305.164 9.82948 o
    298.636 23.4482 o
    293.58 35.9674 o
    289.544 48.8851 o
    286.723 62.0732 o
    285.163 75.4661 o
    284.541 88.9906 o
    284.452 102.5 [
    285.158 349.4 v
    170.115 426.096 v
    170.115 162.775 v
    306.452 77.5 v
    194.083 -0.203125 v
    50.2783 100.46 v
    50.2783 388.068 v
    275.572 517.492 v
    0 0 z
  EndSpiro
EndSplineSet
Colour: 660000
EndChar

StartChar: o
Encoding: 111 111 9
Width: 472
VWidth: 0
Flags: MW
AnchorPoint: "mark_top" 256 560 basechar 0
LayerCount: 3
Back
SplineSet
32.63671875 67.6982421875 m 1
 15 89.4453125 l 1
 74.287109375 137.526367188 l 1
 91.923828125 115.778320312 l 1
 32.63671875 67.6982421875 l 1
  Spiro
    32.6358 67.6968 v
    14.9998 89.4438 v
    74.2868 137.525 v
    91.9238 115.777 v
    0 0 z
  EndSpiro
66.1904296875 107.180664062 m 1
 66.1923828125 388.068359375 l 1
 291.485351562 517.4921875 l 1
 435.290039062 407.2421875 l 1
 435.290039062 134.014648438 l 1
 214.790039062 -0.203125 l 1
 165.196289062 35.7001953125 115.560546875 70.92578125 66.1904296875 107.180664062 c 1
195.615234375 153.188476562 m 1
 310.659179688 76.4921875 l 1
 310.659179688 364.100585938 l 1
 195.615234375 440.796875 l 1
 195.615234375 153.188476562 l 1
EndSplineSet
Fore
SplineSet
32.63671875 67.6982421875 m 1
 15 89.4453125 l 1
 74.287109375 137.526367188 l 1
 91.923828125 115.778320312 l 1
 32.63671875 67.6982421875 l 1
66.1904296875 107.180664062 m 1
 66.1923828125 388.068359375 l 1
 291.485351562 517.4921875 l 1
 435.290039062 407.2421875 l 1
 435.290039062 134.014648438 l 1
 214.790039062 -0.203125 l 1
 66.1904296875 107.180664062 l 1
195.615234375 153.188476562 m 1
 310.659179688 76.4921875 l 1
 310.659179688 364.100585938 l 1
 195.615234375 440.796875 l 1
 195.615234375 153.188476562 l 1
EndSplineSet
Colour: ff00
EndChar

StartChar: k
Encoding: 107 107 10
Width: 577
VWidth: 0
Flags: MW
AnchorPoint: "cedilla" 104 112 basechar 0
LayerCount: 3
Back
SplineSet
566.424804688 114.83984375 m 1
 585.598632812 90.8720703125 l 1
 432.20703125 -9.7900390625 l 1
 235.674804688 277.818359375 l 1
 384.271484375 507.905273438 l 1
 393.856445312 507.900390625 l 1
 400.358398438 496.001953125 410.213867188 485.958984375 421.987304688 479.232421875 c 0
 433.759765625 472.506835938 447.416015625 469.1171875 460.967773438 469.557617188 c 0
 473.721679688 469.97265625 486.349609375 473.76953125 497.217773438 480.456054688 c 0
 508.084960938 487.142578125 517.166992188 496.703125 523.286132812 507.900390625 c 1
 542.456054688 507.900390625 l 1
 540.353515625 493.561523438 537.241210938 479.365234375 533.024414062 465.5 c 0
 528.095703125 449.296875 521.642578125 433.4765625 512.73046875 419.075195312 c 0
 503.818359375 404.672851562 492.286132812 391.762695312 478.274414062 382.25 c 0
 464.990234375 373.231445312 449.58203125 367.3828125 433.666992188 365.26171875 c 0
 417.752929688 363.140625 401.411132812 364.666992188 386.024414062 369.25 c 0
 367.58203125 374.743164062 350.469726562 384.590820312 336.3359375 397.650390625 c 1
 326.75 378.481445312 l 1
 523.286132812 86.080078125 l 1
 566.424804688 114.83984375 l 1
  Spiro
    566.425 114.84 v
    585.598 90.8721 v
    432.207 -9.79004 v
    235.675 277.818 v
    384.271 507.905 v
    393.856 507.9 v
    460.968 469.558 o
    523.286 507.9 v
    542.456 507.9 v
    533.024 465.5 o
    478.274 382.25 o
    386.024 369.25 o
    336.336 397.65 v
    326.75 378.481 v
    523.286 86.08 v
    540.099 114.84 z
  EndSpiro
216.326171875 119.6328125 m 1
 254.673828125 81.2861328125 l 1
 283.435546875 105.252929688 l 1
 297.815429688 86.0791015625 l 1
 173.185546875 -0.203125 l 1
 67.728515625 90.8720703125 l 1
 29.380859375 66.9052734375 l 1
 15 86.0791015625 l 1
 82.109375 129.220703125 l 1
 82.109375 584.600585938 l 2
 82.109375 589.59765625 82.0244140625 594.6328125 80.97265625 599.517578125 c 0
 79.919921875 604.403320312 77.9130859375 609.088867188 75.021484375 613.1640625 c 0
 70.521484375 619.504882812 64.0712890625 624.229492188 57.232421875 627.930664062 c 0
 49.921875 631.88671875 42.12890625 634.909179688 34.17578125 637.330078125 c 1
 34.173828125 651.709960938 l 1
 197.15234375 766.752929688 l 1
 216.326171875 766.752929688 l 1
 216.326171875 119.6328125 l 1
  Spiro
    216.326 119.633 v
    254.674 81.2861 v
    283.435 105.253 v
    297.815 86.0791 v
    173.185 -0.203125 v
    67.7285 90.8721 v
    29.3809 66.9053 v
    15 86.0791 v
    82.1094 129.221 v
    82.1094 584.601 ]
    75.0212 613.164 o
    57.2326 627.93 o
    34.1762 637.33 v
    34.1739 651.71 v
    197.152 766.753 v
    216.326 766.753 v
    206 119.633 z
  EndSpiro
EndSplineSet
Fore
SplineSet
419.364719623 364.32155305 m 0
 383.378197665 364.32155305 356.764010981 378.774924123 336.3359375 397.650390625 c 1
 326.75 378.481445312 l 1
 523.286132812 86.080078125 l 1
 566.424804688 114.83984375 l 1
 585.598632812 90.8720703125 l 1
 432.20703125 -9.7900390625 l 1
 235.674804688 277.818359375 l 1
 384.271484375 507.905273438 l 1
 393.856445312 507.900390625 l 1
 405.172679165 487.191920627 428.361225512 469.519538206 458.62085413 469.519538206 c 0
 488.842523484 469.519538206 511.979460825 487.210588355 523.286132812 507.900390625 c 1
 542.456054688 507.900390625 l 1
 532.052089805 436.947573002 500.126006778 364.32155305 419.364719623 364.32155305 c 0
  Spiro
    566.425 114.84 v
    585.599 90.8721 v
    432.207 -9.79004 v
    235.675 277.818 v
    384.271 507.905 v
    393.856 507.9 v
    401.414 496.685 o
    410.917 487.002 o
    421.987 479.232 o
    434.301 473.642 o
    447.468 470.374 o
    460.968 469.558 o
    473.607 471.079 o
    485.835 474.756 o
    497.218 480.456 o
    507.437 488.046 o
    516.231 497.304 o
    523.286 507.9 v
    542.456 507.9 v
    540.016 493.63 o
    536.873 479.455 o
    533.024 465.5 o
    527.559 449.479 o
    520.85 433.896 o
    512.73 419.075 o
    502.961 405.254 o
    491.442 392.813 o
    478.274 382.25 o
    464.357 374.316 o
    449.338 368.6 o
    433.667 365.262 o
    417.678 364.334 o
    401.662 365.71 o
    386.024 369.25 o
    368.104 376.144 o
    351.386 385.715 o
    336.336 397.65 v
    326.75 378.481 v
    523.286 86.0801 v
    0 0 z
  EndSpiro
82.109375 584.600585938 m 2
 82.109375 618.770830235 59.9634973641 629.480403735 34.17578125 637.330078125 c 1
 34.173828125 651.709960938 l 1
 197.15234375 766.752929688 l 1
 216.326171875 766.752929688 l 1
 216.326171875 119.6328125 l 1
 254.673828125 81.2861328125 l 1
 283.435546875 105.252929688 l 1
 297.815429688 86.0791015625 l 1
 173.185546875 -0.203125 l 1
 67.728515625 90.8720703125 l 1
 29.380859375 66.9052734375 l 1
 15 86.0791015625 l 1
 82.109375 129.220703125 l 1
 82.109375 584.600585938 l 2
  Spiro
    216.326 119.633 v
    254.674 81.2861 v
    283.436 105.253 v
    297.815 86.0791 v
    173.186 -0.203125 v
    67.7285 90.8721 v
    29.3809 66.9053 v
    15 86.0791 v
    82.1094 129.221 v
    82.1094 584.601 ]
    82.0485 589.598 o
    81.7343 594.595 o
    80.9727 599.518 o
    79.6061 604.317 o
    77.6133 608.905 o
    75.0215 613.164 o
    69.9349 618.983 o
    63.8775 623.871 o
    57.2324 627.931 o
    49.7806 631.584 o
    42.0558 634.699 o
    34.1758 637.33 v
    34.1738 651.71 v
    197.152 766.753 v
    216.326 766.753 v
    0 0 z
  EndSpiro
EndSplineSet
Colour: 660000
EndChar

StartChar: z
Encoding: 122 122 11
Width: 432
VWidth: 0
Flags: MW
AnchorPoint: "mark_top" 207.316 564 basechar 0
LayerCount: 3
Back
SplineSet
71.9775390625 215.502929688 m 1
 287.548828125 215.502929688 l 1
 369.037109375 311.372070312 l 1
 354.65625 325.752929688 l 1
 331.477539062 301.786132812 l 1
 114.982421875 301.786132812 l 1
 33.4931640625 205.916015625 l 1
 47.8740234375 191.536132812 l 1
 71.9775390625 215.502929688 l 1
  Spiro
    71.9777 215.503 v
    287.548 215.503 v
    369.037 311.372 v
    354.656 325.753 v
    331.477 301.786 v
    114.982 301.786 v
    33.4934 205.916 v
    47.8743 191.536 v
    0 0 z
  EndSpiro
114.986328125 134.009765625 m 1
 145.49609375 171.5 l 2
 199.9140625 238.3671875 259.880859375 300.516601562 314.766601562 367 c 0
 347.493164062 406.642578125 377.255859375 448.79296875 402.596679688 493.51953125 c 1
 393.006835938 507.900390625 l 1
 363.893554688 488.271484375 329.915039062 476.108398438 295.043945312 472 c 0
 255.631835938 467.356445312 215.606445312 472.62890625 177.043945312 482 c 0
 149.405273438 488.716796875 122.282226562 497.50390625 95.80859375 507.905273438 c 1
 19.11328125 364.100585938 l 1
 38.287109375 354.514648438 l 1
 62.2568359375 392.860351562 l 1
 93.6728515625 378.220703125 127.602539062 368.995117188 162.106445312 365.709960938 c 0
 202.63671875 361.8515625 243.932617188 366.22265625 282.756835938 378.48046875 c 1
 239.170898438 326.801757812 193.65234375 276.796875 149.043945312 226 c 0
 109.25 180.685546875 70.61328125 133.612304688 43.0419921875 79.9765625 c 0
 31.412109375 57.3505859375 21.7509765625 33.708984375 14.31640625 9.3798828125 c 1
 23.90625 -0.203125 l 1
 47.12890625 17.7958984375 74.3984375 30.46484375 103.043945312 37 c 0
 144.01953125 46.34765625 187.0390625 43.220703125 228.043945312 34 c 0
 258.34765625 27.185546875 287.905273438 17.1591796875 316.30859375 4.58984375 c 1
 421.765625 134.014648438 l 1
 407.385742188 143.600585938 l 1
 378.624023438 110.046875 l 1
 335.569335938 132.173828125 287.923828125 145.318359375 239.61328125 148.39453125 c 0
 197.657226562 151.067382812 155.23046875 146.169921875 114.986328125 134.009765625 c 1
  Spiro
    114.986 134.01 v
    145.496 171.5 ]
    314.766 367 o
    402.596 493.52 v
    393.006 507.9 v
    295.044 472 o
    177.044 482 o
    95.808 507.905 v
    19.1135 364.101 v
    38.2874 354.515 v
    62.2565 392.86 v
    162.106 365.71 o
    282.756 378.48 v
    149.044 226 o
    43.042 79.9762 o
    14.3165 9.38 v
    23.9065 -0.20312 v
    103.044 37 o
    228.044 34 o
    316.308 4.58984 v
    421.765 134.015 v
    407.385 143.601 v
    378.624 110.047 v
    239.613 148.395 o
    122.33 134.01 z
  EndSpiro
EndSplineSet
Fore
SplineSet
71.9775390625 215.502929688 m 1
 287.548828125 215.502929688 l 1
 369.037109375 311.372070312 l 1
 354.65625 325.752929688 l 1
 331.477539062 301.786132812 l 1
 114.982421875 301.786132812 l 1
 33.4931640625 205.916015625 l 1
 47.8740234375 191.536132812 l 1
 71.9775390625 215.502929688 l 1
  Spiro
    71.9775 215.503 v
    287.549 215.503 v
    369.037 311.372 v
    354.656 325.753 v
    331.478 301.786 v
    114.982 301.786 v
    33.4932 205.916 v
    47.874 191.536 v
    0 0 z
  EndSpiro
378.624023438 110.046875 m 1
 329.122015489 135.487278196 278.702992602 149.104010951 217.283289474 149.104010951 c 0
 182.691999912 149.104010951 148.100299523 144.015472294 114.986328125 134.009765625 c 1
 145.49609375 171.5 l 2
 231.745729134 277.480996232 333.258386538 371.137403761 402.596679688 493.51953125 c 1
 393.006835938 507.900390625 l 1
 356.264145159 483.127544635 307.500976562 474.28515625 255.057617188 474.28515625 c 0
 192.016601562 474.28515625 144.347246754 488.834662454 95.80859375 507.905273438 c 1
 19.11328125 364.100585938 l 1
 38.287109375 354.514648438 l 1
 62.2568359375 392.860351562 l 1
 101.951376942 374.362966912 140.446761411 364.348754438 190.836063197 364.348754438 c 0
 221.95659167 364.348754438 253.078860271 369.110362337 282.756835938 378.48046875 c 1
 133.48996148 209 l 2
 81.3947782421 146.156617724 35.9873650679 80.2965512784 14.31640625 9.3798828125 c 1
 23.90625 -0.203125 l 1
 58.5172526466 26.6225852515 99.3159109161 42.6492309624 155.419229807 42.6492309624 c 0
 217.643411562 42.6492309624 269.902838364 25.1258065344 316.30859375 4.58984375 c 1
 421.765625 134.014648438 l 1
 407.385742188 143.600585938 l 1
 378.624023438 110.046875 l 1
EndSplineSet
Colour: 660000
EndChar

StartChar: r
Encoding: 114 114 12
Width: 403
VWidth: 0
Flags: MW
AnchorPoint: "cedilla" 132 12 basechar 0
AnchorPoint: "mark_top" 256 576 basechar 0
LayerCount: 3
Back
SplineSet
211.391601562 430.333007812 m 1
 284.225585938 513 l 1
 294.55859375 513 l 1
 303.88671875 498.447265625 320.616210938 488.923828125 337.891601562 488.333007812 c 0
 347.140625 488.016601562 356.461914062 490.146484375 364.65625 494.446289062 c 0
 372.850585938 498.747070312 379.897460938 505.208984375 384.891601562 513 c 1
 414.725585938 513 l 1
 412.434570312 494.33984375 409.083007812 475.783203125 404.05859375 457.666992188 c 0
 399.711914062 441.994140625 393.98828125 426.546875 385.166015625 412.8828125 c 0
 376.344726562 399.21875 364.1328125 387.538085938 349.391601562 380.666992188 c 0
 337.771484375 375.249023438 324.809570312 372.87890625 311.997070312 373.364257812 c 0
 299.185546875 373.849609375 286.560546875 377.0703125 274.724609375 382 c 0
 249.970703125 392.310546875 228.372070312 409.578125 211.391601562 430.333007812 c 1
  Spiro
    211.392 430.333 v
    284.226 513 v
    294.559 513 v
    337.892 488.333 o
    384.892 513 v
    414.725 513 v
    404.059 457.667 o
    349.392 380.667 o
    274.725 382 o
    210.5 419.667 z
  EndSpiro
319.375 125.333984375 m 1
 338.05859375 103 l 1
 188.771484375 -4.9970703125 l 1
 78.90234375 81.2861328125 l 1
 45.34765625 57.318359375 l 1
 30.9677734375 76.4921875 l 1
 93.2822265625 119.6328125 l 1
 93.2822265625 383.275390625 l 1
 59.728515625 426.416015625 l 1
 21.380859375 402.44921875 l 1
 7 421.622070312 l 1
 141.217773438 512.69921875 l 1
 225.913085938 421.622070312 l 1
 225.913085938 119.6328125 l 1
 265.391601562 88.5 l 1
 319.375 125.333984375 l 1
  Spiro
    319.375 125.334 v
    338.059 103 v
    188.772 -4.99707 v
    78.9023 81.2861 v
    45.3477 57.3184 v
    30.9678 76.4922 v
    93.283 119.633 v
    93.283 383.275 v
    59.7285 426.416 v
    21.3809 402.449 v
    7 421.622 v
    141.218 512.699 v
    225.913 421.622 v
    225.913 119.633 v
    265.392 88.5 v
    0 0 z
  EndSpiro
EndSplineSet
Fore
SplineSet
339.693211771 488.302239349 m 0
 360.356263358 488.302239349 376.304942005 499.604542441 384.891601562 513 c 1
 414.725585938 513 l 1
 403 389 345 373.302503033 315.256744543 373.302503033 c 0
 290.044197192 373.302503033 247.198417223 386.567062722 211.391601562 430.333007812 c 1
 284.225585938 513 l 1
 294.55859375 513 l 1
 304.133418541 498.062391223 321.188502785 488.302239349 339.693211771 488.302239349 c 0
  Spiro
    211.392 430.333 v
    284.226 513 v
    294.559 513 v
    306.086 500.279 o
    321.068 491.751 o
    337.892 488.333 o
    347.111 488.821 o
    356.139 490.883 o
    364.656 494.446 o
    372.427 499.431 o
    379.253 505.69 o
    384.892 513 v
    414.726 513 v
    412.061 494.405 o
    408.544 475.899 o
    404.059 457.667 o
    399.195 442.142 o
    393.012 427.069 o
    385.166 412.883 o
    375.257 399.997 o
    363.245 389.027 o
    349.392 380.667 o
    337.392 376.261 o
    324.791 373.836 o
    311.997 373.364 o
    299.283 374.721 o
    286.789 377.682 o
    274.725 382 o
    251.099 394.486 o
    229.837 410.887 o
    0 0 z
  EndSpiro
319.375 125.333984375 m 1
 338.05859375 103 l 1
 188.771484375 -4.9970703125 l 1
 78.90234375 81.2861328125 l 1
 45.34765625 57.318359375 l 1
 30.9677734375 76.4921875 l 1
 93.2822265625 119.6328125 l 1
 93.2822265625 383.275390625 l 1
 59.728515625 426.416015625 l 1
 21.380859375 402.44921875 l 1
 7 421.622070312 l 1
 141.217773438 512.69921875 l 1
 225.913085938 421.622070312 l 1
 225.913085938 119.6328125 l 1
 265.391601562 88.5 l 1
 319.375 125.333984375 l 1
  Spiro
    319.375 125.334 v
    338.059 103 v
    188.771 -4.99707 v
    78.9023 81.2861 v
    45.3477 57.3184 v
    30.9678 76.4922 v
    93.2822 119.633 v
    93.2822 383.275 v
    59.7285 426.416 v
    21.3809 402.449 v
    7 421.622 v
    141.218 512.699 v
    225.913 421.622 v
    225.913 119.633 v
    265.392 88.5 v
    0 0 z
  EndSpiro
EndSplineSet
Colour: 660000
EndChar

StartChar: i
Encoding: 105 105 13
Width: 309
VWidth: 0
Flags: MW
LayerCount: 3
Back
SplineSet
66.1884765625 647.614257812 m 1
 161.700195312 731.479492188 l 1
 246.934570312 634.405273438 l 1
 151.424804688 550.541992188 l 1
 66.1884765625 647.614257812 l 1
  Spiro
    66.1874 647.617 v
    161.699 731.481 v
    246.935 634.407 v
    151.424 550.543 v
    0 0 z
  EndSpiro
299.537109375 114.83984375 m 1
 323.50390625 95.666015625 l 1
 179.700195312 -4.9970703125 l 1
 83.8310546875 81.2861328125 l 1
 50.2763671875 57.318359375 l 1
 35.896484375 76.4921875 l 1
 98.2109375 119.6328125 l 1
 98.2109375 383.275390625 l 1
 64.6572265625 426.416015625 l 1
 26.3095703125 402.44921875 l 1
 11.9287109375 421.622070312 l 1
 146.146484375 512.69921875 l 1
 222.841796875 421.622070312 l 1
 222.841796875 119.6328125 l 1
 256.396484375 86.0791015625 l 1
 299.537109375 114.83984375 l 1
EndSplineSet
Fore
SplineSet
66.1884765625 647.614257812 m 1
 161.700195312 731.479492188 l 1
 246.934570312 634.405273438 l 1
 151.424804688 550.541992188 l 1
 66.1884765625 647.614257812 l 1
299.537109375 114.83984375 m 1
 323.50390625 95.666015625 l 1
 179.700195312 -4.9970703125 l 1
 83.8310546875 81.2861328125 l 1
 50.2763671875 57.318359375 l 1
 35.896484375 76.4921875 l 1
 98.2109375 119.6328125 l 1
 98.2109375 383.275390625 l 1
 64.6572265625 426.416015625 l 1
 26.3095703125 402.44921875 l 1
 11.9287109375 421.622070312 l 1
 146.146484375 512.69921875 l 1
 222.841796875 421.622070312 l 1
 222.841796875 119.6328125 l 1
 256.396484375 86.0791015625 l 1
 299.537109375 114.83984375 l 1
EndSplineSet
Colour: ff00
EndChar

StartChar: s
Encoding: 115 115 14
Width: 436
VWidth: 0
Flags: MW
AnchorPoint: "cedilla" 186.319 0 basechar 0
AnchorPoint: "mark_top" 250.319 560 basechar 0
LayerCount: 3
Back
SplineSet
398.630859375 505 m 1
 401.946289062 485.630859375 400.046875 465.39453125 393.189453125 446.978515625 c 0
 386.333007812 428.5625 374.538085938 412.016601562 359.387695312 399.5 c 0
 343.037109375 385.991210938 322.828125 377.23046875 301.8046875 374.418945312 c 0
 280.782226562 371.608398438 259.01171875 374.734375 239.5859375 383.25 c 0
 211.64453125 395.498046875 188.858398438 419.033203125 177.461914062 447.333007812 c 1
 177.463867188 317.061523438 l 1
 227.297851562 266.166992188 l 1
 132.12890625 186 l 1
 48.46484375 252 l 1
 48.46484375 392 l 1
 255.130859375 512 l 1
 265.489257812 496.69921875 279.700195312 483.874023438 296.387695312 475.942382812 c 0
 306.598632812 471.088867188 317.827148438 468.134765625 329.130859375 468.319335938 c 0
 340.434570312 468.502929688 351.791992188 472.0078125 360.720703125 478.942382812 c 0
 370.358398438 486.42578125 376.86328125 497.868164062 378.172851562 510 c 1
 398.630859375 505 l 1
  Spiro
    398.632 505 v
    359.389 399.5 o
    239.587 383.25 o
    177.463 447.333 v
    177.465 317.062 v
    227.299 266.167 v
    132.13 186 v
    48.4654 252 v
    48.465 392 v
    255.132 512 v
    296.389 475.942 o
    360.722 478.942 o
    378.174 510 v
    81.543 -25.8767 z
  EndSpiro
101.340820312 -25.876953125 m 2
 76.7978515625 -29 l 1
 58.2841796875 -8.5263671875 48.8359375 19.845703125 51.3115234375 47.337890625 c 0
 53.7861328125 74.830078125 68.09765625 100.954101562 89.6103515625 118.25 c 0
 106.818359375 132.084960938 128.340820312 140.330078125 150.345703125 142.14453125 c 0
 172.3515625 143.958007812 194.772460938 139.444335938 214.610351562 129.75 c 0
 241.875976562 116.42578125 264.173828125 93.2919921875 276.734375 65.6669921875 c 1
 276.732421875 195.9375 l 1
 213.509765625 246.286132812 l 1
 313.509765625 329.286132812 l 1
 405.731445312 261 l 1
 405.732421875 110 l 1
 208.297851562 -10 l 1
 198.073242188 8.146484375 181.887695312 23.0419921875 162.615234375 30.943359375 c 0
 152.979492188 34.8935546875 142.557617188 37.0771484375 132.1484375 36.7421875 c 0
 121.739257812 36.408203125 111.268554688 33.4755859375 102.797851562 27.4169921875 c 0
 96.791015625 23.1201171875 91.853515625 17.2099609375 89.20703125 10.314453125 c 0
 86.560546875 3.4189453125 86.3271484375 -4.443359375 88.93359375 -11.3544921875 c 0
 91.2265625 -17.43359375 95.6865234375 -22.67578125 101.340820312 -25.876953125 c 2
  Spiro
    76.7987 -29 v
    89.6108 118.25 o
    214.611 129.75 o
    276.735 65.6667 v
    276.733 195.938 v
    213.51 246.286 v
    313.51 329.286 v
    405.733 261 v
    405.733 110 v
    208.299 -10 v
    102.799 27.4167 o
    88.9341 -11.3542 o
    101.342 -25.8767 v
    81.543 -25.8767 z
  EndSpiro
406.797851562 510 m 1
 403.047851562 473.313476562 394.2421875 436.979492188 378.998046875 403.400390625 c 0
 371.291992188 386.424804688 361.725585938 370.251953125 350.033203125 355.731445312 c 0
 338.340820312 341.2109375 324.440429688 328.647460938 310.297851562 316.5 c 2
 185.387695312 209.209960938 l 2
 162.836914062 189.83984375 140.772460938 169.8984375 119.448242188 149.184570312 c 0
 107.32421875 137.408203125 95.34765625 125.404296875 84.9501953125 112.079101562 c 0
 74.552734375 98.7548828125 65.818359375 83.876953125 61.36328125 67.5732421875 c 0
 56.5048828125 49.7919921875 57.0751953125 30.37890625 64.1435546875 13.35546875 c 0
 71.2109375 -3.6689453125 84.69140625 -17.9658203125 101.340820312 -25.876953125 c 1
 91.5888671875 -52.123046875 l 1
 67.5029296875 -42.806640625 47.5810546875 -23.3681640625 37.4228515625 0.375 c 0
 27.263671875 24.1181640625 27.0078125 51.5263671875 34.6982421875 76.1796875 c 0
 46.0322265625 112.515625 72.4775390625 141.991210938 99.4814453125 168.815429688 c 0
 121.256835938 190.444335938 144.264648438 210.791992188 167.546875 230.790039062 c 2
 292.4609375 338.080078125 l 2
 304.935546875 348.793945312 317.201171875 359.8671875 327.55078125 372.64453125 c 0
 337.901367188 385.421875 346.408203125 399.642578125 353.2890625 414.577148438 c 0
 367.1171875 444.590820312 375.127929688 477.131835938 378.547851562 510 c 1
 406.797851562 510 l 1
  Spiro
    406.799 510 v
    378.999 403.4 o
    310.299 316.5 [
    185.389 209.21 ]
    119.449 149.185 o
    61.3641 67.5735 o
    101.342 -25.8767 v
    91.5888 -52.1233 v
    34.6987 76.18 o
    99.4818 168.815 o
    167.548 230.79 [
    292.462 338.08 ]
    353.29 414.577 o
    378.549 510 v
    388.478 510 z
  EndSpiro
EndSplineSet
Fore
SplineSet
328.127929688 468.311523438 m 0
 354.369140625 468.311523438 375.614257812 486.299804688 378.172851562 510 c 1
 398.630859375 505 l 1
 411.729492188 428.4765625 354.735351562 373.75390625 285.0078125 373.75390625 c 0
 241.6640625 373.75390625 197.958007812 396.435546875 177.461914062 447.333007812 c 1
 177.463867188 317.061523438 l 1
 227.297851562 266.166992188 l 1
 132.12890625 186 l 1
 48.46484375 252 l 1
 48.46484375 392 l 1
 255.130859375 512 l 1
 269.616210938 490.603515625 294.336914062 468.311523438 328.127929688 468.311523438 c 0
  Spiro
    398.631 505 v
    400.218 485.461 o
    398.381 465.882 o
    393.19 446.979 o
    384.756 429.283 o
    373.348 413.265 o
    359.388 399.5 o
    341.882 387.629 o
    322.424 379.162 o
    301.805 374.419 o
    280.669 373.566 o
    259.658 376.556 o
    239.586 383.25 o
    213.618 399 o
    192.406 420.887 o
    177.462 447.333 v
    177.464 317.062 v
    227.298 266.167 v
    132.129 186 v
    48.4647 252 v
    48.4647 392 v
    255.131 512 v
    266.71 497.627 o
    280.592 485.405 o
    296.388 475.942 o
    306.892 471.771 o
    317.898 469.133 o
    329.131 468.319 o
    340.35 469.612 o
    351.085 473.152 o
    360.721 478.942 o
    369.231 487.615 o
    375.213 498.23 o
    378.173 510 v
    0 0 z
  EndSpiro
87.095703125 -1.046875 m 0
 87.095703125 -12.9296875 93.337890625 -21.345703125 101.340820312 -25.876953125 c 1
 76.7978515625 -29 l 1
 60.23046875 -10.6787109375 50.9228515625 13.9677734375 50.9228515625 38.6474609375 c 0
 50.9228515625 97.0986328125 99.6513671875 142.538085938 159.94921875 142.538085938 c 0
 217.190429688 142.538085938 258.275390625 106.264648438 276.734375 65.6669921875 c 1
 276.732421875 195.9375 l 1
 213.509765625 246.286132812 l 1
 313.509765625 329.286132812 l 1
 405.731445312 261 l 1
 405.732421875 110 l 1
 208.297851562 -10 l 1
 194.821289062 13.9169921875 169.703125 36.775390625 134.24609375 36.775390625 c 0
 110.83984375 36.775390625 87.095703125 23.3515625 87.095703125 -1.046875 c 0
  Spiro
    101.341 -25.877 v
    76.7977 -29 v
    61.4239 -6.24344 o
    52.6994 19.9046 o
    51.3114 47.3379 o
    57.5501 74.072 o
    70.6858 98.31 o
    89.6102 118.25 o
    108.095 130.181 o
    128.665 138.224 o
    150.346 142.145 o
    172.357 141.894 o
    194.044 137.669 o
    214.61 129.75 o
    240.02 113.372 o
    261.123 91.5739 o
    276.734 65.667 v
    276.733 195.938 v
    213.51 246.286 v
    313.51 329.286 v
    405.732 261 v
    405.733 110 v
    208.298 -10 v
    196.207 6.90863 o
    180.735 20.8614 o
    162.615 30.9434 o
    152.757 34.2741 o
    142.522 36.2667 o
    132.149 36.7422 o
    121.805 35.5246 o
    111.849 32.4491 o
    102.798 27.417 o
    97.1978 22.6109 o
    92.5678 16.8521 o
    89.2069 10.3145 o
    87.3816 3.17504 o
    87.2586 -4.20467 o
    88.9335 -11.3545 o
    91.9091 -17.1046 o
    96.1253 -22.0445 o
    0 0 z
  EndSpiro
91.5888671875 -52.123046875 m 1
 57.0888671875 -38.7783203125 29.3203125 -5.76171875 29.3203125 41.1845703125 c 0
 29.3203125 89.416015625 51.4541015625 131.073242188 167.546875 230.790039062 c 2
 292.4609375 338.080078125 l 2
 328.763671875 369.258789062 368.598632812 414.381835938 378.547851562 510 c 1
 406.797851562 510 l 1
 398.577148438 429.57421875 373.448242188 370.7421875 310.297851562 316.5 c 2
 185.387695312 209.209960938 l 2
 121.966796875 154.734375 58.1923828125 102.912109375 58.1923828125 44.087890625 c 0
 58.1923828125 9.82421875 77.2412109375 -14.42578125 101.340820312 -25.876953125 c 1
 91.5888671875 -52.123046875 l 1
  Spiro
    406.798 510 v
    401.319 473.556 o
    392.136 437.774 o
    378.998 403.4 o
    370.671 386.74 o
    361.017 370.756 o
    350.033 355.731 o
    337.691 341.82 o
    324.273 328.831 o
    310.298 316.5 [
    185.388 209.21 ]
    163.031 189.662 o
    140.988 169.628 o
    119.448 149.185 o
    107.438 137.304 o
    95.8096 124.992 o
    84.9501 112.079 o
    75.2129 98.2561 o
    67.1408 83.3816 o
    61.3632 67.5732 o
    58.3551 49.4154 o
    59.2044 31.0083 o
    64.1434 13.3555 o
    73.2174 -2.60948 o
    85.8819 -15.9845 o
    101.341 -25.877 v
    91.5888 -52.123 v
    69.1189 -39.6635 o
    50.6121 -21.6976 o
    37.4227 0.375 o
    30.496 25.0766 o
    29.7311 50.8716 o
    34.6981 76.1797 o
    50.5105 110.352 o
    73.2276 140.981 o
    99.4813 168.815 o
    121.61 190.031 o
    144.415 210.661 o
    167.547 230.79 [
    292.461 338.08 ]
    304.791 348.952 o
    316.637 360.397 o
    327.551 372.645 o
    337.286 385.862 o
    345.866 399.922 o
    353.289 414.577 o
    365.213 445.32 o
    373.559 477.355 o
    378.548 510 v
    0 0 z
  EndSpiro
EndSplineSet
Colour: 660000
EndChar

StartChar: m
Encoding: 109 109 15
Width: 781
VWidth: 0
Flags: MW
AnchorPoint: "mark_top" 380 564 basechar 0
LayerCount: 3
Back
SplineSet
780.987304688 81.6689453125 m 1
 632.654296875 -14.583984375 l 1
 533.5546875 71.666015625 l 1
 575.543945312 110.046875 l 1
 575.543945312 356.514648438 l 1
 506.1796875 419.666992188 l 1
 430.82421875 374 l 1
 404.82421875 396.833007812 l 1
 585.95703125 509.905273438 l 1
 690.587890625 419.666015625 l 1
 690.587890625 133.666015625 l 1
 737.32421875 86 l 1
 780.32421875 118.333007812 l 1
 780.987304688 81.6689453125 l 1
505.513671875 74.0009765625 m 1
 395.654296875 -14.583984375 l 1
 296.5546875 71.666015625 l 1
 338.543945312 110.046875 l 1
 338.543945312 356.514648438 l 1
 269.1796875 419.666992188 l 1
 193.82421875 374 l 1
 167.82421875 396.833007812 l 1
 348.95703125 509.905273438 l 1
 453.587890625 419.666015625 l 1
 453.587890625 120.333984375 l 1
 505.513671875 74.0009765625 l 1
680.723632812 376.922851562 m 1
 663.086914062 398.669921875 l 1
 722.374023438 446.750976562 l 1
 740.010742188 425.002929688 l 1
 680.723632812 376.922851562 l 1
  Spiro
    680.723 376.92 v
    663.087 398.667 v
    722.374 446.748 v
    740.011 425 v
    0 0 z
  EndSpiro
225.5 419 m 1
 225.5 110.046875 l 1
 268.641601562 71.69921875 l 1
 172.772460938 -14.583984375 l 1
 57.728515625 76.4921875 l 1
 96.0771484375 110.046875 l 1
 96.0771484375 375.688476562 l 1
 57.728515625 418.829101562 l 1
 19.380859375 394.861328125 l 1
 5 414.036132812 l 1
 144.010742188 509.905273438 l 1
 225.5 419 l 1
  Spiro
    225.5 419 v
    225.5 110.047 v
    268.642 71.6992 v
    172.772 -14.584 v
    57.7285 76.4922 v
    96.077 110.047 v
    96.077 375.688 v
    57.7285 418.829 v
    19.3808 394.861 v
    5 414.036 v
    144.011 509.905 v
    229.489 417 z
  EndSpiro
EndSplineSet
Fore
SplineSet
780.987304688 81.6689453125 m 1
 632.654296875 -14.583984375 l 1
 533.5546875 71.666015625 l 1
 575.543945312 110.046875 l 1
 575.543945312 356.514648438 l 1
 506.1796875 419.666992188 l 1
 430.82421875 374 l 1
 404.82421875 396.833007812 l 1
 585.95703125 509.905273438 l 1
 690.587890625 419.666015625 l 1
 690.587890625 133.666015625 l 1
 737.32421875 86 l 1
 780.32421875 118.333007812 l 1
 780.987304688 81.6689453125 l 1
505.513671875 74.0009765625 m 1
 395.654296875 -14.583984375 l 1
 296.5546875 71.666015625 l 1
 338.543945312 110.046875 l 1
 338.543945312 356.514648438 l 1
 269.1796875 419.666992188 l 1
 193.82421875 374 l 1
 167.82421875 396.833007812 l 1
 348.95703125 509.905273438 l 1
 453.587890625 419.666015625 l 1
 453.587890625 120.333984375 l 1
 505.513671875 74.0009765625 l 1
680.723632812 376.922851562 m 1
 663.086914062 398.669921875 l 1
 722.374023438 446.750976562 l 1
 740.010742188 425.002929688 l 1
 680.723632812 376.922851562 l 1
225.5 419 m 1
 225.5 110.046875 l 1
 268.641601562 71.69921875 l 1
 172.772460938 -14.583984375 l 1
 57.728515625 76.4921875 l 1
 96.0771484375 110.046875 l 1
 96.0771484375 375.688476562 l 1
 57.728515625 418.829101562 l 1
 19.380859375 394.861328125 l 1
 5 414.036132812 l 1
 144.010742188 509.905273438 l 1
 225.5 419 l 1
EndSplineSet
Colour: ff00
EndChar

StartChar: n
Encoding: 110 110 16
Width: 557
VWidth: 0
InSpiro: 1
Flags: MW
AnchorPoint: "mark_top" 262 564 basechar 0
LayerCount: 3
Back
SplineSet
444.723632812 376.922851562 m 1
 427.086914062 398.669921875 l 1
 486.374023438 446.750976562 l 1
 504.010742188 425.002929688 l 1
 444.723632812 376.922851562 l 1
  Spiro
    444.723 376.92 v
    427.087 398.667 v
    486.374 446.748 v
    504.011 425 v
    0 0 z
  EndSpiro
537.077148438 114.83984375 m 1
 556.25 86.0791015625 l 1
 407.654296875 -14.583984375 l 1
 306.990234375 76.4921875 l 1
 340.543945312 110.046875 l 1
 340.543945312 356.514648438 l 1
 268.641601562 418.829101562 l 1
 201.010742188 365.166992188 l 1
 175.010742188 388 l 1
 330.95703125 509.905273438 l 1
 455.587890625 402.833007812 l 1
 455.587890625 124.426757812 l 1
 498.728515625 86.0791015625 l 1
 537.077148438 114.83984375 l 1
  Spiro
    537.077 114.84 v
    556.25 86.0791 v
    407.654 -14.584 v
    306.99 76.4922 v
    340.544 110.047 v
    340.544 356.515 v
    268.642 418.829 v
    201.011 365.167 v
    175.011 388 v
    330.957 509.905 v
    455.588 402.833 v
    455.588 124.427 v
    498.729 86.0791 v
    541.066 114.84 z
  EndSpiro
225.5 419 m 1
 225.5 110.046875 l 1
 268.641601562 71.69921875 l 1
 172.772460938 -14.583984375 l 1
 57.728515625 76.4921875 l 1
 96.0771484375 110.046875 l 1
 96.0771484375 375.688476562 l 1
 57.728515625 418.829101562 l 1
 19.380859375 394.861328125 l 1
 5 414.036132812 l 1
 144.010742188 509.905273438 l 1
 225.5 419 l 1
  Spiro
    225.5 419 v
    225.5 110.047 v
    268.642 71.6992 v
    172.772 -14.584 v
    57.7285 76.4922 v
    96.077 110.047 v
    96.077 375.688 v
    57.7285 418.829 v
    19.3808 394.861 v
    5 414.036 v
    144.011 509.905 v
    229.489 417 z
  EndSpiro
EndSplineSet
Fore
SplineSet
444.723632812 376.922851562 m 1
 427.086914062 398.669921875 l 1
 486.374023438 446.750976562 l 1
 504.010742188 425.002929688 l 1
 444.723632812 376.922851562 l 1
  Spiro
    444.724 376.923 v
    427.087 398.67 v
    486.374 446.751 v
    504.011 425.003 v
    0 0 z
  EndSpiro
537.077148438 114.83984375 m 1
 556.25 86.0791015625 l 1
 407.654296875 -14.583984375 l 1
 306.990234375 76.4921875 l 1
 340.543945312 110.046875 l 1
 340.543945312 356.514648438 l 1
 268.641601562 418.829101562 l 1
 201.010742188 365.166992188 l 1
 175.010742188 388 l 1
 330.95703125 509.905273438 l 1
 455.587890625 402.833007812 l 1
 455.587890625 124.426757812 l 1
 498.728515625 86.0791015625 l 1
 537.077148438 114.83984375 l 1
  Spiro
    537.077 114.84 v
    556.25 86.0791 v
    407.654 -14.584 v
    306.99 76.4922 v
    340.544 110.047 v
    340.544 356.515 v
    268.642 418.829 v
    201.011 365.167 v
    175.011 388 v
    330.957 509.905 v
    455.588 402.833 v
    455.588 124.427 v
    498.729 86.0791 v
    0 0 z
  EndSpiro
225.5 419 m 1
 225.5 110.046875 l 1
 268.641601562 71.69921875 l 1
 172.772460938 -14.583984375 l 1
 57.728515625 76.4921875 l 1
 96.0771484375 110.046875 l 1
 96.0771484375 375.688476562 l 1
 57.728515625 418.829101562 l 1
 19.380859375 394.861328125 l 1
 5 414.036132812 l 1
 144.010742188 509.905273438 l 1
 225.5 419 l 1
  Spiro
    225.5 419 v
    225.5 110.047 v
    268.642 71.6992 v
    172.772 -14.584 v
    57.7285 76.4922 v
    96.0771 110.047 v
    96.0771 375.688 v
    57.7285 418.829 v
    19.3809 394.861 v
    5 414.036 v
    144.011 509.905 v
    0 0 z
  EndSpiro
EndSplineSet
Colour: ff00
EndChar

StartChar: c
Encoding: 99 99 18
Width: 367
VWidth: 0
Flags: MW
AnchorPoint: "cedilla" 162.826 -4 basechar 0
AnchorPoint: "mark_top" 242.826 576 basechar 0
LayerCount: 3
Back
SplineSet
231.826171875 123 m 0
 211.111328125 135.090820312 193.793945312 152.93359375 182.326171875 174 c 1
 182.326171875 434 l 1
 271.326171875 360 l 1
 366.326171875 432 l 1
 260.326171875 517 l 1
 53.826171875 401.877929688 l 1
 53.826171875 102.877929688 l 1
 204.826171875 0 l 1
 218.826171875 0 l 1
 365.993164062 129.166992188 l 1
 352.993164062 146.666992188 l 1
 295.326171875 105 l 1
 273.096679688 105.53515625 251.029296875 111.791015625 231.826171875 123 c 0
  Spiro
    231.826 123 o
    182.326 174 v
    182.326 434 v
    271.326 360 v
    366.326 432 v
    260.326 517 v
    53.8262 401.878 v
    53.8262 102.878 v
    204.826 0 v
    218.826 0 v
    365.993 129.167 v
    352.993 146.667 v
    295.326 105 v
    616.667 124.333 z
  EndSpiro
EndSplineSet
Fore
SplineSet
182.326171875 174 m 1
 182.326171875 434 l 1
 271.326171875 360 l 1
 366.326171875 432 l 1
 260.326171875 517 l 1
 53.826171875 401.877929688 l 1
 53.826171875 102.877929688 l 1
 204.826171875 0 l 1
 218.826171875 0 l 1
 365.993164062 129.166992188 l 1
 352.993164062 146.666992188 l 1
 295.326171875 105 l 1
 266.427013914 105.695722821 212.113567593 119.280277574 182.326171875 174 c 1
EndSplineSet
Colour: 660000
EndChar

StartChar: O
Encoding: 79 79 19
Width: 754
VWidth: 0
Flags: MW
AnchorPoint: "mark_top" 451.342 856 basechar 0
LayerCount: 3
Back
SplineSet
642.901367188 397.65625 m 1
 655.860351562 372.0859375 l 1
 453.6484375 270.000976562 l 1
 440.731445312 295.586914062 l 1
 642.901367188 397.65625 l 1
  Spiro
    642.901 397.655 v
    655.861 372.086 v
    453.649 270 v
    440.732 295.586 v
    0 0 z
  EndSpiro
643.944335938 503.142578125 m 1
 656.903320312 477.572265625 l 1
 454.69140625 375.487304688 l 1
 441.774414062 401.073242188 l 1
 643.944335938 503.142578125 l 1
  Spiro
    643.944 503.142 v
    656.904 477.573 v
    454.692 375.487 v
    441.774 401.073 v
    0 0 z
  EndSpiro
464.983398438 42.5712890625 m 1
 436.318359375 42.525390625 l 1
 436.319335938 681 l 1
 464.981445312 681 l 1
 464.983398438 42.5712890625 l 1
  Spiro
    464.984 42.5715 v
    436.318 42.5258 v
    436.32 681 v
    464.982 681 v
    0 0 z
  EndSpiro
260.952148438 640.22265625 m 1
 390.018554688 694.333007812 l 1
 389.952148438 330.75390625 l 1
 146.305664062 228.211914062 l 1
 146.325195312 256.836914062 l 1
 260.954101562 305.690429688 l 1
 260.952148438 640.22265625 l 1
  Spiro
    390.018 694.333 v
    389.952 330.754 v
    146.305 228.212 v
    146.325 256.837 v
    260.954 305.69 v
    260.952 640.223 v
    230.948 550.223 z
  EndSpiro
175.534179688 623.25 m 1
 505.201171875 765 l 1
 582.022460938 733.529296875 647.620117188 675.423828125 688.201171875 603 c 0
 718.95703125 548.110351562 735.37109375 485.340820312 735.936523438 422.423828125 c 0
 736.500976562 359.506835938 721.2109375 296.827148438 694.201171875 240 c 0
 666.48828125 181.6953125 627.46875 129.026367188 581.701171875 83.5 c 0
 553.169921875 55.1201171875 521.649414062 29.4951171875 486.610351562 9.7060546875 c 0
 451.571289062 -10.083984375 412.764648438 -23.7138671875 372.701171875 -27.5 c 0
 325.307617188 -31.978515625 276.796875 -22.20703125 234.44140625 -0.4765625 c 0
 192.0859375 21.25390625 156.008789062 54.2265625 127.701171875 92.5 c 0
 76.0322265625 162.358398438 48.6923828125 248.715820312 43.30078125 335.438476562 c 0
 37.9091796875 422.161132812 55.2412109375 510.604492188 95.701171875 587.5 c 0
 142.51171875 676.466796875 221.047851562 748.533203125 314.201171875 786.333007812 c 1
 328.704101562 767.830078125 l 1
 283.081054688 735.838867188 245.116210938 693.123046875 218.201171875 644.333007812 c 0
 184.934570312 584.028320312 168.44921875 515.168945312 166.201171875 446.333007812 c 0
 164.419921875 391.795898438 171.2890625 336.8125 188.23828125 284.944335938 c 0
 205.1875 233.076171875 232.739257812 184.020507812 272.201171875 146.333007812 c 0
 294.00390625 125.509765625 319.416015625 108.32421875 347.31640625 96.900390625 c 0
 375.217773438 85.4765625 405.591796875 79.9326171875 435.701171875 81.5 c 0
 470.819335938 83.328125 505.336914062 94.943359375 534.563476562 114.498046875 c 0
 563.791015625 134.052734375 587.633789062 161.314453125 604.201171875 192.333007812 c 0
 633.711914062 247.586914062 639.809570312 313.573242188 628.108398438 375.111328125 c 0
 616.407226562 436.6484375 587.900390625 494.307617188 550.201171875 544.333007812 c 0
 507.696289062 600.736328125 453.357421875 648.032226562 392.284179688 683.5 c 1
 175.534179688 593.5 l 1
 175.534179688 623.25 l 1
  Spiro
    505.201 765 v
    688.201 603 o
    694.201 240 o
    581.701 83.5 o
    372.701 -27.5 o
    127.7 92.5 o
    95.7001 587.5 o
    314.201 786.333 v
    328.704 767.83 v
    218.201 644.333 o
    166.201 446.333 o
    272.201 146.333 o
    435.701 81.5 o
    604.201 192.333 o
    550.201 544.333 o
    392.284 683.5 v
    175.534 593.5 v
    175.534 623.25 v
    145.5 623.25 z
  EndSpiro
EndSplineSet
Fore
SplineSet
642.901367188 397.65625 m 1
 655.860351562 372.0859375 l 1
 453.6484375 270.000976562 l 1
 440.731445312 295.586914062 l 1
 642.901367188 397.65625 l 1
  Spiro
    642.901 397.656 v
    655.86 372.086 v
    453.648 270.001 v
    440.731 295.587 v
    0 0 z
  EndSpiro
643.944335938 503.142578125 m 1
 656.903320312 477.572265625 l 1
 454.69140625 375.487304688 l 1
 441.774414062 401.073242188 l 1
 643.944335938 503.142578125 l 1
  Spiro
    643.944 503.143 v
    656.903 477.572 v
    454.691 375.487 v
    441.774 401.073 v
    0 0 z
  EndSpiro
464.983398438 42.5712890625 m 1
 436.318359375 42.525390625 l 1
 436.319335938 681 l 1
 464.981445312 681 l 1
 464.983398438 42.5712890625 l 1
  Spiro
    464.983 42.5713 v
    436.318 42.5254 v
    436.319 681 v
    464.981 681 v
    0 0 z
  EndSpiro
260.952148438 640.22265625 m 1
 390.018554688 694.333007812 l 1
 389.952148438 330.75390625 l 1
 146.305664062 228.211914062 l 1
 146.325195312 256.836914062 l 1
 260.954101562 305.690429688 l 1
 260.952148438 640.22265625 l 1
  Spiro
    260.952 640.223 v
    390.019 694.333 v
    389.952 330.754 v
    146.306 228.212 v
    146.325 256.837 v
    260.954 305.69 v
    0 0 z
  EndSpiro
328.704101562 767.830078125 m 1
 233.474601778 701.054463085 165.927622318 580.485040799 165.927622318 429.618715288 c 0
 165.927622318 250.010866848 266.797094247 81.239231796 425.643820421 81.239231796 c 0
 531.012701501 81.239231796 633.692444545 170.599732399 633.692444545 316.441428729 c 0
 633.692444545 479 556 612 392.284179688 683.5 c 1
 175.534179688 593.5 l 1
 175.534179688 623.25 l 1
 505.201171875 765 l 1
 628.341995474 711.201097005 735.951618628 589.153163405 735.951618628 419.056286045 c 0
 735.951618628 190.854262191 525.023201818 -28.5646996659 350.013592157 -28.5646996659 c 0
 182.313821522 -28.5646996659 42.3420124399 140.774756422 42.3420124399 366.321214108 c 0
 42.3420124399 572.338408767 163.14163238 725.035986194 314.201171875 786.333007812 c 1
 328.704101562 767.830078125 l 1
EndSplineSet
Colour: 660000
EndChar

StartChar: Q
Encoding: 81 81 20
Width: 780
VWidth: 0
Flags: MW
AnchorPoint: "mark_top" 444 848 basechar 0
LayerCount: 3
Back
SplineSet
519.708984375 53.697265625 m 1
 626.359375 147 l 1
 650.555664062 99.3291015625 686.311523438 57.5751953125 729.692382812 26.3330078125 c 0
 743.234375 16.5810546875 757.50390625 7.837890625 772.34375 0.2021484375 c 1
 812.359375 34.3330078125 l 1
 833.359375 13 l 1
 682.359375 -106.666992188 l 1
 661.524414062 -95.794921875 641.962890625 -82.5166015625 624.026367188 -67.3330078125 c 0
 597.033203125 -44.484375 573.811523438 -17.5244140625 552.026367188 10.3330078125 c 0
 540.919921875 24.53515625 530.166015625 39.01171875 519.708984375 53.697265625 c 1
  Spiro
    519.708 53.6969 v
    626.359 147 v
    729.692 26.3333 o
    772.343 0.202083 v
    812.359 34.3333 v
    833.359 13 v
    682.359 -106.667 v
    624.025 -67.3333 o
    552.025 10.3333 o
    0 0 z
  EndSpiro
655.559570312 397.65625 m 1
 668.518554688 372.0859375 l 1
 466.306640625 270.000976562 l 1
 453.389648438 295.586914062 l 1
 655.559570312 397.65625 l 1
  Spiro
    655.559 397.655 v
    668.519 372.086 v
    466.307 270 v
    453.39 295.586 v
    0 0 z
  EndSpiro
656.602539062 503.142578125 m 1
 669.561523438 477.572265625 l 1
 467.349609375 375.487304688 l 1
 454.432617188 401.073242188 l 1
 656.602539062 503.142578125 l 1
  Spiro
    656.602 503.142 v
    669.562 477.573 v
    467.35 375.487 v
    454.432 401.073 v
    0 0 z
  EndSpiro
477.641601562 42.5712890625 m 1
 448.9765625 42.525390625 l 1
 448.977539062 681 l 1
 477.639648438 681 l 1
 477.641601562 42.5712890625 l 1
  Spiro
    477.642 42.5715 v
    448.976 42.5258 v
    448.978 681 v
    477.64 681 v
    0 0 z
  EndSpiro
245.522460938 297 m 0
 255.603515625 313.787109375 261.219726562 332.971679688 263.92578125 352.366210938 c 0
 266.6328125 371.759765625 266.612304688 391.41796875 266.612304688 411 c 2
 266.610351562 640.22265625 l 1
 395.676757812 694.333007812 l 1
 395.610351562 480.666992188 l 1
 395.610351562 415.666992188 l 2
 395.610351562 393.169921875 394.661132812 370.362304688 387.784179688 348.942382812 c 0
 380.908203125 327.5234375 368.689453125 307.97265625 353.19140625 291.666992188 c 0
 332.26953125 269.655273438 305.901367188 253.176757812 277.688476562 241.943359375 c 0
 249.475585938 230.708984375 219.216796875 224.696289062 188.857421875 224 c 1
 179.522460938 248 l 1
 206.918945312 254.474609375 231.030273438 272.866210938 245.522460938 297 c 0
  Spiro
    245.522 297 o
    266.612 411 [
    266.61 640.223 v
    395.676 694.333 v
    395.61 480.667 v
    395.61 415.667 ]
    353.19 291.667 o
    188.857 224 v
    179.522 248 v
    0 0 z
  EndSpiro
188.192382812 623.25 m 1
 517.859375 765 l 1
 594.680664062 733.529296875 660.278320312 675.423828125 700.859375 603 c 0
 731.615234375 548.110351562 748.029296875 485.340820312 748.594726562 422.423828125 c 0
 749.159179688 359.506835938 733.869140625 296.827148438 706.859375 240 c 0
 679.146484375 181.6953125 640.126953125 129.026367188 594.359375 83.5 c 0
 565.828125 55.1201171875 534.307617188 29.4951171875 499.268554688 9.7060546875 c 0
 464.229492188 -10.083984375 425.422851562 -23.7138671875 385.359375 -27.5 c 0
 337.965820312 -31.978515625 289.455078125 -22.20703125 247.099609375 -0.4765625 c 0
 204.744140625 21.25390625 168.666992188 54.2265625 140.359375 92.5 c 0
 88.6904296875 162.358398438 61.3505859375 248.715820312 55.958984375 335.438476562 c 0
 50.5673828125 422.161132812 67.8994140625 510.604492188 108.359375 587.5 c 0
 155.169921875 676.466796875 233.706054688 748.533203125 326.859375 786.333007812 c 1
 341.362304688 767.830078125 l 1
 295.739257812 735.838867188 257.774414062 693.123046875 230.859375 644.333007812 c 0
 197.592773438 584.028320312 181.107421875 515.168945312 178.859375 446.333007812 c 0
 177.078125 391.795898438 183.947265625 336.8125 200.896484375 284.944335938 c 0
 217.845703125 233.076171875 245.397460938 184.020507812 284.859375 146.333007812 c 0
 306.662109375 125.509765625 332.07421875 108.32421875 359.974609375 96.900390625 c 0
 387.875976562 85.4765625 418.25 79.9326171875 448.359375 81.5 c 0
 483.477539062 83.328125 517.995117188 94.943359375 547.221679688 114.498046875 c 0
 576.44921875 134.052734375 600.291992188 161.314453125 616.859375 192.333007812 c 0
 646.370117188 247.586914062 652.467773438 313.573242188 640.766601562 375.111328125 c 0
 629.065429688 436.6484375 600.55859375 494.307617188 562.859375 544.333007812 c 0
 520.354492188 600.736328125 466.015625 648.032226562 404.942382812 683.5 c 1
 188.192382812 593.5 l 1
 188.192382812 623.25 l 1
  Spiro
    517.859 765 v
    700.859 603 o
    706.859 240 o
    594.359 83.5 o
    385.359 -27.5 o
    140.358 92.5 o
    108.358 587.5 o
    326.859 786.333 v
    341.362 767.83 v
    230.859 644.333 o
    178.859 446.333 o
    284.859 146.333 o
    448.359 81.5 o
    616.859 192.333 o
    562.859 544.333 o
    404.942 683.5 v
    188.192 593.5 v
    188.192 623.25 v
    145.5 623.25 z
  EndSpiro
EndSplineSet
Fore
SplineSet
179.522460938 248 m 1
 229.055370218 251.550563086 267.000724256 325.999945579 267 411 c 2
 267 640.22265625 l 1
 395.676757812 694.333007812 l 1
 395.610351562 415.666992188 l 2
 395.610351562 269.847920841 272.787039661 225.924916927 188.857421875 224 c 1
 179.522460938 248 l 1
654.901367188 397.65625 m 1
 667.860351562 372.0859375 l 1
 465.6484375 270.000976562 l 1
 452.731445312 295.586914062 l 1
 654.901367188 397.65625 l 1
  Spiro
    654.901 397.656 v
    667.86 372.086 v
    465.648 270.001 v
    452.731 295.587 v
    0 0 z
  EndSpiro
655.944335938 503.142578125 m 1
 668.903320312 477.572265625 l 1
 466.69140625 375.487304688 l 1
 453.774414062 401.073242188 l 1
 655.944335938 503.142578125 l 1
  Spiro
    655.944 503.143 v
    668.903 477.572 v
    466.691 375.487 v
    453.774 401.073 v
    0 0 z
  EndSpiro
476.983398438 42.5712890625 m 1
 448.318359375 42.525390625 l 1
 448.319335938 681 l 1
 476.981445312 681 l 1
 476.983398438 42.5712890625 l 1
  Spiro
    476.983 42.5713 v
    448.318 42.5254 v
    448.319 681 v
    476.981 681 v
    0 0 z
  EndSpiro
340.704101562 767.830078125 m 1
 245.474609375 701.0546875 177.927734375 580.485351562 177.927734375 429.619140625 c 0
 177.927734375 250.010742188 278.796875 81.2392578125 437.643554688 81.2392578125 c 0
 543.012695312 81.2392578125 645.692382812 170.599609375 645.692382812 316.44140625 c 0
 645.692382812 479 568 612 404.284179688 683.5 c 1
 187.534179688 593.5 l 1
 187.534179688 623.25 l 1
 517.201171875 765 l 1
 640.341796875 711.201171875 747.951171875 589.153320312 747.951171875 419.056640625 c 0
 747.951171875 190.854492188 537.0234375 -28.564453125 362.013671875 -28.564453125 c 0
 194.313476562 -28.564453125 54.341796875 140.774414062 54.341796875 366.321289062 c 0
 54.341796875 572.338867188 175.141601562 725.036132812 326.201171875 786.333007812 c 1
 340.704101562 767.830078125 l 1
  Spiro
    340.704 767.83 v
    256.251 684.094 o
    198.926 569.388 o
    177.928 429.619 o
    209.9 259.627 o
    299.827 131.552 o
    437.644 81.2393 o
    538.32 109.752 o
    615.226 190.749 o
    645.692 316.441 o
    619.539 467.825 o
    539.527 592.792 o
    404.284 683.5 v
    187.534 593.5 v
    187.534 623.25 v
    517.201 765 v
    631.652 689.297 o
    715.553 572.253 o
    747.951 419.057 o
    686.898 201.783 o
    539.682 36.651 o
    362.014 -28.5645 o
    207.85 23.5915 o
    96.7611 163.876 o
    54.3418 366.321 o
    91.1846 552.989 o
    188.702 696.098 o
    326.201 786.333 v
    0 0 z
  EndSpiro
519.708984375 53.697265625 m 1
 626.359375 147 l 1
 636.094018319 127.821059305 676.821929866 49.3522610743 772.34375 0.2021484375 c 1
 812.359375 34.3330078125 l 1
 833.359375 13 l 1
 682.359375 -106.666992188 l 1
 645.121942139 -87.2358068092 598.244636629 -56.5958926302 519.708984375 53.697265625 c 1
  Spiro
    519.709 53.6973 v
    626.359 147 v
    654.232 101.515 o
    689.037 60.8712 o
    729.692 26.333 o
    743.457 16.93 o
    757.714 8.19502 o
    772.344 0.202148 v
    812.359 34.333 v
    833.359 13 v
    682.359 -106.667 v
    661.982 -95.0238 o
    642.473 -81.8491 o
    624.026 -67.333 o
    598.229 -43.2582 o
    574.354 -17.0793 o
    552.026 10.333 o
    541.046 24.6098 o
    530.256 39.0983 o
    0 0 z
  EndSpiro
EndSplineSet
Colour: 660000
EndChar

StartChar: A
Encoding: 65 65 21
Width: 767
VWidth: 0
Flags: MW
AnchorPoint: "ogonek" 653 80 basechar 0
AnchorPoint: "mark_top" 505 836 basechar 0
LayerCount: 3
Back
SplineSet
63 -10 m 1
 44 -10 l 1
 61.5126953125 37.2353515625 91.9580078125 79.6025390625 131.141601562 111.263671875 c 0
 170.325195312 142.92578125 218.140625 163.796875 268 171 c 0
 335.760742188 180.790039062 406.926757812 164.813476562 464 127 c 1
 547 197 l 1
 576 164 l 1
 394 6.7724609375 l 1
 350.565429688 44.2216796875 293.348632812 65.3076171875 236 65 c 0
 171.408203125 64.654296875 107.40625 36.9072265625 63 -10 c 1
  Spiro
    63 -10 v
    44 -10 v
    268 171 o
    464 127 v
    547 197 v
    576 164 v
    394 6.77273 v
    236 65 o
    -352 -11 z
  EndSpiro
694 754 m 1
 676.625 734.625 l 2
 667.134765625 721.841796875 660.495117188 707.004882812 656.924804688 691.48828125 c 0
 653.354492188 675.97265625 653 659.920898438 653 644 c 2
 653 613 l 1
 653 276.5 l 1
 653 251.669921875 l 2
 653 225.01953125 651.5625 198.018554688 657.333007812 172 c 0
 662.780273438 147.44140625 676.114257812 124.40625 696 109 c 1
 730 136.833007812 l 1
 759 103.833007812 l 1
 626 -3.2275390625 l 1
 606.493164062 9.685546875 587.779296875 23.796875 570 39 c 0
 546.538085938 59.0615234375 524.704101562 81.02734375 504.782226562 104.608398438 c 1
 524 120.173828125 l 1
 524 646 l 1
 600.5 703.333007812 l 1
 672.25 772.083007812 l 1
 694 754 l 1
  Spiro
    676.625 734.625 v
    653 644 [
    653 613 v
    653 276.5 v
    653 251.67 ]
    657.333 172 o
    696 109 v
    730 136.833 v
    759 103.833 v
    626 -3.22727 v
    570 39 o
    504.783 104.609 v
    524 120.174 v
    524 646 v
    600.5 703.333 v
    672.25 772.083 v
    694 754 v
    611.625 753.938 z
  EndSpiro
280 271 m 1
 333 374 l 1
 592 374 l 1
 592 271 l 1
 280 271 l 1
  Spiro
    280 271 v
    333 374 v
    592 374 v
    592 271 v
    0 0 z
  EndSpiro
182.258789062 98.5419921875 m 1
 157.69140625 113.310546875 l 1
 487.5234375 659.9921875 l 1
 512.065429688 645.185546875 l 1
 182.258789062 98.5419921875 l 1
  Spiro
    182.26 98.5417 v
    157.692 113.311 v
    487.525 659.992 v
    512.066 645.185 v
    0 0 z
  EndSpiro
550 609 m 1
 511.546875 645.849609375 459.2421875 668.123046875 406 669.5 c 0
 372.90234375 670.35546875 339.514648438 663.180664062 310.104492188 647.975585938 c 0
 280.694335938 632.770507812 255.44921875 609.440429688 238.5 581 c 0
 215.15234375 541.823242188 208.260742188 493.442382812 218.5 449 c 0
 231.157226562 394.0625 269.607421875 345.77734375 320 320.5 c 1
 313 311 l 1
 277.317382812 321.322265625 244.455078125 341.213867188 218.743164062 368.0234375 c 0
 193.03125 394.83203125 174.55078125 428.473632812 165.5 464.5 c 0
 156.59765625 499.93359375 156.801757812 537.549804688 165.578125 573.014648438 c 0
 174.354492188 608.479492188 191.618164062 641.731445312 215.028320312 669.780273438 c 0
 261.849609375 725.876953125 332.721679688 759.989257812 405.5 766.5 c 0
 492.235351562 774.258789062 581.458007812 743.459960938 646 685 c 1
 550 609 l 1
  Spiro
    550 609 v
    406 669.5 o
    238.5 581 o
    218.5 449 o
    320 320.5 v
    313 311 v
    165.5 464.5 o
    405.5 766.5 o
    646 685 v
    149.5 615.5 z
  EndSpiro
EndSplineSet
Fore
SplineSet
237.237942724 65.0033192844 m 0
 171.815909072 65.0033192844 107.642248905 37.1565170136 63 -10 c 1
 44 -10 l 1
 80.7260657556 89.0577747467 176.024277346 173.817345642 307.449248321 173.817345642 c 0
 362.679902676 173.817345642 417.931062231 157.522651803 464 127 c 1
 547 197 l 1
 576 164 l 1
 394 6.7724609375 l 1
 350.877966175 43.9522112165 294.171334142 65.0033192844 237.237942724 65.0033192844 c 0
  Spiro
    63 -10 v
    44 -10 v
    65.6426 35.3531 o
    95.059 76.2882 o
    131.142 111.264 o
    172.914 139.198 o
    219.114 159.363 o
    268 171 o
    336.18 172.354 o
    402.942 157.366 o
    464 127 v
    547 197 v
    576 164 v
    394 6.77246 v
    346.528 38.555 o
    292.743 58.3761 o
    236 65 o
    172.371 55.8434 o
    113.179 30.1821 o
    0 0 z
  EndSpiro
694 744 m 1
 676.625 724.625 l 1
 659.220703125 701.181640625 653 672.653320312 653 634 c 2
 653 251.669921875 l 2
 653 184.92887993 656.636839231 139.496155983 696 109 c 1
 730 136.833007812 l 1
 759 103.833007812 l 1
 626 -3.2275390625 l 1
 580.34440251 26.9954379387 539.616630468 63.375734167 504.782226562 104.608398438 c 1
 524 120.173828125 l 1
 524 636 l 1
 672.25 762.083007812 l 1
 694 744 l 1
280 261 m 1
 333 364 l 1
 592 364 l 1
 592 261 l 1
 280 261 l 1
  Spiro
    280 261 v
    333 364 v
    592 364 v
    592 261 v
    0 0 z
  EndSpiro
182.258789062 98.5419921875 m 1
 157.69140625 113.310546875 l 1
 477.5234375 649.9921875 l 1
 502.065429688 635.185546875 l 1
 182.258789062 98.5419921875 l 1
550 599 m 1
 510.453125 636.897460938 457.479492188 659.568359375 400.708984375 659.568359375 c 0
 295.313476562 659.568359375 213.891601562 584.865234375 213.891601562 479.793945312 c 0
 213.891601562 399.13671875 260.762695312 340.213867188 320 310.5 c 1
 313 301 l 1
 228.453125 325.458007812 158.909179688 401.03515625 158.909179688 508.30859375 c 0
 158.909179688 660.401367188 290.453125 757.682617188 432.112304688 757.682617188 c 0
 510.194335938 757.682617188 588.046875 727.4921875 646 675 c 1
 550 599 l 1
  Spiro
    550 599 v
    507.454 630.73 o
    458.4 651.406 o
    406 659.5 o
    372.997 657.683 o
    340.651 650.494 o
    310.104 637.976 o
    282.262 620.194 o
    258.04 597.601 o
    238.5 571 o
    220.675 529.286 o
    213.945 484.223 o
    218.5 439 o
    239.214 386.934 o
    274.142 342.802 o
    320 310.5 v
    313 301 v
    278.451 314.397 o
    246.648 333.64 o
    218.743 358.023 o
    195.544 386.914 o
    177.598 419.467 o
    165.5 454.5 o
    159.616 490.464 o
    159.682 527.03 o
    165.578 563.015 o
    177.083 597.597 o
    193.773 630.139 o
    215.028 659.78 o
    268.986 708.3 o
    334.246 741.021 o
    405.5 756.5 o
    491.973 751.827 o
    574.315 723.797 o
    646 675 v
    0 0 z
  EndSpiro
EndSplineSet
Colour: 660000
EndChar

StartChar: W
Encoding: 87 87 22
Width: 1001
VWidth: 0
Flags: MW
AnchorPoint: "mark_top" 594 844 basechar 0
LayerCount: 3
Back
SplineSet
957.791992188 692.099609375 m 1
 957.791992188 187.93359375 l 1
 687.973632812 -14.181640625 l 1
 512.791992188 105 l 1
 512.791992188 631.75 l 1
 448.15625 685.436523438 l 1
 395.387695312 645.875 l 1
 395.387695312 673.875 l 1
 543.887695312 785 l 1
 641.791992188 692.25 l 1
 641.791992188 180 l 1
 769.973632812 93.818359375 l 1
 828.791992188 136.333007812 l 1
 828.791992188 631 l 1
 764.15625 684.686523438 l 1
 711.387695312 645.125 l 1
 711.387695312 673.125 l 1
 859.887695312 784.25 l 1
 957.791992188 692.099609375 l 1
  Spiro
    957.793 187.934 v
    687.974 -14.1818 v
    512.793 105 v
    512.793 631.75 v
    448.157 685.436 v
    395.388 645.875 v
    395.388 673.875 v
    543.888 785 v
    641.793 692.25 v
    641.793 180 v
    769.974 93.8182 v
    828.793 136.333 v
    828.793 631 v
    764.157 684.686 v
    711.388 645.125 v
    711.388 673.125 v
    859.888 784.25 v
    957.793 692.1 v
    0 0 z
  EndSpiro
900.711914062 427.71875 m 1
 913.670898438 402.1484375 l 1
 711.458984375 300.063476562 l 1
 698.541992188 325.649414062 l 1
 900.711914062 427.71875 l 1
  Spiro
    900.712 427.717 v
    913.672 402.149 v
    711.46 300.062 v
    698.543 325.649 v
    0 0 z
  EndSpiro
901.754882812 533.205078125 m 1
 914.713867188 507.634765625 l 1
 712.501953125 405.549804688 l 1
 699.584960938 431.135742188 l 1
 901.754882812 533.205078125 l 1
  Spiro
    901.755 533.205 v
    914.715 507.635 v
    712.503 405.55 v
    699.585 431.135 v
    0 0 z
  EndSpiro
722.793945312 132.633789062 m 1
 694.12890625 132.587890625 l 1
 694.129882812 771.0625 l 1
 722.791992188 771.0625 l 1
 722.793945312 132.633789062 l 1
  Spiro
    722.795 132.634 v
    694.129 132.588 v
    694.131 771.062 v
    722.793 771.062 v
    0 0 z
  EndSpiro
585.711914062 427.71875 m 1
 598.670898438 402.1484375 l 1
 396.458984375 300.063476562 l 1
 383.541992188 325.649414062 l 1
 585.711914062 427.71875 l 1
  Spiro
    585.712 427.717 v
    598.672 402.149 v
    396.46 300.062 v
    383.543 325.649 v
    0 0 z
  EndSpiro
586.754882812 533.205078125 m 1
 599.713867188 507.634765625 l 1
 397.501953125 405.549804688 l 1
 384.584960938 431.135742188 l 1
 586.754882812 533.205078125 l 1
  Spiro
    586.755 533.205 v
    599.715 507.635 v
    397.503 405.55 v
    384.585 431.135 v
    0 0 z
  EndSpiro
407.793945312 132.633789062 m 1
 379.12890625 132.587890625 l 1
 379.129882812 771.0625 l 1
 407.791992188 771.0625 l 1
 407.793945312 132.633789062 l 1
  Spiro
    407.795 132.634 v
    379.129 132.588 v
    379.131 771.062 v
    407.793 771.062 v
    0 0 z
  EndSpiro
194.708984375 640.940429688 m 2
 194.72265625 648.948242188 194.642578125 657.013671875 193.065429688 664.865234375 c 0
 191.489257812 672.716796875 188.405273438 680.317382812 183.625 686.743164062 c 0
 178.845703125 693.16796875 172.4140625 698.354492188 165.116210938 701.65234375 c 0
 157.818359375 704.950195312 149.705078125 706.37109375 141.708984375 705.940429688 c 0
 129.030273438 705.2578125 116.713867188 699.93359375 107.2578125 691.461914062 c 0
 97.80078125 682.989257812 91.205078125 671.388671875 88.708984375 658.940429688 c 1
 63.708984375 658.940429688 l 1
 62.1630859375 676.66015625 65.3271484375 694.756835938 72.708984375 710.940429688 c 0
 84.732421875 737.302734375 107.81640625 757.890625 134.461914062 769.2734375 c 0
 161.107421875 780.657226562 191.110351562 783.6015625 219.708984375 778.940429688 c 0
 242.213867188 775.272460938 264.0703125 766.70703125 282.28125 752.984375 c 0
 300.491210938 739.26171875 314.604492188 720.25390625 322.708984375 698.940429688 c 0
 330.600585938 678.1875 332.940429688 655.741210938 333.514648438 633.545898438 c 0
 334.088867188 611.350585938 333.497070312 589.142578125 333.497070312 566.940429688 c 2
 333.5 509.940429688 l 1
 333.5 142.31640625 l 1
 194.491210938 129.375 l 1
 194.487304688 516.940429688 l 1
 194.708984375 640.940429688 l 2
  Spiro
    194.709 640.94 ]
    141.709 705.94 o
    88.709 658.94 v
    63.709 658.94 v
    72.709 710.94 o
    219.709 778.94 o
    322.709 698.94 o
    333.498 566.94 [
    333.5 509.94 v
    333.5 142.316 v
    194.492 129.375 v
    194.488 516.94 v
    141.821 640.94 z
  EndSpiro
68 12.9453125 m 1
 49 12.9453125 l 1
 84.6455078125 94.9619140625 163.747070312 156.549804688 252 171 c 0
 319.723632812 182.088867188 391.513671875 165.97265625 448 127 c 1
 531 197 l 1
 574 149.9453125 l 1
 382 -7.28125 l 1
 340.327148438 36.841796875 280.671875 63.458984375 220 65 c 0
 165.317382812 66.3896484375 110.349609375 47.564453125 68 12.9453125 c 1
  Spiro
    67.9998 12.9456 v
    48.9998 12.9456 v
    252 171 o
    448 127 v
    531 197 v
    574 149.946 v
    382 -7.2817 v
    220 65 o
    -352 -11 z
  EndSpiro
78.328125 301.10546875 m 1
 64.2666015625 326.358398438 59.44140625 356.796875 65.8037109375 384.991210938 c 0
 69.212890625 400.100585938 75.865234375 414.51953125 85.5107421875 426.639648438 c 0
 95.15625 438.759765625 107.784179688 448.405273438 121.803710938 454.991210938 c 0
 146.194335938 466.448242188 173.677734375 468.836914062 200.303710938 472.991210938 c 0
 207.641601562 474.135742188 214.96484375 475.376953125 222.265625 476.741210938 c 1
 230.561523438 358.9453125 l 1
 154.735351562 358.944335938 l 2
 148.607421875 358.944335938 142.447265625 358.879882812 136.40625 357.846679688 c 0
 130.365234375 356.814453125 124.463867188 354.81640625 119.193359375 351.688476562 c 0
 108.653320312 345.432617188 101.05078125 334.647460938 98.1103515625 322.748046875 c 0
 96.3662109375 315.689453125 96.154296875 308.259765625 97.453125 301.10546875 c 1
 78.328125 301.10546875 l 1
  Spiro
    65.8038 384.991 o
    121.804 454.991 o
    200.304 472.991 o
    222.266 476.741 v
    230.562 358.946 v
    154.736 358.944 ]
    98.1108 322.748 o
    97.4533 301.106 v
    78.3283 301.106 v
    24.8781 284.5 z
  EndSpiro
EndSplineSet
Fore
SplineSet
957.791992188 652.099609375 m 1
 957.791992188 187.93359375 l 1
 687.973632812 -14.181640625 l 1
 512.791992188 105 l 1
 512.791992188 591.75 l 1
 448.15625 645.436523438 l 1
 395.387695312 605.875 l 1
 395.387695312 633.875 l 1
 543.887695312 745 l 1
 641.791992188 652.25 l 1
 641.791992188 180 l 1
 769.973632812 93.818359375 l 1
 828.791992188 136.333007812 l 1
 828.791992188 591 l 1
 764.15625 644.686523438 l 1
 711.387695312 605.125 l 1
 711.387695312 633.125 l 1
 859.887695312 744.25 l 1
 957.791992188 652.099609375 l 1
900.711914062 427.71875 m 1
 913.670898438 402.1484375 l 1
 711.458984375 300.063476562 l 1
 698.541992188 325.649414062 l 1
 900.711914062 427.71875 l 1
  Spiro
    900.712 427.719 v
    913.671 402.148 v
    711.459 300.063 v
    698.542 325.649 v
    0 0 z
  EndSpiro
901.754882812 533.205078125 m 1
 914.713867188 507.634765625 l 1
 712.501953125 405.549804688 l 1
 699.584960938 431.135742188 l 1
 901.754882812 533.205078125 l 1
  Spiro
    901.755 533.205 v
    914.714 507.635 v
    712.502 405.55 v
    699.585 431.136 v
    0 0 z
  EndSpiro
722.793945312 132.633789062 m 1
 694.12890625 132.587890625 l 1
 694.129882812 731.0625 l 1
 722.791992188 731.0625 l 1
 722.793945312 132.633789062 l 1
585.711914062 427.71875 m 1
 598.670898438 402.1484375 l 1
 396.458984375 300.063476562 l 1
 383.541992188 325.649414062 l 1
 585.711914062 427.71875 l 1
  Spiro
    585.712 427.719 v
    598.671 402.148 v
    396.459 300.063 v
    383.542 325.649 v
    0 0 z
  EndSpiro
586.754882812 533.205078125 m 1
 599.713867188 507.634765625 l 1
 397.501953125 405.549804688 l 1
 384.584960938 431.135742188 l 1
 586.754882812 533.205078125 l 1
  Spiro
    586.755 533.205 v
    599.714 507.635 v
    397.502 405.55 v
    384.585 431.136 v
    0 0 z
  EndSpiro
407.793945312 132.633789062 m 1
 379.12890625 132.587890625 l 1
 379.129882812 731.0625 l 1
 407.791992188 731.0625 l 1
 407.793945312 132.633789062 l 1
144.5 666.015625 m 0
 115.586914062 666.015625 93.669921875 643.678710938 88.708984375 618.940429688 c 1
 63.708984375 618.940429688 l 1
 57.76953125 687.021484375 116.240234375 741.059570312 193.59375 741.059570312 c 0
 258.0703125 741.059570312 304.440429688 706.984375 322.708984375 658.940429688 c 0
 333.141601562 631.50390625 333.765625 604.755859375 333.765625 571.791015625 c 0
 333.765625 556.841796875 333.497070312 541.889648438 333.497070312 526.940429688 c 2
 333.5 509.940429688 l 1
 333.5 142.31640625 l 1
 194.491210938 129.375 l 1
 194.487304688 516.940429688 l 1
 194.708984375 600.940429688 l 2
 194.715820312 604.958984375 197.833984375 666.015625 144.5 666.015625 c 0
382 -7.28125 m 1
 339.244244152 37.9883715583 278.797996586 65.0718279984 214.339508332 65.0718279984 c 0
 161.539390929 65.0718279984 108.888456879 46.3700184069 68 12.9453125 c 1
 49 12.9453125 l 1
 76.4561972457 76.119163235 158.159744537 174.427630915 294.455390288 174.427630915 c 0
 348.821045789 174.427630915 403.219547734 157.89620499 448 127 c 1
 531 197 l 1
 574 149.9453125 l 1
 382 -7.28125 l 1
  Spiro
    68 12.9453 v
    49 12.9453 v
    97.7995 87.0977 o
    168.146 141.869 o
    252 171 o
    320.293 173.188 o
    387.194 158.17 o
    448 127 v
    531 197 v
    574 149.945 v
    382 -7.28125 v
    335.013 30.6945 o
    279.647 55.3981 o
    220 65 o
    165.754 59.8267 o
    114.028 42.1125 o
    0 0 z
  EndSpiro
154.735351562 358.944335938 m 2
 117.10867959 358.944335938 90.6512627865 338.571966927 97.453125 301.10546875 c 1
 78.328125 301.10546875 l 1
 68.3693677984 318.990287313 63.0434248851 339.476104381 63.0434248851 359.923619366 c 0
 63.0434248851 407.386053624 88.6338873995 439.409064801 121.803710938 454.991210938 c 0
 152.674732764 469.492285092 187.820888696 470.30470791 222.265625 476.741210938 c 1
 230.561523438 358.9453125 l 1
 154.735351562 358.944335938 l 2
  Spiro
    78.3281 301.105 v
    67.4253 327.784 o
    63.0974 356.353 o
    65.8037 384.991 o
    70.2791 399.796 o
    76.8798 413.826 o
    85.5107 426.64 o
    96.08 437.903 o
    108.32 447.416 o
    121.804 454.991 o
    147.053 463.82 o
    173.565 469.028 o
    200.304 472.991 o
    207.629 474.168 o
    214.965 475.418 o
    222.266 476.741 v
    230.562 358.945 v
    154.735 358.944 ]
    148.608 358.89 o
    142.475 358.59 o
    136.406 357.847 o
    130.436 356.488 o
    124.65 354.443 o
    119.193 351.688 o
    109.705 344.058 o
    102.535 334.139 o
    98.1104 322.748 o
    96.8769 315.597 o
    96.659 308.32 o
    97.4531 301.105 v
    0 0 z
  EndSpiro
EndSplineSet
Colour: 660000
EndChar

StartChar: l
Encoding: 108 108 23
Width: 287
VWidth: 0
Flags: MW
AnchorPoint: "middledot" 340 375 basechar 0
AnchorPoint: "cedilla" 100 116 basechar 0
AnchorPoint: "mark_top" 160 816 basechar 0
LayerCount: 3
Back
SplineSet
216.326171875 119.6328125 m 1
 254.673828125 81.2861328125 l 1
 283.435546875 105.252929688 l 1
 297.815429688 86.0791015625 l 1
 173.185546875 -0.203125 l 1
 67.728515625 90.8720703125 l 1
 29.380859375 66.9052734375 l 1
 15 86.0791015625 l 1
 82.109375 129.220703125 l 1
 82.109375 584.600585938 l 2
 82.109375 589.59765625 82.0244140625 594.6328125 80.97265625 599.517578125 c 0
 79.919921875 604.403320312 77.9130859375 609.088867188 75.021484375 613.1640625 c 0
 70.521484375 619.504882812 64.0712890625 624.229492188 57.232421875 627.930664062 c 0
 49.921875 631.88671875 42.12890625 634.909179688 34.17578125 637.330078125 c 1
 34.173828125 651.709960938 l 1
 197.15234375 766.752929688 l 1
 216.326171875 766.752929688 l 1
 216.326171875 119.6328125 l 1
  Spiro
    216.326 119.633 v
    254.674 81.2861 v
    283.435 105.253 v
    297.815 86.0791 v
    173.185 -0.203125 v
    67.7285 90.8721 v
    29.3809 66.9053 v
    15 86.0791 v
    82.1094 129.221 v
    82.1094 584.601 ]
    75.0212 613.164 o
    57.2326 627.93 o
    34.1762 637.33 v
    34.1739 651.71 v
    197.152 766.753 v
    216.326 766.753 v
    206 119.633 z
  EndSpiro
EndSplineSet
Fore
SplineSet
216.326171875 119.6328125 m 1
 254.673828125 81.2861328125 l 1
 283.435546875 105.252929688 l 1
 297.815429688 86.0791015625 l 1
 173.185546875 -0.203125 l 1
 67.728515625 90.8720703125 l 1
 29.380859375 66.9052734375 l 1
 15 86.0791015625 l 1
 82.109375 129.220703125 l 1
 82.109375 564.600585938 l 2
 82.109375 612 78 623 34.17578125 637.330078125 c 1
 34.173828125 651.709960938 l 1
 197.15234375 766.752929688 l 1
 216.326171875 766.752929688 l 1
 216.326171875 119.6328125 l 1
EndSplineSet
Colour: 660000
EndChar

StartChar: X
Encoding: 88 88 24
Width: 736
VWidth: 0
Flags: MW
LayerCount: 3
Back
SplineSet
707 107 m 1
 715.5 93 l 1
 557.5 -9 l 1
 258 555 l 2
 242.454618583 584.274107242 227.049091213 613.683265283 209.417 641.75 c 0
 204.009507965 650.35763721 197.92247366 658.700277233 190.046947865 665.12744472 c 0
 182.171422071 671.554612207 172.330344316 675.802970187 162.167 676 c 0
 155.324298846 676.132654772 148.484038761 674.477557474 142.349063731 671.444038437 c 0
 136.214088702 668.410519399 130.778038223 664.057517462 126.167 659 c 0
 115.863253582 647.698558781 109.437311924 633.097989087 107 618 c 1
 48 618 l 1
 56.5355474696 667.989973226 88.0461761143 713.703471393 132 739 c 0
 154.231853186 751.794989386 179.440349894 759.444164774 205.051049454 760.87912733 c 0
 230.661749014 762.314089885 256.585832729 757.475868484 280 747 c 0
 308.32817442 734.325527055 332.610875039 713.463545435 351.285071882 688.676409605 c 0
 369.959268725 663.889273775 382.992557617 635.402317078 395.5 607 c 2
 491.5 389 l 2
 539.052877424 281.01534085 593.518419087 174.847262307 670 85 c 1
 707 107 l 1
  Spiro
    707 107 v
    715.5 93 v
    557.5 -9 v
    258 555 ]
    209.417 641.75 o
    162.167 676 o
    126.167 659 o
    107 618 v
    48 618 v
    132 739 o
    280 747 o
    395.5 607 [
    491.5 389 ]
    670 85 v
    611.333 130 z
  EndSpiro
89.1669921875 373 m 1
 186.318359375 480 l 1
 665.318359375 480 l 1
 568.166992188 373 l 1
 89.1669921875 373 l 1
  Spiro
    89.1669 373 v
    186.319 480 v
    665.319 480 v
    568.167 373 v
    0 0 z
  EndSpiro
189.694335938 122.546875 m 1
 166.685546875 139.642578125 l 1
 548.284179688 651.533203125 l 1
 571.264648438 634.40234375 l 1
 189.694335938 122.546875 l 1
  Spiro
    189.696 122.546 v
    166.686 139.642 v
    548.285 651.533 v
    571.265 634.402 v
    0 0 z
  EndSpiro
407.038085938 107.143554688 m 1
 440.573242188 145.474609375 l 1
 454.953125 131.09375 l 1
 326.0546875 -12.5068359375 l 1
 300.24609375 12.484375 269.590820312 33.5634765625 234.953125 43.09375 c 0
 217.720703125 47.833984375 199.138671875 49.189453125 182.059570312 43.9228515625 c 0
 173.51953125 41.2890625 165.458984375 36.9912109375 158.74609375 31.091796875 c 0
 152.034179688 25.193359375 146.711914062 17.689453125 143.543945312 9.3330078125 c 0
 138.306640625 -4.4794921875 139.270507812 -20.4541015625 145.876953125 -33.6669921875 c 0
 151.2734375 -44.458984375 160.262695312 -53.39453125 171.028320312 -58.84375 c 0
 181.793945312 -64.2919921875 194.295898438 -66.2373046875 206.2109375 -64.3330078125 c 1
 201.543945312 -83 l 1
 179.935546875 -86.2421875 157.530273438 -84.0419921875 136.969726562 -76.6455078125 c 0
 116.409179688 -69.2490234375 97.72265625 -56.66796875 83.2109375 -40.3330078125 c 0
 63.01953125 -17.607421875 51.193359375 12.49609375 51.025390625 42.8955078125 c 0
 50.8564453125 73.2939453125 62.4755859375 103.5 82.5439453125 126.333007812 c 0
 100.943359375 147.268554688 125.955078125 161.905273438 152.705078125 169.733398438 c 0
 179.454101562 177.5625 207.837890625 178.905273438 235.556640625 175.985351562 c 0
 297.479492188 169.463867188 356.538085938 143.567382812 407.038085938 107.143554688 c 1
  Spiro
    407.038 107.143 v
    440.574 145.475 v
    454.953 131.093 v
    326.054 -12.5065 v
    234.953 43.0934 o
    143.544 9.3333 o
    145.877 -33.6667 o
    206.211 -64.3333 v
    201.544 -83 v
    83.2101 -40.3333 o
    82.5435 126.333 o
    235.556 175.986 o
    0 0 z
  EndSpiro
416.666992188 654 m 1
 373.666992188 620 l 1
 359.288085938 634.380859375 l 1
 508.5 761.333007812 l 1
 528.166992188 761 l 1
 534.71484375 752.254882812 542.611328125 744.518554688 551.5 738.166992188 c 0
 571.9921875 723.525390625 598.124023438 716.481445312 623 720.416992188 c 0
 648.512695312 724.454101562 671.95703125 740.39453125 684.750976562 762.833984375 c 1
 698.416992188 762.5 l 1
 703.688476562 719.557617188 689.447265625 674.517578125 660.166992188 642.666992188 c 0
 633.53125 613.693359375 594.685546875 596.477539062 555.333984375 595.833007812 c 0
 530.778320312 595.430664062 506.3125 600.995117188 483.666992188 610.5 c 0
 458.989257812 620.858398438 436.278320312 635.788085938 416.666992188 654 c 1
  Spiro
    416.667 654 v
    373.667 620 v
    359.288 634.381 v
    508.5 761.333 v
    528.167 761 v
    551.5 738.167 o
    623 720.417 o
    684.751 762.834 v
    698.417 762.5 v
    660.167 642.667 o
    555.334 595.833 o
    483.667 610.5 o
    436.333 632.333 z
  EndSpiro
EndSplineSet
Fore
SplineSet
48 608 m 1
 60.5634765625 681.58203125 123.34765625 751.244140625 213.8984375 751.125976562 c 0
 311 751 358 668 395.5 597 c 2
 670 85 l 1
 707 107 l 1
 715.5 93 l 1
 559.5 -7 l 1
 260 547 l 2
 208.1484375 644.64453125 192.9609375 666.0078125 161.40234375 666.0078125 c 0
 129.424804688 666.0078125 111.263671875 634.411132812 107 608 c 1
 48 608 l 1
89.1669921875 373 m 1
 186.318359375 480 l 1
 665.318359375 480 l 1
 568.166992188 373 l 1
 89.1669921875 373 l 1
  Spiro
    89.167 373 v
    186.318 480 v
    665.318 480 v
    568.167 373 v
    0 0 z
  EndSpiro
189.694335938 122.546875 m 1
 166.685546875 139.642578125 l 1
 538.284179688 641.533203125 l 1
 561.264648438 624.40234375 l 1
 189.694335938 122.546875 l 1
51.0235734178 43.549639685 m 0
 51.0235734178 127.034920759 123.584045629 177.406307023 209.120107819 177.406307023 c 0
 217.950298854 177.406307023 226.786755439 176.909180364 235.556640625 175.985351562 c 0
 297.479492188 169.463867188 356.538085938 143.567382812 407.038085938 107.143554688 c 1
 440.573242188 145.474609375 l 1
 454.953125 131.09375 l 1
 326.0546875 -12.5068359375 l 1
 318.002102146 -4.70928365261 263.787237124 47.3050616434 205.574174264 47.3050616434 c 0
 169.841864971 47.3050616434 140.18319296 26.3465839076 140.18319296 -9.32112070361 c 0
 140.18319296 -45.1301501851 171.935052244 -69.8110814337 206.2109375 -64.3330078125 c 1
 201.543945312 -83 l 1
 127.644191542 -94.0881358757 51.0235734178 -41.3375786612 51.0235734178 43.549639685 c 0
  Spiro
    407.038 107.144 v
    440.573 145.475 v
    454.953 131.094 v
    326.055 -12.5068 v
    298.691 10.876 o
    268.199 30.0131 o
    234.953 43.0938 o
    217.394 46.5837 o
    199.516 47.1008 o
    182.06 43.9229 o
    173.72 40.7404 o
    165.869 36.4502 o
    158.746 31.0918 o
    152.531 24.693 o
    147.397 17.3697 o
    143.544 9.33301 o
    140.354 -5.00312 o
    141.175 -19.7304 o
    145.877 -33.667 o
    152.396 -43.7704 o
    160.931 -52.3004 o
    171.028 -58.8438 o
    182.275 -63.1084 o
    194.198 -64.9676 o
    206.211 -64.333 v
    201.544 -83 v
    179.79 -84.4375 o
    158.026 -82.2969 o
    136.97 -76.6455 o
    117.138 -67.5845 o
    99.012 -55.35 o
    83.2109 -40.333 o
    65.9442 -15.4373 o
    54.9499 12.8864 o
    51.0254 42.8955 o
    54.6548 72.9344 o
    65.4297 101.335 o
    82.5439 126.333 o
    102.945 145.133 o
    126.74 159.667 o
    152.705 169.733 o
    179.886 175.479 o
    207.729 177.402 o
    235.557 175.985 o
    296.254 163.352 o
    353.952 139.702 o
    0 0 z
  EndSpiro
552.836278608 595.812581815 m 0
 495.321730717 595.812581815 448.869140625 614.095703125 416.666992188 644 c 1
 373.666992188 610 l 1
 359.288085938 624.380859375 l 1
 508.5 751.333007812 l 1
 528.166992188 751 l 1
 544.771484375 728.823242188 575.032226562 709.338867188 609.149414062 709.338867188 c 0
 643.6640625 709.338867188 670.197265625 727.307617188 684.750976562 752.833984375 c 1
 698.416992188 752.5 l 1
 708.828125 667.686523438 643.942529436 595.812581815 552.836278608 595.812581815 c 0
EndSplineSet
Colour: 660000
EndChar

StartChar: d
Encoding: 100 100 25
Width: 475
VWidth: 0
InSpiro: 1
Flags: MW
AnchorPoint: "mark_top" 267.588 680 basechar 0
LayerCount: 3
Back
SplineSet
402.051757812 390.538085938 m 1
 384.415039062 412.28515625 l 1
 443.702148438 460.366210938 l 1
 461.338867188 438.618164062 l 1
 402.051757812 390.538085938 l 1
  Spiro
    402.05 390.536 v
    384.414 412.283 v
    443.701 460.364 v
    461.338 438.616 v
    0 0 z
  EndSpiro
61.849609375 733.84375 m 1
 418.588867188 419.97265625 l 1
 418.088867188 120.5 l 1
 198.838867188 -9 l 1
 54.58984375 89.91796875 l 1
 54.587890625 397.333984375 l 1
 183.588867188 476.66796875 l 1
 183.588867188 142.375 l 1
 289.590820312 68.6611328125 l 1
 289.588867188 369.166992188 l 1
 82.255859375 557.974609375 l 1
 61.8388671875 554.5 l 1
 61.849609375 733.84375 l 1
  Spiro
    61.8491 733.843 v
    418.588 419.973 v
    418.088 120.5 v
    198.838 -9 v
    54.5892 89.918 v
    54.5872 397.334 v
    183.588 476.668 v
    183.588 142.375 v
    289.59 68.6611 v
    289.588 369.167 v
    82.255 557.974 v
    61.8382 554.5 v
    0 0 z
  EndSpiro
EndSplineSet
Fore
SplineSet
402.051757812 390.538085938 m 1
 384.415039062 412.28515625 l 1
 443.702148438 460.366210938 l 1
 461.338867188 438.618164062 l 1
 402.051757812 390.538085938 l 1
  Spiro
    402.052 390.538 v
    384.415 412.285 v
    443.702 460.366 v
    461.339 438.618 v
    0 0 z
  EndSpiro
61.849609375 733.84375 m 1
 418.588867188 419.97265625 l 1
 418.088867188 120.5 l 1
 198.838867188 -9 l 1
 54.58984375 89.91796875 l 1
 54.587890625 397.333984375 l 1
 183.588867188 476.66796875 l 1
 183.588867188 142.375 l 1
 289.590820312 68.6611328125 l 1
 289.588867188 369.166992188 l 1
 82.255859375 557.974609375 l 1
 61.8388671875 554.5 l 1
 61.849609375 733.84375 l 1
  Spiro
    61.8496 733.844 v
    418.589 419.973 v
    418.089 120.5 v
    198.839 -9 v
    54.5898 89.918 v
    54.5879 397.334 v
    183.589 476.668 v
    183.589 142.375 v
    289.591 68.6611 v
    289.589 369.167 v
    82.2559 557.975 v
    61.8389 554.5 v
    0 0 z
  EndSpiro
EndSplineSet
Colour: ff00
EndChar

StartChar: S
Encoding: 83 83 26
Width: 670
VWidth: 0
Flags: MW
AnchorPoint: "cedilla" 298 36 basechar 0
AnchorPoint: "mark_top" 426 808 basechar 0
LayerCount: 3
Back
SplineSet
581.861328125 12.150390625 m 1
 580.712890625 7.626953125 579.4296875 3.1376953125 578.014648438 -1.3095703125 c 0
 559.241210938 -60.2802734375 516.252929688 -110.225585938 463.053710938 -141.84375 c 0
 409.853515625 -173.462890625 347.274414062 -188.42578125 285.404296875 -187 c 0
 245.978515625 -186.091796875 206.500976562 -178.352539062 170.506835938 -162.239257812 c 0
 134.512695312 -146.125 102.11328125 -121.241210938 79.404296875 -89 c 0
 61.40234375 -63.44140625 49.7177734375 -33.408203125 46.169921875 -2.3486328125 c 0
 42.6220703125 28.7119140625 47.27734375 60.5029296875 58.3037109375 89.755859375 c 0
 70.4267578125 121.919921875 89.861328125 150.875 111.645507812 177.463867188 c 0
 133.4296875 204.052734375 157.317382812 228.8515625 181.755859375 253.024414062 c 0
 196.134765625 267.247070312 210.994140625 280.975585938 226.081054688 294.444335938 c 2
 459.081054688 502.440429688 l 2
 498.672851562 537.783203125 540.29296875 571.552734375 572.971679688 613.370117188 c 0
 604.120117188 653.229492188 628.280273438 699.555664062 637.430664062 749.307617188 c 0
 639.715820312 761.736328125 640.37109375 774.40234375 640.404296875 787.0390625 c 2
 640.44140625 801.040039062 l 1
 668.443359375 800.9609375 l 1
 668.404296875 786.9609375 l 2
 668.365234375 772.915039062 667.633789062 758.836914062 665.106445312 745.01953125 c 0
 655.109375 690.377929688 629.0859375 639.247070312 594.76171875 595.573242188 c 0
 561.059570312 552.69140625 518.4140625 517.876953125 477.727539062 481.555664062 c 2
 244.727539062 273.555664062 l 2
 229.979492188 260.390625 215.448242188 246.977539062 201.401367188 233.06640625 c 0
 178.297851562 210.18359375 155.780273438 186.651367188 135.103515625 161.552734375 c 0
 114.427734375 136.455078125 95.62109375 109.313476562 84.111328125 78.900390625 c 0
 75.5771484375 56.34765625 71.310546875 31.943359375 73.81640625 7.9599609375 c 0
 76.3232421875 -16.0224609375 85.8369140625 -39.3017578125 101.302734375 -57.8017578125 c 0
 123.165039062 -83.9541015625 155.908203125 -99.271484375 189.432617188 -105.434570312 c 0
 222.958007812 -111.59765625 257.385742188 -110.15234375 291.404296875 -108 c 0
 341.577148438 -104.826171875 392.34375 -101.8203125 440.529296875 -87.482421875 c 0
 464.622070312 -80.3134765625 487.923828125 -69.6591796875 507.55078125 -53.955078125 c 0
 527.177734375 -38.25 542.83984375 -17.353515625 551.094726562 6.388671875 c 0
 552.627929688 10.798828125 553.913085938 15.2958984375 554.94140625 19.849609375 c 1
 581.861328125 12.150390625 l 1
  Spiro
    581.862 12.15 v
    578.015 -1.30957 o
    285.405 -187 o
    79.405 -89 o
    58.3038 89.7558 o
    181.756 253.024 o
    226.082 294.444 [
    459.082 502.44 ]
    572.972 613.37 o
    637.431 749.308 o
    640.405 787.039 [
    640.442 801.04 v
    668.444 800.961 v
    668.405 786.961 ]
    665.107 745.02 o
    594.762 595.573 o
    477.728 481.556 [
    244.728 273.556 ]
    201.402 233.066 o
    84.112 78.9 o
    101.303 -57.8022 o
    291.405 -108 o
    551.095 6.38867 o
    554.942 19.85 v
    554.645 11.9375 z
  EndSpiro
281.70703125 664 m 1
 309.70703125 664 l 1
 309.70703125 362.747070312 l 1
 281.70703125 362.747070312 l 1
 281.70703125 664 l 1
  Spiro
    281.708 664 v
    309.708 664 v
    309.708 362.747 v
    281.708 362.747 v
    0 0 z
  EndSpiro
432.70703125 422 m 1
 460.70703125 422 l 1
 460.70703125 120.747070312 l 1
 432.70703125 120.747070312 l 1
 432.70703125 422 l 1
  Spiro
    432.708 422 v
    460.708 422 v
    460.708 120.747 v
    432.708 120.747 v
    0 0 z
  EndSpiro
649.737304688 169 m 1
 375.571289062 -3.8330078125 l 1
 344.563476562 30.2431640625 304.8984375 56.7783203125 260.904296875 70.4580078125 c 0
 238.354492188 77.470703125 214.646484375 80.6494140625 191.040039062 80 c 0
 162.643554688 79.21875 133.934570312 76.4462890625 106.904296875 67.7080078125 c 0
 99.7939453125 65.41015625 92.8583984375 62.3427734375 86.8837890625 57.85546875 c 0
 80.9091796875 53.3681640625 75.966796875 47.36328125 73.3740234375 40.35546875 c 0
 71.2158203125 34.5244140625 70.7216796875 28.0791015625 72.029296875 22 c 1
 47.7373046875 22 l 1
 54.2724609375 64.7431640625 74.8857421875 105.177734375 105.479492188 135.735351562 c 0
 136.072265625 166.29296875 176.3046875 186.681640625 218.737304688 195 c 0
 271.982421875 205.438476562 327.715820312 197.4609375 378.737304688 179 c 0
 422.430664062 163.190429688 463.329101562 139.870117188 499.737304688 111 c 1
 518.737304688 120 l 1
 518.737304688 350 l 1
 385.737304688 415 l 1
 479.737304688 509 l 1
 513.05859375 499.635742188 545.326171875 486.52734375 575.737304688 470 c 0
 601.934570312 455.762695312 626.75390625 438.993164062 649.737304688 420 c 1
 649.737304688 169 l 1
  Spiro
    375.572 -3.83337 v
    260.905 70.4583 o
    191.041 80 o
    106.905 67.7083 o
    73.3745 40.3556 o
    72.03 22 v
    47.7384 22 v
    218.738 195 o
    378.738 179 o
    499.738 111 v
    518.738 120 v
    518.738 350 v
    385.738 415 v
    479.738 509 v
    575.738 470 o
    649.738 420 v
    649.738 169 v
    78.3331 595 z
  EndSpiro
95.404296875 595 m 1
 369.571289062 767.833007812 l 1
 398.818359375 740.833007812 434.274414062 720.24609375 472.737304688 710 c 0
 500.995117188 702.47265625 531.25390625 700.783203125 559.430664062 708.609375 c 0
 587.606445312 716.434570312 613.302734375 734.567382812 627.737304688 760 c 0
 634.854492188 772.538085938 639.22265625 786.630859375 640.404296875 801 c 1
 655.404296875 801 l 1
 664.0234375 755.46484375 653.8671875 706.735351562 628.0625 668.241210938 c 0
 602.2578125 629.747070312 561.451171875 602.181640625 516.737304688 590 c 0
 464.498046875 575.768554688 408.3125 581.521484375 356.737304688 598 c 0
 317.168945312 610.641601562 279.630859375 629.461914062 245.404296875 653 c 1
 226.404296875 644 l 1
 226.404296875 468 l 1
 342.404296875 388 l 1
 248.404296875 294 l 1
 95.404296875 394 l 1
 95.404296875 595 l 1
  Spiro
    369.572 767.833 v
    472.738 710 o
    627.738 760 o
    640.405 801 v
    655.405 801 v
    516.738 590 o
    356.738 598 o
    245.405 653 v
    226.405 644 v
    226.405 468 v
    342.405 388 v
    248.405 294 v
    95.4051 394 v
    95.4051 595 v
    78.3331 595 z
  EndSpiro
EndSplineSet
Fore
SplineSet
581.861328125 12.150390625 m 1
 552.289750063 -104.325416845 425 -187.093008048 293.478486379 -187.093008048 c 0
 162.409149966 -187.093008048 44.9998552552 -106 44.9998552552 18.3856256604 c 0
 44.9998552552 132.126768146 154.998391843 230.985724641 226.081054688 294.444335938 c 2
 459.081054688 502.440429688 l 2
 535.998851595 571.103346858 640.064041202 658.664178555 640.404296875 787.0390625 c 2
 640.44140625 801.040039062 l 1
 668.443359375 800.9609375 l 1
 668.404296875 786.9609375 l 2
 668.007123014 644.613825674 560.158524741 555.142675328 477.727539062 481.555664062 c 2
 244.727539062 273.555664062 l 2
 181.067965411 216.729103844 73.1042812686 121.053773609 73.1042812686 21.7909479347 c 0
 73.1042812686 -90.5681907718 202 -111 296.404296875 -111 c 0
 397 -111 525.390744975 -75.4397862367 554.94140625 19.849609375 c 1
 581.861328125 12.150390625 l 1
281.70703125 664 m 1
 309.70703125 664 l 1
 309.70703125 362.747070312 l 1
 281.70703125 362.747070312 l 1
 281.70703125 664 l 1
  Spiro
    281.707 664 v
    309.707 664 v
    309.707 362.747 v
    281.707 362.747 v
    0 0 z
  EndSpiro
432.70703125 422 m 1
 460.70703125 422 l 1
 460.70703125 120.747070312 l 1
 432.70703125 120.747070312 l 1
 432.70703125 422 l 1
  Spiro
    432.707 422 v
    460.707 422 v
    460.707 120.747 v
    432.707 120.747 v
    0 0 z
  EndSpiro
479.737304688 509 m 1
 544.759009964 490.726997103 602.742058466 458.836224505 649.737304688 420 c 1
 649.737304688 169 l 1
 375.571289062 -3.8330078125 l 1
 333.702881813 42.1784624115 272 81.0830078125 197.047851562 81.0830078125 c 0
 141 81.0830078125 65.747 68 75.747 -5 c 1
 47.7373046875 22 l 1
 63.3485351336 124.105192079 150.551002999 199.636979888 267.655892839 199.636979888 c 0
 363.916771311 199.636979888 441.551047343 157.139164365 499.737304688 111 c 1
 518.737304688 120 l 1
 518.737304688 350 l 1
 385.737304688 415 l 1
 479.737304688 509 l 1
95.404296875 595 m 1
 369.571289062 767.833007812 l 1
 407.545033892 732.776809039 462 703.489647133 520.461064111 703.489647133 c 0
 581 703.489647133 635.409094355 740.256686045 640.404296875 801 c 1
 658 801 l 1
 658.410803579 768.668283899 l 2
 658.410803579 655.657763035 564 581.918733794 454.067332913 581.918733794 c 0
 369.023004042 581.918733794 300.032505293 618.431416699 245.404296875 653 c 1
 226.404296875 640 l 1
 226.404296875 468 l 1
 342.404296875 388 l 1
 248.404296875 294 l 1
 95.404296875 394 l 1
 95.404296875 595 l 1
EndSplineSet
Colour: 660000
EndChar

StartChar: u
Encoding: 117 117 27
Width: 521
VWidth: 0
Flags: MW
AnchorPoint: "ogonek" 468 12 basechar 0
AnchorPoint: "mark_top" 280 572 basechar 0
LayerCount: 3
Back
SplineSet
363.190429688 510 m 1
 429.940429688 452.5 l 1
 464.913085938 476.796875 l 1
 479.293945312 457.622070312 l 1
 436.153320312 424.068359375 l 1
 436.153320312 185 l 1
 436.688476562 143.5 l 2
 436.893554688 127.627929688 437.647460938 111.225585938 444.690429688 97 c 0
 449.03515625 88.224609375 455.588867188 80.53125 463.668945312 75 c 1
 500.833007812 105.5 l 1
 519.333007812 80.5 l 1
 399.333007812 -2 l 1
 383.1484375 0.142578125 367.73046875 7.4736328125 355.690429688 18.5 c 0
 339.490234375 33.3369140625 329.916015625 54.3291015625 325.52734375 75.8544921875 c 0
 321.138671875 97.37890625 321.249023438 119.532226562 321.190429688 141.5 c 2
 321.109375 172 l 1
 321.112304688 377.509765625 l 1
 269.190429688 423.5 l 1
 363.190429688 510 l 1
  Spiro
    363.191 510 v
    429.941 452.5 v
    464.914 476.797 v
    479.294 457.622 v
    436.154 424.068 v
    436.154 185 v
    436.689 143.5 ]
    444.691 97 o
    463.669 75 v
    500.834 105.5 v
    519.334 80.5 v
    399.334 -2 v
    355.691 18.5 o
    321.191 141.5 [
    321.11 172 v
    321.113 377.51 v
    269.191 423.5 v
    751 510 z
  EndSpiro
60.0830078125 110 m 1
 91.5830078125 136 l 1
 91.642578125 370.688476562 l 2
 91.64453125 377.7890625 91.583984375 384.93359375 90.279296875 391.9140625 c 0
 88.974609375 398.893554688 86.40625 405.696289062 82.2744140625 411.470703125 c 0
 78.142578125 417.245117188 72.4580078125 421.931640625 65.916015625 424.69140625 c 0
 59.373046875 427.451171875 52.01953125 428.262695312 45.037109375 426.967773438 c 0
 42.0693359375 426.41796875 39.16796875 425.5390625 36.3330078125 424.5 c 0
 27.9072265625 421.412109375 20.0849609375 416.744140625 13.1904296875 411 c 1
 3 425.333007812 l 1
 132 508.666992188 l 1
 141.85546875 504.998046875 151.232421875 500.05078125 159.833007812 494 c 0
 172.728515625 484.927734375 183.90625 473.415039062 192.583007812 460.25 c 0
 199.497070312 449.760742188 204.748046875 438.145507812 207.704101562 425.935546875 c 0
 210.66015625 413.7265625 211.065429688 401.0625 211.065429688 388.5 c 2
 211.065429688 148 l 1
 273.833007812 88.5 l 1
 341.333007812 138.5 l 1
 341.333007812 110 l 1
 196.333007812 -4 l 1
 60.0830078125 110 l 1
  Spiro
    60.0833 110 v
    91.584 136 v
    91.643 370.688 ]
    45.0375 426.968 ]
    36.3333 424.5 o
    13.1905 411 v
    3 425.333 v
    132 508.667 v
    159.834 494 o
    192.584 460.25 o
    211.066 388.5 [
    211.066 148 v
    273.834 88.5 v
    341.334 138.5 v
    341.334 110 v
    196.334 -4 v
    113.833 89 z
  EndSpiro
EndSplineSet
Fore
SplineSet
420.006835938 409.541992188 m 1
 402.370117188 431.2890625 l 1
 461.657226562 479.370117188 l 1
 479.293945312 457.622070312 l 1
 420.006835938 409.541992188 l 1
  Spiro
    420.007 409.542 v
    402.37 431.289 v
    461.657 479.37 v
    479.294 457.622 v
    0 0 z
  EndSpiro
436.153320312 447 m 1
 436.153320312 185 l 1
 436.688476562 143.5 l 2
 437.079804536 113.213078459 444.000824983 88.4638909306 463.668945312 75 c 1
 500.833007812 105.5 l 1
 519.333007812 80.5 l 1
 399.333007812 -2 l 1
 358 0 321.321240381 40.0002099568 321.190429688 121.5 c 2
 321.109375 172 l 1
 321.112304688 377.509765625 l 1
 269.190429688 423.5 l 1
 363.190429688 510 l 1
 436.153320312 447 l 1
51.6239174563 427.569481842 m 0
 35.3152560617 427.569481842 22.8885610461 419.079944568 13.1904296875 411 c 1
 3 425.333007812 l 1
 132 508.666992188 l 1
 179.175218772 491.104834345 211.065429688 454 211.065429688 388.5 c 2
 211.065429688 148 l 1
 273.833007812 88.5 l 1
 341.333007812 138.5 l 1
 341.333007812 110 l 1
 196.333007812 -4 l 1
 60.0830078125 110 l 1
 91.5830078125 136 l 1
 91.642578125 370.688476562 l 2
 91.6426051165 370.786603985 91.6426201715 370.884739802 91.6426201715 370.982883461 c 0
 91.6426201715 401.427500234 81.6997326711 427.569481842 51.6239174563 427.569481842 c 0
  Spiro
    60.083 110 v
    91.583 136 v
    91.6426 370.688 ]
    91.5801 377.789 o
    91.2124 384.894 o
    90.2793 391.914 o
    88.5445 398.796 o
    85.8931 405.391 o
    82.2744 411.471 o
    77.6558 416.846 o
    72.1406 421.324 o
    65.916 424.691 o
    59.1536 426.794 o
    52.0924 427.566 o
    45.0371 426.968 o
    42.0944 426.315 o
    39.1872 425.479 o
    36.333 424.5 o
    28.1284 420.908 o
    20.3747 416.362 o
    13.1904 411 v
    3 425.333 v
    132 508.667 v
    141.675 504.583 o
    150.994 499.671 o
    159.833 494 o
    172.115 484.154 o
    183.112 472.823 o
    192.583 460.25 o
    198.914 449.416 o
    204.011 437.916 o
    207.704 425.936 o
    209.888 413.608 o
    210.851 401.063 o
    211.065 388.5 [
    211.065 148 v
    273.833 88.5 v
    341.333 138.5 v
    341.333 110 v
    196.333 -4 v
    0 0 z
  EndSpiro
EndSplineSet
Colour: 660000
EndChar

StartChar: U
Encoding: 85 85 28
Width: 836
VWidth: 0
Flags: MW
AnchorPoint: "ogonek" 434 32 basechar 0
AnchorPoint: "mark_top" 482 818 basechar 0
LayerCount: 3
Back
SplineSet
752.212890625 651.922851562 m 1
 734.576171875 673.669921875 l 1
 793.86328125 721.750976562 l 1
 811.5 700.002929688 l 1
 752.212890625 651.922851562 l 1
  Spiro
    752.212 651.92 v
    734.576 673.667 v
    793.863 721.748 v
    811.5 700 v
    0 0 z
  EndSpiro
628.491210938 125.8671875 m 1
 628.491210938 610.388671875 l 1
 573 671 l 1
 525.5 641.5 l 1
 513.952148438 662.833007812 l 1
 667 761 l 1
 767.5 677.5 l 1
 767.5 138.807617188 l 1
 816 97 l 1
 847.120117188 123.379882812 l 1
 861.5 109 l 1
 729.196289062 -0.203125 l 1
 599.5 109 l 1
 565.9453125 85.033203125 l 1
 556.359375 99.4130859375 l 1
 628.491210938 125.8671875 l 1
  Spiro
    628.491 125.867 v
    628.491 610.389 v
    573 671 v
    525.5 641.5 v
    513.952 662.833 v
    667 761 v
    767.5 677.5 v
    767.5 138.808 v
    816 97 v
    847.12 123.38 v
    861.5 109 v
    729.196 -0.203275 v
    599.5 109 v
    565.945 85.0331 v
    556.359 99.4129 v
    0 0 z
  EndSpiro
45 622.5 m 1
 68.5751953125 665.161132812 95.94140625 707.18359375 134.5 737 c 0
 145.919921875 745.831054688 158.55859375 753.236328125 172.262695312 757.771484375 c 0
 185.967773438 762.306640625 200.674804688 763.780273438 215 762 c 0
 227.323242188 760.467773438 239.25390625 756.614257812 250.73828125 751.889648438 c 0
 262.22265625 747.165039062 273.361328125 741.620117188 284.915039062 737.068359375 c 0
 296.469726562 732.516601562 308.544921875 729.017578125 320.931640625 728.138671875 c 0
 333.319335938 727.258789062 345.880859375 729.116210938 357.5 733.5 c 0
 373.431640625 739.510742188 387.356445312 749.771484375 400.875 760.125 c 0
 404.26953125 762.724609375 407.643554688 765.3515625 411 768 c 1
 434.5 744.5 l 1
 365.694335938 699.778320312 311.403320312 633.22265625 281 557 c 0
 257.751953125 498.715820312 248.006835938 435.049804688 253 372.5 c 0
 256.823242188 324.61328125 269.40625 277.194335938 292.024414062 234.813476562 c 0
 314.643554688 192.43359375 347.66796875 155.306640625 388.5 130 c 0
 434.95703125 101.208007812 491.241210938 88.4267578125 545.5 95 c 1
 656.5 168 l 1
 656.5 121.5 l 1
 462 -11.5 l 1
 378.399414062 -10.4951171875 295.526367188 21.5634765625 233.012695312 77.0810546875 c 0
 170.499023438 132.59765625 128.875 211.103515625 118 294 c 0
 108.317382812 367.8125 122.888671875 444.60546875 158.935546875 509.741210938 c 0
 194.983398438 574.875976562 252.314453125 628.004882812 320 659 c 1
 296.999023438 646.201171875 269.462890625 642.668945312 243.5 647 c 0
 222.766601562 650.458984375 203.12109375 658.459960938 183.05078125 664.708007812 c 0
 162.981445312 670.955078125 141.5234375 675.041992188 121 670.5 c 0
 108.838867188 667.80859375 97.296875 662.124023438 88.0556640625 653.7734375 c 0
 78.8134765625 645.423828125 71.9404296875 634.470703125 68.5 622.5 c 1
 45 622.5 l 1
  Spiro
    134.5 737 o
    215 762 o
    357.5 733.5 o
    400.875 760.125 o
    411 768 v
    434.5 744.5 v
    281 557 o
    253 372.5 o
    388.5 130 o
    545.5 95 v
    656.5 168 v
    656.5 121.5 v
    462 -11.5 v
    118 294 o
    320 659 v
    243.5 647 o
    121 670.5 o
    68.5 622.5 v
    45 622.5 v
    216.5 622.5 z
  EndSpiro
711.540039062 413.108398438 m 1
 724.499023438 387.538085938 l 1
 522.287109375 285.453125 l 1
 509.370117188 311.0390625 l 1
 711.540039062 413.108398438 l 1
  Spiro
    711.54 413.107 v
    724.5 387.538 v
    522.288 285.452 v
    509.371 311.038 v
    0 0 z
  EndSpiro
712.583007812 518.594726562 m 1
 725.541992188 493.024414062 l 1
 523.330078125 390.939453125 l 1
 510.413085938 416.525390625 l 1
 712.583007812 518.594726562 l 1
  Spiro
    712.583 518.594 v
    725.543 493.025 v
    523.331 390.939 v
    510.413 416.525 v
    0 0 z
  EndSpiro
530.5 65 m 1
 501.833984375 64.9541015625 l 1
 501.8359375 756.428710938 l 1
 530.498046875 764.619140625 l 1
 530.5 65 l 1
  Spiro
    530.5 65 v
    501.834 64.9543 v
    501.836 756.428 v
    530.498 764.62 v
    0 0 z
  EndSpiro
509.5 764 m 1
 530.498046875 764.619140625 l 1
 527.5 744 l 1
 504.181640625 732.974609375 485.571289062 712.7734375 475.552734375 689.005859375 c 0
 465.533203125 665.237304688 464.461914062 638.79296875 464.5 613 c 2
 464.565429688 569 l 1
 464.5 307 l 1
 220.852539062 204.458007812 l 1
 220.873046875 233.083007812 l 1
 335.501953125 281.935546875 l 1
 335.5 439 l 1
 335.5 526 l 2
 335.5 554.365234375 337.635742188 583.307617188 348.895507812 609.342773438 c 0
 360.155273438 635.377929688 378.83984375 657.563476562 399.5 677 c 0
 433.567382812 709.049804688 471.724609375 736.416015625 509.5 764 c 1
  Spiro
    530.498 764.62 v
    527.5 744 v
    464.5 613 [
    464.565 569 v
    464.5 307 v
    220.853 204.458 v
    220.873 233.083 v
    335.502 281.936 v
    335.5 439 v
    335.5 526 ]
    399.5 677 o
    509.5 764 v
    681 764 z
  EndSpiro
EndSplineSet
Fore
SplineSet
752.212890625 651.922851562 m 1
 734.576171875 673.669921875 l 1
 793.86328125 721.750976562 l 1
 811.5 700.002929688 l 1
 752.212890625 651.922851562 l 1
  Spiro
    752.213 651.923 v
    734.576 673.67 v
    793.863 721.751 v
    811.5 700.003 v
    0 0 z
  EndSpiro
628.491210938 125.8671875 m 1
 628.491210938 610.388671875 l 1
 573 671 l 1
 525.5 641.5 l 1
 513.952148438 662.833007812 l 1
 667 761 l 1
 767.5 677.5 l 1
 767.5 138.807617188 l 1
 816 97 l 1
 847.120117188 123.379882812 l 1
 861.5 109 l 1
 729.196289062 -0.203125 l 1
 599.5 109 l 1
 565.9453125 85.033203125 l 1
 556.359375 99.4130859375 l 1
 628.491210938 125.8671875 l 1
  Spiro
    628.491 125.867 v
    628.491 610.389 v
    573 671 v
    525.5 641.5 v
    513.952 662.833 v
    667 761 v
    767.5 677.5 v
    767.5 138.808 v
    816 97 v
    847.12 123.38 v
    861.5 109 v
    729.196 -0.203125 v
    599.5 109 v
    565.945 85.0332 v
    556.359 99.4131 v
    0 0 z
  EndSpiro
68.5 622.5 m 1
 45 612.5 l 1
 56.9814453125 634.181640625 119.263671875 752.734375 203.088867188 752.734375 c 0
 252.926757812 752.734375 277.712890625 717.92578125 326.951171875 717.92578125 c 0
 364.733398438 717.92578125 388.546875 740.283203125 411 758 c 1
 434.5 734.5 l 1
 423.893554688 727.60546875 251.725585938 621.21484375 251.725585938 394.581054688 c 0
 251.725585938 249.7734375 347.05509171 93.3089343498 517.321002039 93.3089343498 c 0
 526.733711143 93.3089343498 536.146947179 93.8669138687 545.5 95 c 1
 656.5 168 l 1
 656.5 121.5 l 1
 462 -11.5 l 1
 271.697084004 -9.21255036903 115.078125 144.80859375 115.078125 328.961914062 c 0
 115.078125 483.743164062 209.598632812 598.444335938 320 649 c 1
 303.184570312 639.643554688 283.946289062 635.239257812 264.669921875 635.239257812 c 0
 217.932617188 635.239257812 123 707 68.5 622.5 c 1
711.540039062 413.108398438 m 1
 724.499023438 387.538085938 l 1
 522.287109375 285.453125 l 1
 509.370117188 311.0390625 l 1
 711.540039062 413.108398438 l 1
  Spiro
    711.54 413.108 v
    724.499 387.538 v
    522.287 285.453 v
    509.37 311.039 v
    0 0 z
  EndSpiro
712.583007812 518.594726562 m 1
 725.541992188 493.024414062 l 1
 523.330078125 390.939453125 l 1
 510.413085938 416.525390625 l 1
 712.583007812 518.594726562 l 1
  Spiro
    712.583 518.595 v
    725.542 493.024 v
    523.33 390.939 v
    510.413 416.525 v
    0 0 z
  EndSpiro
530.5 65 m 1
 501.833984375 64.9541015625 l 1
 501.8359375 746.428710938 l 1
 530 754.619140625 l 1
 530.5 65 l 1
509.5 754 m 1
 530 754.619140625 l 1
 530 734 l 1
 485.864257812 713.131835938 464.38614159 689.5672308 464.5 613 c 2
 464.5 307 l 1
 220.852539062 204.458007812 l 1
 220.873046875 233.083007812 l 1
 335.501953125 281.935546875 l 1
 335.5 526 l 2
 335.5 621.325773593 357.645507812 643.114257812 509.5 754 c 1
EndSplineSet
Colour: 660000
EndChar

StartChar: exclam
Encoding: 33 33 29
Width: 213
VWidth: 0
Flags: MW
LayerCount: 3
Back
SplineSet
100.935546875 212 m 1
 54.931640625 590 l 2
 53.5654296875 601.225585938 52.859375 612.53125 51.216796875 623.719726562 c 0
 50.3955078125 629.314453125 49.2080078125 634.884765625 47.1396484375 640.147460938 c 0
 45.0712890625 645.41015625 42.0830078125 650.35546875 38.0615234375 654.330078125 c 0
 31.9970703125 660.32421875 23.52734375 663.879882812 15.001953125 663.728515625 c 1
 15 678.109375 l 1
 152.76171875 766.752929688 l 1
 171.935546875 766.752929688 l 1
 128.935546875 212 l 1
 100.935546875 212 l 1
  Spiro
    100.936 212 v
    54.9317 590 ]
    38.0617 654.33 o
    15.0024 663.729 v
    15.0001 678.109 v
    152.762 766.753 v
    171.936 766.753 v
    128.936 212 v
    1103.92 212 z
  EndSpiro
16.7880859375 80.4677734375 m 1
 106.665039062 170.345703125 l 1
 198.01171875 78.998046875 l 1
 108.135742188 -10.8779296875 l 1
 16.7880859375 80.4677734375 l 1
  Spiro
    16.7877 80.4707 v
    106.664 170.347 v
    198.011 79 v
    108.135 -10.8763 v
    0 0 z
  EndSpiro
EndSplineSet
Fore
SplineSet
100.935546875 212 m 1
 54 600 l 2
 49.3212890625 638.67578125 44 663.728515625 15.001953125 663.728515625 c 1
 15 678.109375 l 1
 152.76171875 766.752929688 l 1
 171.935546875 766.752929688 l 1
 128.935546875 212 l 1
 100.935546875 212 l 1
16.7880859375 80.4677734375 m 1
 106.665039062 170.345703125 l 1
 198.01171875 78.998046875 l 1
 108.135742188 -10.8779296875 l 1
 16.7880859375 80.4677734375 l 1
  Spiro
    16.7881 80.4678 v
    106.665 170.346 v
    198.012 78.998 v
    108.136 -10.8779 v
    0 0 z
  EndSpiro
EndSplineSet
Colour: 660000
EndChar

StartChar: period
Encoding: 46 46 30
Width: 221
VWidth: 0
Flags: MW
LayerCount: 3
Back
SplineSet
20 80.4677734375 m 1
 109.876953125 170.345703125 l 1
 201.223632812 78.998046875 l 1
 111.34765625 -10.8779296875 l 1
 20 80.4677734375 l 1
  Spiro
    19.9996 80.4707 v
    109.876 170.347 v
    201.223 79 v
    111.347 -10.8763 v
    0 0 z
  EndSpiro
EndSplineSet
Fore
SplineSet
20 80.4677734375 m 1
 109.876953125 170.345703125 l 1
 201.223632812 78.998046875 l 1
 111.34765625 -10.8779296875 l 1
 20 80.4677734375 l 1
EndSplineSet
Colour: 660000
EndChar

StartChar: ellipsis
Encoding: 8230 8230 31
Width: 871
VWidth: 0
Flags: MW
LayerCount: 3
Back
SplineSet
15 80.4677734375 m 1
 104.876953125 170.345703125 l 1
 196.223632812 78.998046875 l 1
 106.34765625 -10.8779296875 l 1
 15 80.4677734375 l 1
  Spiro
    14.9996 80.4707 v
    104.876 170.347 v
    196.223 79 v
    106.347 -10.8763 v
    0 0 z
  EndSpiro
345 80.4677734375 m 1
 434.876953125 170.345703125 l 1
 526.223632812 78.998046875 l 1
 436.34765625 -10.8779296875 l 1
 345 80.4677734375 l 1
  Spiro
    345 80.4707 v
    434.876 170.347 v
    526.223 79 v
    436.347 -10.8763 v
    0 0 z
  EndSpiro
675 80.4677734375 m 1
 764.876953125 170.345703125 l 1
 856.223632812 78.998046875 l 1
 766.34765625 -10.8779296875 l 1
 675 80.4677734375 l 1
  Spiro
    675 80.4707 v
    764.876 170.347 v
    856.223 79 v
    766.347 -10.8763 v
    0 0 z
  EndSpiro
EndSplineSet
Fore
SplineSet
15 80.4677734375 m 1
 104.876953125 170.345703125 l 1
 196.223632812 78.998046875 l 1
 106.34765625 -10.8779296875 l 1
 15 80.4677734375 l 1
345 80.4677734375 m 1
 434.876953125 170.345703125 l 1
 526.223632812 78.998046875 l 1
 436.34765625 -10.8779296875 l 1
 345 80.4677734375 l 1
675 80.4677734375 m 1
 764.876953125 170.345703125 l 1
 856.223632812 78.998046875 l 1
 766.34765625 -10.8779296875 l 1
 675 80.4677734375 l 1
EndSplineSet
Colour: ff00
EndChar

StartChar: j
Encoding: 106 106 32
Width: 278
VWidth: 0
Flags: MW
LayerCount: 3
Back
SplineSet
197.288085938 392.922851562 m 1
 179.651367188 414.669921875 l 1
 238.938476562 462.750976562 l 1
 256.575195312 441.002929688 l 1
 197.288085938 392.922851562 l 1
  Spiro
    197.287 392.92 v
    179.651 414.667 v
    238.938 462.748 v
    256.575 441 v
    0 0 z
  EndSpiro
58.259765625 647.614257812 m 1
 153.771484375 731.479492188 l 1
 239.005859375 634.405273438 l 1
 143.49609375 550.541992188 l 1
 58.259765625 647.614257812 l 1
  Spiro
    58.2589 647.617 v
    153.77 731.481 v
    239.005 634.407 v
    143.495 550.543 v
    0 0 z
  EndSpiro
214.913085938 119.6328125 m 1
 212.575195312 26 l 2
 212.036132812 4.4287109375 210.991210938 -17.2841796875 205.877929688 -38.248046875 c 0
 200.764648438 -59.2119140625 191.833984375 -79.2421875 179.575195312 -97 c 0
 161.203125 -123.615234375 135.65234375 -145.129882812 106.577148438 -159.290039062 c 0
 77.501953125 -173.451171875 44.890625 -180.259765625 12.5751953125 -179 c 1
 12.5751953125 -151 l 1
 23.3857421875 -150.510742188 34.0693359375 -147.504882812 43.5751953125 -142.333007812 c 0
 58.1669921875 -134.39453125 69.7001953125 -121.40234375 77.146484375 -106.552734375 c 0
 84.5927734375 -91.7041015625 88.1591796875 -75.1669921875 89.7353515625 -58.6298828125 c 0
 92.8857421875 -25.556640625 90.2861328125 7.7763671875 90.28515625 41 c 2
 90.2822265625 119.6328125 l 1
 90.2822265625 383.275390625 l 1
 56.728515625 426.416015625 l 1
 18.380859375 402.44921875 l 1
 4 421.622070312 l 1
 138.217773438 512.69921875 l 1
 214.913085938 421.622070312 l 1
 214.913085938 119.6328125 l 1
  Spiro
    212.575 26 ]
    179.575 -97 o
    12.5752 -179 v
    12.5752 -151 v
    43.5752 -142.333 o
    90.285 41 [
    90.282 119.633 v
    90.282 383.275 v
    56.7285 426.416 v
    18.3809 402.449 v
    4 421.622 v
    138.218 512.699 v
    214.913 421.622 v
    214.913 119.633 v
    985.338 119.633 z
  EndSpiro
EndSplineSet
Fore
SplineSet
197.288085938 392.922851562 m 1
 179.651367188 414.669921875 l 1
 238.938476562 462.750976562 l 1
 256.575195312 441.002929688 l 1
 197.288085938 392.922851562 l 1
  Spiro
    197.288 392.923 v
    179.651 414.67 v
    238.938 462.751 v
    256.575 441.003 v
    0 0 z
  EndSpiro
58.259765625 647.614257812 m 1
 153.771484375 731.479492188 l 1
 239.005859375 634.405273438 l 1
 143.49609375 550.541992188 l 1
 58.259765625 647.614257812 l 1
  Spiro
    58.2598 647.614 v
    153.771 731.479 v
    239.006 634.405 v
    143.496 550.542 v
    0 0 z
  EndSpiro
214.913085938 119.6328125 m 1
 212.575195312 26 l 2
 208.55078125 -135.045898438 94.5498046875 -179.147460938 20.173828125 -179.147460938 c 0
 17.640625 -179.147460938 15.1064453125 -179.098632812 12.5751953125 -179 c 1
 12.5751953125 -151 l 1
 82 -151 90.2861328125 -79 90.28515625 41 c 2
 90.2822265625 383.275390625 l 1
 56.728515625 426.416015625 l 1
 18.380859375 402.44921875 l 1
 4 421.622070312 l 1
 138.217773438 512.69921875 l 1
 214.913085938 421.622070312 l 1
 214.913085938 119.6328125 l 1
  Spiro
    214.913 119.633 v
    212.575 26 ]
    211.737 4.43606 o
    209.764 -17.0889 o
    205.878 -38.248 o
    199.518 -58.8309 o
    190.697 -78.5534 o
    179.575 -97 o
    158.968 -121.809 o
    134.316 -142.781 o
    106.577 -159.29 o
    76.4962 -170.965 o
    44.8152 -177.601 o
    12.5752 -179 v
    12.5752 -151 v
    23.2939 -149.687 o
    33.7258 -146.766 o
    43.5752 -142.333 o
    57.0969 -132.839 o
    68.386 -120.652 o
    77.1465 -106.553 o
    83.3644 -91.2196 o
    87.4289 -75.0881 o
    89.7354 -58.6299 o
    91.278 -25.5169 o
    90.8423 7.78684 o
    90.2852 41 [
    90.2822 119.633 v
    90.2822 383.275 v
    56.7285 426.416 v
    18.3809 402.449 v
    4 421.622 v
    138.218 512.699 v
    214.913 421.622 v
    0 0 z
  EndSpiro
EndSplineSet
Colour: 660000
EndChar

